<svg width="220" height="220" viewBox="0 0 220 220" fill="none" xmlns="http://www.w3.org/2000/svg">
<path d="M63.9572 81.4743C66.6589 81.06 69.3462 81.96 71.8932 82.7714C76.9126 84.3715 81.7515 86.5401 86.2954 89.203C88.4756 90.5287 90.5785 91.9744 92.6728 93.4316C94.9734 95.1402 97.1508 97.0831 99.7952 98.2574C100.804 98.6974 101.844 98.2402 102.786 97.8717C103.889 97.9917 104.849 97.3374 105.949 97.4716C108.422 97.5631 110.911 97.1345 113.364 97.6117C114.868 97.3059 116.727 96.7316 118.022 97.8574C118.799 98.6688 119.942 98.0059 120.827 97.7745C123.726 96.6345 125.992 94.4087 128.542 92.6887C131.473 90.6773 134.562 88.8858 137.77 87.3486C141.933 85.4515 146.239 83.8857 150.591 82.4829C152.316 82.0057 154.124 81.38 155.929 81.8257C157.33 82.2286 158.252 83.5429 158.567 84.9086C159.897 89.7715 161.189 94.6573 162.08 99.6231C162.945 104.017 163.896 108.512 163.237 113.003C162.292 120.489 160.292 127.795 157.905 134.938C157.484 136.218 156.825 137.601 155.525 138.187C154.273 138.798 152.834 138.547 151.551 138.181C149.497 137.552 147.534 136.664 145.626 135.687C140.89 133.258 136.358 130.426 132.187 127.124C128.895 124.523 125.597 121.932 122.414 119.198C120.933 118.021 119.615 116.578 117.862 115.789C117.458 115.572 116.999 115.729 116.584 115.806C113.642 116.489 110.728 117.518 107.665 117.409C106.41 117.426 105.153 117.378 103.909 117.212C102.646 117.018 101.637 116.146 100.818 115.223C98.9357 115.723 97.4659 117.061 95.8902 118.126C90.5957 121.826 85.1981 125.443 79.3192 128.166C76.4198 129.541 73.4976 130.884 70.4406 131.875C68.4724 132.535 66.3838 133.361 64.2809 132.832C63.1607 132.549 62.4531 131.555 62.0806 130.526C61.075 127.872 60.5995 125.058 59.7686 122.352C58.3504 117.403 56.8864 112.438 56.2332 107.32C56.2103 105.449 56.8864 103.669 57.2417 101.855C58.3218 96.7402 60.1697 91.8344 61.4532 86.7772C61.9231 84.9172 61.9145 82.38 63.9572 81.4743ZM64.2122 83.2857C66.2205 83.3514 68.1286 84.0143 70.0539 84.5172C72.7469 85.2629 75.2624 86.5115 77.7864 87.6829C82.3761 89.7572 86.6936 92.3887 90.7533 95.3516C93.7529 97.5516 96.4603 100.332 100.082 101.509C100.205 101.04 100.319 100.572 100.434 100.1C99.8639 100.035 99.2766 99.966 98.7809 99.6545C96.9703 98.6374 95.3 97.3945 93.6441 96.1488C88.0745 91.8144 81.9206 88.1744 75.2796 85.7315C72.4031 84.6372 69.4895 83.54 66.4411 83.0229C65.6876 82.8629 64.9313 83.0629 64.2122 83.2857ZM149.806 84.4715C146.288 85.4743 142.902 86.8543 139.509 88.2058C136.77 89.3515 134.229 90.8916 131.697 92.4259C131.622 92.843 132.132 92.6173 132.295 92.4887C136.063 90.4515 139.994 88.7287 144.019 87.2686C145.809 86.5801 147.612 85.9001 149.488 85.4772C151.075 85.1172 152.705 84.5743 154.347 84.9057C155.175 85.1772 155.522 86.0601 155.76 86.8229C157.375 93.1716 158.702 99.6003 159.55 106.1C160.131 111.186 159.498 116.303 158.656 121.321C157.865 125.612 156.891 129.878 155.51 134.021C155.353 134.581 155.146 135.129 154.805 135.604C157.238 126.278 159.762 116.729 159.057 107.006C158.352 100.2 156.748 93.5344 155.138 86.8972C154.949 86.1258 154.361 85.3629 153.496 85.3686C150.416 85.34 147.549 86.6258 144.712 87.6658C140.34 89.103 136.034 90.863 131.934 92.9087L131.731 92.9744L131.605 93.1487C131.467 92.9659 131.324 92.7887 131.181 92.6116C130.634 93.5402 129.516 93.923 128.703 94.5887C125.557 96.6374 122.724 99.4374 118.965 100.317C118.905 101.589 118.801 102.86 118.79 104.135C122.408 103.317 126.104 102.855 129.685 101.866C131.167 101.557 132.611 101.089 134.103 100.835C134.175 100.78 134.315 100.675 134.384 100.62C134.501 100.735 134.736 100.957 134.854 101.072C133.106 101.609 131.333 102.069 129.551 102.486C126.041 103.477 122.406 103.915 118.836 104.623C118.819 104.86 118.784 105.332 118.767 105.566C122.46 105.3 126.087 104.509 129.768 104.157C128.651 104.557 127.477 104.735 126.313 104.937C123.832 105.357 121.34 105.857 118.813 105.835C118.793 106.326 118.776 106.82 118.758 107.318C119.647 107.515 120.54 107.298 121.429 107.24C123.789 107.158 126.133 106.866 128.494 106.803C128.479 107 128.594 107.335 128.293 107.36C125.557 107.42 122.818 107.509 120.082 107.618L121.185 107.9C120.95 108.058 120.715 108.215 120.477 108.369C119.907 108.306 119.337 108.269 118.764 108.246C118.71 108.829 118.658 109.415 118.592 109.998C118.936 109.992 119.28 110.003 119.624 110.032C121.961 110.106 124.116 111.112 126.247 111.966C128.33 112.786 130.224 114.003 132.278 114.889C134.138 115.695 135.859 116.795 137.768 117.495C137.269 117.515 136.748 117.549 136.295 117.301C134.67 116.561 133.078 115.746 131.427 115.06C128.717 113.986 126.259 112.346 123.46 111.478C122.053 110.946 120.546 110.7 119.18 110.063C118.985 110.186 118.79 110.309 118.598 110.435C118.664 111 118.501 111.62 118.735 112.158C119.664 113.292 121.239 113.692 122.045 114.946C122.764 116.052 123.652 117.026 124.56 117.981C123.4 117.103 122.663 115.832 121.735 114.74C120.741 113.786 119.469 113.169 118.515 112.166C118.46 112.849 118.423 113.535 118.392 114.22C120.546 114.778 121.884 116.746 123.655 117.961C130.442 123.783 137.292 129.706 145.325 133.784C147.609 134.955 149.932 136.089 152.387 136.864C153.462 137.255 154.808 137.161 155.622 136.289C156.59 135.161 156.969 133.689 157.404 132.306C158.596 128.912 159.358 125.395 160.306 121.932C161.323 117.712 162.197 113.403 162.203 109.046C162.022 105.955 161.538 102.886 160.876 99.8631C160.008 95.0516 158.716 90.3315 157.364 85.6372C157.063 84.6029 156.504 83.38 155.275 83.2657C153.373 83.1286 151.568 83.8686 149.806 84.4715ZM62.5419 88.4372C60.8086 94.2259 58.7888 99.9545 57.7488 105.923C57.4394 107.738 58.0468 109.523 58.4421 111.275C59.8374 117.241 61.5449 123.123 63.0777 129.055C63.3069 129.778 63.4873 130.589 64.0804 131.115C64.9628 131.598 66.0372 131.458 66.9941 131.315C70.1169 130.609 73.0077 129.189 75.9414 127.952C82.6196 124.903 89.0973 121.349 94.9734 116.935C96.8242 115.755 98.526 114.006 100.795 113.746C100.311 112.063 99.9212 110.34 99.8037 108.589C97.973 108.932 96.1194 109.166 94.3087 109.615C91.0541 110.198 87.788 110.76 84.6108 111.689C82.697 112.235 80.8376 112.943 78.9439 113.555C77.4254 114.04 75.9815 114.86 74.3571 114.938C74.7381 114.418 75.377 114.235 75.9385 113.978C79.7117 112.349 83.5794 110.895 87.6047 110.029C91.3922 109.18 95.2284 108.492 99.1047 108.223C99.5144 108.249 100.159 107.838 99.6462 107.438C94.684 107.606 89.7248 106.96 84.7684 107.389C81.5997 107.412 78.4454 107.695 75.2824 107.875C71.2056 108.2 67.1144 108.36 63.0175 108.298C63.0433 108.172 63.092 107.918 63.1149 107.789C70.432 107.798 77.7148 106.978 85.0148 106.657C89.9425 106.48 94.8416 107.183 99.7694 107.109C99.7894 106.58 99.8009 106.052 99.8152 105.523C97.1221 105.743 94.5437 104.792 91.8936 104.532C91.0914 104.42 90.2577 104.377 89.5357 103.977C92.988 104.172 96.383 104.909 99.8095 105.337C99.8238 105.089 99.8467 104.589 99.8582 104.34C98.5145 104.486 97.2224 103.949 95.9016 103.766C93.243 103.083 90.5126 102.703 87.8969 101.863C86.9429 101.526 85.7883 101.595 85.0405 100.826C86.4014 100.909 87.7078 101.335 89.0257 101.66C92.6757 102.46 96.3027 103.377 99.9585 104.146C100.007 103.377 100.064 102.609 100.125 101.843C97.0992 101.16 94.7557 99.0088 92.3061 97.2516C89.5987 95.0802 86.6421 93.2573 83.6596 91.4916C80.4738 89.6858 77.0988 88.2487 73.721 86.8486C70.4893 85.4972 67.1431 84.4257 63.7395 83.5914C63.2152 85.1743 63.0576 86.8515 62.5419 88.4372ZM103.818 99.2174C103.497 100.069 103.514 100.986 103.431 101.877C103.038 106.223 103.081 110.649 104.064 114.92C103.961 114.946 103.755 115 103.654 115.026C102.308 109.949 102.554 104.623 103.276 99.4688C102.594 99.6431 101.927 99.8603 101.268 100.1C100.875 101.415 100.741 102.795 100.646 104.157C100.494 107.223 100.517 110.349 101.316 113.332C101.549 114.206 102.222 114.96 103.081 115.255C104.866 115.958 106.826 115.723 108.694 115.7C110.616 115.695 112.344 114.6 114.263 114.655C115.484 114.66 116.693 114.48 117.896 114.303C117.767 109.329 118.291 104.357 118.079 99.3888C117.105 100.095 115.888 100.269 114.788 100.695C114.524 102.9 114.315 105.112 114.152 107.326C114.017 109.049 114.157 110.815 113.687 112.498C113.014 108.04 114.017 103.566 114.455 99.1374C113.246 99.1602 112.037 99.2317 110.831 99.2888C108.493 99.5288 106.158 99.1145 103.818 99.2174ZM114.831 98.9831C114.504 99.3717 114.57 99.9231 114.458 100.386C115.736 100.223 116.827 99.4317 118.111 99.2688C117.019 99.2117 115.925 98.666 114.831 98.9831Z" fill="black"/>
<path d="M70.6096 103.766C72.9216 103.863 75.2423 103.703 77.5572 103.8C77.8494 103.789 78.0499 103.932 78.1531 104.226C75.4629 104.315 72.7698 104.212 70.0796 104.318L70.6239 104.155C70.6211 104.058 70.6125 103.863 70.6096 103.766Z" fill="black"/>
<path d="M146.658 104.815C147.274 104.709 147.881 104.546 148.48 104.355C148.491 104.483 148.517 104.737 148.528 104.863C142.289 106.783 135.682 106.769 129.224 107.266C129.015 107.089 128.803 106.912 128.597 106.735C134.648 106.497 140.687 105.849 146.658 104.815Z" fill="black"/>
<path d="M120.838 108.455C121.065 108.292 121.291 108.126 121.514 107.96C125.408 108.678 129.316 109.352 133.169 110.258C135.22 110.738 137.229 111.403 139.292 111.829C139.558 111.943 139.824 112.055 140.094 112.163C143.337 113.341 146.669 114.246 149.964 115.261C150.319 115.738 149.54 115.778 149.25 115.695C144.686 114.732 140.217 113.361 135.762 111.983C132.928 111.086 130.015 110.483 127.124 109.798C125.03 109.355 122.967 108.729 120.838 108.455Z" fill="black"/>
<path d="M93.7786 111.212C95.3658 110.518 97.0848 110.177 98.8153 110.123C97.7122 110.615 96.4402 110.483 95.3429 111C94.1568 111.52 92.9678 112.026 91.7731 112.52C90.0656 113.229 88.5185 114.272 86.8139 114.98C88.9426 113.412 91.2804 112.106 93.7786 111.212Z" fill="black"/>
<path d="M147.849 111.117C150.009 110.757 152.247 110.88 154.376 110.295C154.341 110.417 154.273 110.663 154.238 110.786C151.812 111.195 149.356 111.432 146.898 111.529C144.56 111.852 142.179 111.846 139.83 111.74C141.526 111.466 143.257 111.58 144.961 111.363C145.913 111.189 146.884 111.189 147.849 111.117Z" fill="black"/>
<path d="M96.9215 112.015C97.6864 111.523 98.4944 110.963 99.457 111.063C97.9156 111.675 96.7295 112.938 95.128 113.395C94.4719 113.649 93.9219 114.1 93.326 114.46C94.4089 113.486 95.7125 112.812 96.9215 112.015Z" fill="black"/>
</svg>
