<svg width="219" height="220" viewBox="0 0 219 220" fill="none" xmlns="http://www.w3.org/2000/svg">
<path d="M102.302 58.8793C105.796 56.5117 110.289 55.6435 114.398 56.635C118.995 57.3798 122.818 60.7981 124.74 64.9514C125.883 67.2204 126.336 69.7558 127.45 72.0346C130.849 72.0346 134.411 71.3441 137.801 72.153C138.402 72.8485 137.762 73.7808 137.195 74.2592C136.51 74.8166 136.21 75.6552 135.855 76.4345C137.087 76.5578 138.314 76.7058 139.55 76.7946C138.841 76.469 137.643 76.469 137.668 75.3987C139.373 75.4233 141.181 76.0695 142.186 77.5197C143.324 79.1623 143.827 81.1402 144.142 83.0886C145.157 90.2163 145.512 97.4129 145.822 104.6C145.881 108.926 146.236 113.459 144.517 117.543C143.95 119.028 142.881 120.384 142.925 122.046C142.827 128.148 143.359 134.319 142.191 140.351C141.585 143.247 140.408 146.231 138.052 148.14C135.825 149.778 132.973 150.078 130.297 150.291C120.921 150.843 111.531 151.08 102.155 151.682C95.5721 151.864 88.901 152.525 82.3875 151.208C78.8106 150.389 75.613 147.79 74.3911 144.283C72.7898 139.853 73.0312 135.054 72.9228 130.422C72.8145 121.366 73.5732 112.339 73.9477 103.298C74.3221 97.1959 74.9035 91.114 75.5736 85.0419C75.9283 83.2958 75.5933 81.4214 76.3422 79.769C77.0566 78.6937 77.8646 77.6825 78.5051 76.5578C84.2056 76.3852 89.9061 76.5726 95.6017 76.4888C95.6854 73.5539 95.1041 70.4907 96.2077 67.6742C97.3458 64.251 99.2772 60.9461 102.302 58.8793ZM100.307 63.3286C99.4398 65.0747 98.4445 66.7962 97.8927 68.6804C98.0257 71.8324 97.3655 74.9547 97.538 78.1215C97.3409 84.7065 97.8927 91.3458 96.9714 97.8914C97.9568 97.7582 98.9422 97.6201 99.9276 97.4771C100.056 90.6898 99.9768 83.9025 99.9916 77.1103C100.011 73.6624 100.13 70.1553 101.105 66.8258C101.45 65.6173 101.701 64.2559 102.746 63.4272C105.396 60.9313 109.294 59.2739 112.915 60.4232C116.014 61.1829 118.655 63.151 120.734 65.489C121.202 66.6729 122.892 66.9146 122.956 68.2809C122.853 69.2132 123.745 69.3464 124.42 69.5782C125.656 72.153 125.218 75.0386 125.656 77.7367C125.863 74.7574 125.74 71.5512 124.144 68.932C123.178 66.5742 122.552 63.955 120.719 62.0757C117.99 58.9089 113.585 57.7794 109.54 58.0211C105.845 58.1888 102.416 60.3443 100.307 63.3286ZM105.377 64.0882C101.938 67.2253 102.11 72.2122 101.519 76.4543C103.16 76.9968 104.909 76.7058 106.599 76.7058C110.663 76.6959 114.723 76.5874 118.783 76.5085C118.773 72.8584 118.113 69.1293 116.398 65.8787C114.368 61.9869 108.535 61.0448 105.377 64.0882ZM120.838 67.2155C120.7 68.0096 121.01 68.345 121.779 68.2168C121.917 67.4078 121.601 67.0724 120.838 67.2155ZM121.552 71.3687C121.69 72.1234 123.094 72.0396 123.715 71.936C124.065 70.9001 122.074 70.7916 121.552 71.3687ZM127.42 73.3566C127.321 73.7906 127.257 74.2296 127.233 74.6736C127.701 80.4151 127.321 86.1814 127.312 91.9328C127.435 93.6888 127.425 95.4596 127.085 97.191C128.095 97.2452 129.105 97.2699 130.115 97.2452C129.913 96.308 129.647 95.3708 129.682 94.404C129.76 89.8019 129.617 85.1998 129.75 80.6026C129.884 78.2103 129.903 75.8031 129.593 73.4256C128.869 73.3714 128.144 73.3467 127.42 73.3566ZM134.87 75.3543C135.993 75.4085 135.446 73.9633 135.466 73.2924C134.387 73.322 133.717 74.8314 134.87 75.3543ZM131.342 78.373C131.219 85.0123 131.278 91.6615 131.815 98.286C131.894 99.6326 132.081 100.989 131.874 102.331C131.322 103.86 129.504 103.317 128.272 103.367C127.164 103.238 125.981 103.559 124.927 103.174C123.917 99.5833 125.784 95.9036 125.572 92.2436C125.489 87.7993 125.957 83.3402 125.558 78.9107C120.586 78.2152 115.561 78.812 110.565 78.5999C107.791 78.7529 105.012 78.5654 102.243 78.7529C101.204 78.9699 101.489 80.3214 101.415 81.1008C101.534 85.8509 101.351 90.6059 101.514 95.3511C101.834 98.1528 102.051 100.989 101.76 103.806C100.194 104.378 98.3756 103.983 96.7201 104.042C95.5376 104.166 95.0696 102.711 95.0449 101.764C94.6951 99.4304 95.7938 97.2304 95.8283 94.917C96.0402 89.427 96.0845 83.937 95.9958 78.447C90.7732 78.4964 85.5507 78.4421 80.3281 78.521C81.0622 89.5602 80.2246 100.634 80.87 111.683C80.9439 112.147 80.7518 112.916 81.3627 113.064C81.9737 111.362 81.6189 109.493 81.7175 107.717C81.7865 109.527 81.949 111.357 81.5697 113.153L82.3432 112.906C81.4958 113.523 81.008 114.623 81.4859 115.634C82.6585 120.029 86.5705 122.984 90.5466 124.745C96.8334 127.502 103.805 127.507 110.53 127.926C115.428 128.498 120.37 128.138 125.277 127.936C124.902 127.704 124.528 127.472 124.149 127.25L125.129 126.703C125.149 126.989 125.188 127.566 125.208 127.852C128.938 127.472 132.677 126.55 135.963 124.705C140.013 122.347 142.482 118.012 143.645 113.592C144.462 105.098 143.832 96.5399 143.176 88.0558C143.132 87.4589 142.497 87.6513 142.112 87.6908C142.245 88.5589 142.339 89.4369 142.393 90.3198C141.812 88.9831 141.624 87.2222 142.935 86.2455C142.713 83.5868 142.546 80.5434 140.698 78.4618C137.584 78.4174 134.456 78.6394 131.342 78.373ZM76.8644 84.7904C77.2536 85.5155 77.1699 86.3589 77.1009 87.1432C75.7164 100.2 75.2188 113.35 75.1301 126.481C74.8936 130.812 74.8838 135.182 75.4947 139.483C76.3027 144.041 79.2097 148.653 83.9937 149.699C82.3087 147.514 80.7912 145.052 80.5695 142.236C79.4511 132.735 79.8009 123.141 79.0175 113.617C78.3524 104.082 79.1998 94.5076 78.5544 84.9679C78.1306 84.9236 77.2881 84.8348 76.8644 84.7904ZM126.474 98.4636C126.395 99.0111 126.238 100.111 126.164 100.664C126.789 100.249 127.44 99.8645 128.09 99.4896C128.465 99.5438 129.209 99.6524 129.578 99.7115C129.504 100.141 129.435 100.575 129.366 101.009C128.253 101.177 127.095 101.216 126.05 100.738L126.114 101.823C127.42 102.385 128.952 102.059 130.347 102.227C130.642 101.142 130.623 99.9236 130.14 98.9026C129.056 98.3205 127.676 98.6116 126.474 98.4636ZM96.4343 98.9766C96.454 100.333 96.4688 101.69 96.4836 103.046C97.7498 102.992 99.021 102.992 100.282 102.878C100.864 101.961 100.376 100.703 100.44 99.6474C99.2279 98.9223 97.7794 99.0851 96.4343 98.9766ZM127.962 100.738C128.603 100.95 128.918 100.708 128.898 100.012C128.208 99.8053 127.898 100.047 127.962 100.738ZM81.1065 119.526C81.3085 126.451 81.3085 133.396 81.9244 140.302C82.1708 143.567 83.2399 147.075 86.0877 149.003C88.561 151.001 91.936 150.261 94.8528 150.108C106.091 149.61 117.339 149.205 128.573 148.628C131.209 148.322 134.16 148.569 136.412 146.941C139.107 144.993 140.141 141.614 140.669 138.482C141.334 133.031 141.349 127.536 141.26 122.056C137.658 126.762 131.504 128.562 125.868 129.263C119.128 129.953 112.324 129.894 105.584 129.214C98.1292 128.661 90.2264 127.803 83.9494 123.359C82.5501 122.481 81.6731 121.04 81.1065 119.526Z" fill="black"/>
<path d="M98.8338 68.0935C99.2969 67.5262 99.0653 65.7949 100.213 66.1155C100.405 66.3868 100.785 66.9343 100.977 67.2056C100.213 68.9419 99.4496 70.6732 98.8288 72.4638L98.1194 72.6709C98.1046 71.492 97.7498 70.106 98.5776 69.0997C99.0407 68.71 99.563 68.3845 99.9473 67.911L98.8338 68.0935Z" fill="black"/>
<path d="M110.259 115.373C113.348 114.455 117.369 115.669 118.532 118.929C119.803 121.588 118.482 125.194 115.605 126.091C113.55 126.594 111.245 126.56 109.313 125.623C105.598 123.354 105.933 116.744 110.259 115.373ZM110.156 116.231C106.978 117.676 106.608 122.609 109.441 124.592C111.126 125.47 113.107 125.559 114.96 125.317C117.384 124.819 118.98 121.889 118.009 119.59C116.97 116.517 113.013 115.348 110.156 116.231Z" fill="black"/>
<path d="M112.88 117.286C113.092 117.286 113.511 117.286 113.723 117.286C114.206 118.164 115.186 118.549 115.832 119.279C116.842 120.246 116.108 121.721 116.31 122.924L115.546 122.638C115.669 122.969 115.92 123.625 116.044 123.955L115.201 123.748L115.457 124.429C114.457 124.325 113.462 124.236 112.462 124.167C111.713 123.644 110.649 123.363 110.289 122.441C109.481 120.729 110.244 118.574 111.826 117.602C111.575 118.421 111.235 119.279 111.782 120.068C112.274 119.195 112.688 118.273 112.88 117.286ZM113.201 118.564C113.186 119.432 112.826 120.226 112.427 120.986C113.107 120.971 113.787 120.951 114.467 120.922C114.427 119.762 112.462 119.225 114.452 118.228C114.142 118.312 113.516 118.48 113.201 118.564ZM112.979 123.723C113.876 123.403 114.787 123.038 115.26 122.15C114.117 122.17 112.969 122.017 112.028 121.316C110.614 122.219 111.92 123.368 112.979 123.723Z" fill="black"/>
<path d="M128.957 126.047C128.952 127.714 130.401 125.282 128.957 126.047V126.047Z" fill="black"/>
<path d="M114.856 163.456C115.492 162.765 116.399 162.573 117.276 162.41C117.315 162.671 117.389 163.194 117.423 163.456H114.856Z" fill="black"/>
</svg>
