<svg width="219" height="219" viewBox="0 0 219 219" fill="none" xmlns="http://www.w3.org/2000/svg">
<path d="M100.709 56.4825C106.305 55.4842 112.164 55.3911 117.661 56.9946C123.04 58.5463 128.336 60.6773 132.904 63.967C136.417 66.5997 139.843 69.4187 142.633 72.8325C146.978 77.9583 150.869 83.4824 154.052 89.4048C155.111 91.4014 156.754 93.0721 157.462 95.2497C158.304 97.8824 158.49 100.67 158.5 103.422C158.418 104.275 158.748 105.31 158.009 105.951C156.63 106.453 157.508 104.255 157.25 103.489C157.059 104.808 156.811 106.163 157.348 107.446C157.989 108.962 157.296 110.513 156.656 111.889C155.519 110.798 154.625 109.505 153.953 108.088C154.103 109.091 154.325 110.089 154.697 111.041C154.444 111.507 154.191 111.977 153.943 112.448C151.029 111.739 151.478 108.289 150.977 106.019C150.895 108.015 150.667 110.286 152.016 111.946C152.605 112.344 153.328 112.448 153.995 112.655C154.563 112.463 155.178 111.522 155.741 112.319C156.635 113.363 155.829 114.874 154.982 115.686C154.222 115.655 153.462 115.619 152.708 115.577C153.71 115.877 154.739 116.146 155.509 116.917C154.92 116.958 153.736 117.046 153.142 117.088C153.953 121.282 153.545 125.596 153.571 129.843C153.328 134.493 153.101 139.153 152.522 143.772C151.995 147.832 149.768 151.515 146.782 154.246C143.904 157.091 140.592 159.455 137.156 161.575C134.392 163.339 130.925 163.163 127.84 162.553C122.224 161.394 116.711 159.791 111.068 158.767C100.394 156.734 89.8016 154.225 79.0286 152.741C75.0192 152.198 71.3507 150.294 68.0904 147.972C65.7601 146.322 64.0964 143.86 63.1405 141.191C61.8075 137.555 62.071 133.608 62.2157 129.812C62.4947 127.06 62.1795 124.272 62.6394 121.536C63.1199 117.636 64.0757 113.829 65.0471 110.032C62.8047 109.903 61.234 107.891 60.5054 105.936C59.7304 103.629 60.7534 101.224 60.4641 98.8703C59.9991 95.4772 60.4589 91.81 62.381 88.9031C63.6779 86.9169 65.166 85.06 66.4938 83.0945C69.6715 79.0756 72.2859 74.5652 76.099 71.079C82.9968 64.4273 91.1243 58.386 100.709 56.4825ZM104.346 58.0601C95.5988 59.1204 88.0138 64.1584 81.4157 69.698C74.9778 75.0411 70.245 82.0031 65.1401 88.5462C63.3007 90.9928 60.9291 93.7186 61.9573 97.0393C63.8897 95.379 64.2514 92.4824 66.5145 91.1169C66.7212 91.541 66.9279 91.9704 67.1294 92.3997C66.8762 92.3324 66.3647 92.1979 66.1115 92.1307C65.9306 92.6841 65.7601 93.2324 65.5948 93.7859C67.119 93.2272 68.3487 92.0376 69.9866 91.7738C69.6715 92.5135 69.3459 93.2479 69.0204 93.9824C68.4211 94.4634 68.0232 95.0997 68.0077 95.9014C67.1035 95.9996 66.1942 96.0928 65.2848 95.9686C65.755 98.7462 64.9541 101.4 64.0964 104.007C66.282 102.17 65.6723 99.0514 65.9306 96.5272C66.7625 96.6048 67.6254 96.5997 68.2196 95.9324C69.8006 94.2824 70.6945 92.11 72.1205 90.3255C71.2112 89.3842 70.4207 90.8376 69.997 91.5359C69.6921 91.6083 69.0824 91.7531 68.7776 91.8255C69.0669 90.8893 69.2374 89.891 69.7593 89.0479C74.7763 80.0066 81.5036 71.5549 90.5714 66.3359C95.6246 63.7239 101.076 61.3704 106.863 61.3291C111.332 61.1015 115.744 62.2239 119.883 63.8273C132.211 68.5549 141.501 79.1221 146.875 90.9566C147.815 93.5738 148.688 96.2169 149.799 98.7721C150.13 98.8807 150.802 99.0979 151.132 99.2117C151.106 99.6824 151.06 100.629 151.034 101.105C151.458 100.665 151.84 100.189 152.16 99.6721C154.083 100.112 152.77 97.6755 153.08 96.76C154.868 98.4979 155.953 100.763 156.955 103.008C156.65 100.288 156.568 97.3807 155.121 94.9703C154.01 93.3255 152.935 91.6652 151.856 90.0048C149.851 87.3876 148.647 84.2583 146.518 81.7342C141.258 74.5497 135.203 67.6187 127.318 63.2584C120.389 59.4049 112.345 56.7567 104.346 58.0601ZM91.3051 69.7601C84.831 74.0221 79.7933 80.048 75.0295 86.0686C72.8542 88.7117 73.2056 92.4462 71.3507 95.26C70.5292 96.8376 68.8241 97.5617 67.3567 98.3841C67.429 99.1186 67.5065 99.8583 67.5944 100.593C68.9171 99.4807 70.3741 98.2083 72.2549 98.6117C79.4988 99.5996 86.7376 100.712 93.9712 101.829C111.688 104.446 129.468 106.639 147.205 109.096C147.955 109.215 148.699 109.391 149.437 109.567C149.427 108.025 149.474 106.484 149.515 104.943C147.794 103.753 146.606 101.907 146.467 99.7858C145.531 92.4928 141.124 86.3738 136.985 80.5497C134.846 77.3997 132.232 74.5549 129.116 72.3566C123.04 67.7015 115.801 63.7549 107.953 63.8015C101.882 63.7291 96.348 66.6877 91.3051 69.7601ZM62.0865 103.986C61.9883 105.625 63.2284 106.867 64.5873 107.55C65.6671 106.655 66.4422 105.424 66.4732 103.996C65.538 104.694 65.0419 107.131 63.6314 106.024C62.8874 105.429 62.5929 104.42 62.66 103.494C62.7375 101.172 64.6079 99.3565 64.5459 97.0031C63.3472 99.1496 61.7455 101.379 62.0865 103.986ZM147.893 99.1341C147.846 100.546 148.502 101.86 149.81 102.475C149.293 101.301 148.828 100.044 147.893 99.1341ZM69.2374 102.429C66.4887 108.625 65.0058 115.339 64.3186 122.069C63.9362 124.769 65.3468 127.417 67.5634 128.906C67.9871 129.382 68.5916 129.124 69.1134 129.051L69.1806 129.232L68.1576 129.403C69.9246 130.66 71.8519 131.658 73.7636 132.667C74.1873 132.362 74.6006 132.046 75.014 131.725C75.0398 132.103 74.9417 132.496 75.0657 132.858C75.6857 133.132 76.2282 132.527 76.7656 132.325C76.6467 132.827 76.5175 133.339 76.6364 133.862C77.3907 133.598 78.0883 133.21 78.7755 132.806C78.5688 133.246 78.3673 133.686 78.1658 134.131C81.0386 134.886 83.8648 135.781 86.7479 136.494C86.4483 135.941 86.1331 135.393 85.8076 134.855C86.0504 134.979 86.5361 135.227 86.7789 135.351C86.9339 135.631 87.244 136.184 87.399 136.463C88.1378 136.805 88.6028 135.884 89.166 135.574C88.9594 135.796 88.546 136.246 88.3445 136.474C88.5977 136.712 89.1092 137.187 89.3675 137.431C89.9566 137.141 90.5094 136.8 91.0519 136.432C91.2483 136.484 91.641 136.587 91.8373 136.644C91.3309 136.95 90.8349 137.26 90.3337 137.565C91.672 137.648 93.0257 138.45 94.3691 138.031L94.6532 137.865C95.3146 137.793 95.976 137.741 96.6373 137.684C95.9811 137.803 95.4128 138.067 94.9374 138.47C98.6317 139.67 102.486 140.244 106.294 140.979C106.661 140.694 107.023 140.405 107.384 140.11C106.646 140.032 105.173 139.877 104.439 139.8C105.591 139.505 106.785 139.82 107.958 139.805C107.71 140.275 107.462 140.746 107.214 141.222C109.828 141.253 112.391 141.837 115 141.951C115.61 141.817 115.682 141.191 115.646 140.674C115.848 140.715 116.246 140.793 116.447 140.834C116.519 141.786 117.01 142.256 117.92 142.241C117.966 141.91 118.054 141.248 118.095 140.917C119.191 140.596 118.343 141.879 118.013 142.241C123.691 142.194 129.53 142.727 135.017 140.86C134.924 140.265 134.82 139.67 134.712 139.081C135.074 139.536 135.415 140.006 135.781 140.462C137.667 138.993 139.636 137.431 140.587 135.16C142.411 131.032 142.664 126.45 143.64 122.089C144.457 118.582 144.777 114.941 146.193 111.594C143.496 110.881 140.716 110.57 137.962 110.172C126.729 108.719 115.517 107.131 104.3 105.553C94.1107 104.343 84.0405 102.32 73.8514 101.105C72.2704 100.986 69.9453 100.52 69.2374 102.429ZM152.832 102.393C151.029 103.712 153.359 105.47 154.692 105.988C154.94 105.088 155.658 103.97 154.801 103.158C154.32 102.594 153.421 101.203 152.832 102.393ZM148.683 114.693C148.471 115.541 149.096 116.312 149.412 117.056C149.613 115.763 149.505 114.372 150.362 113.286C150.151 112.665 150.032 112.013 149.985 111.362C149.779 112.551 149.122 113.586 148.683 114.693ZM151.132 117.977C150.92 118.727 151.158 119.689 150.6 120.289C148.972 120.993 147.138 120.651 145.459 120.341C144.327 124.463 143.94 128.741 143.062 132.915C142.343 135.47 141.408 138.16 139.347 139.955C136.458 142.67 132.454 143.839 128.563 144.025C114.613 144.568 100.729 142.127 87.3008 138.527C80.1757 136.587 72.4564 135.206 66.7418 130.163C66.2252 129.641 65.9255 128.958 65.5431 128.337C63.0269 135.672 66.2148 145.158 73.5673 148.365C73.6396 147.796 73.6086 147.217 73.6293 146.648L73.929 148.468L75.076 147.698C74.6988 147.962 74.3216 148.231 73.9496 148.505C75.0708 148.634 76.2437 149.462 77.3804 149.022C77.8403 148.753 78.3053 148.5 78.7806 148.256C78.729 148.541 78.6256 149.12 78.574 149.405C79.3542 149.746 80.2119 149.839 81.0437 149.984C87.1923 150.884 93.222 152.451 99.3396 153.517C99.3396 153.134 99.3293 152.368 99.3293 151.986C99.3964 152.524 99.4481 153.056 99.4946 153.599C101.437 153.837 103.359 154.225 105.287 154.562C105.018 154.106 104.76 153.641 104.512 153.175C105.287 153.248 105.421 154.143 105.803 154.675C111.916 155.746 117.987 157.008 124.063 158.275C124.11 158.001 124.203 157.458 124.254 157.189C124.249 157.463 124.239 158.017 124.234 158.291C124.652 158.379 125.489 158.544 125.908 158.632C125.908 158.244 125.908 157.474 125.908 157.086C126.063 157.634 126.176 158.193 126.3 158.751C129.194 159.191 132.48 159.791 135.037 157.939C139.29 154.97 140.261 149.508 141.853 144.91C141.956 144.936 142.168 144.993 142.271 145.018C141.32 148.644 140.68 152.436 138.742 155.71C141.434 155.462 143.614 153.708 145.387 151.805C148.099 149.177 149.577 145.515 150.099 141.822C151.055 135.201 151.148 128.498 151.453 121.825C149.686 121.919 147.908 122.006 146.136 121.841C147.836 121.67 149.546 121.588 151.246 121.391C151.205 120.253 151.168 119.115 151.132 117.977Z" fill="black"/>
<path d="M151.385 98.6891C150.683 100.313 153.121 98.6788 151.385 98.6891V98.6891Z" fill="black"/>
<path d="M158.082 106.867L158.49 106.944C159.151 110.089 159.105 114.568 156.139 116.777C155.762 116.508 155.385 116.239 155.007 115.97C156.609 114.853 156.666 112.774 157.281 111.093C157.797 109.768 157.658 108.346 157.648 106.96L158.082 106.867Z" fill="black"/>
<path d="M94.0744 132.832C92.0852 128.72 95.4591 122.989 100.192 123.346C103.147 122.803 106.051 124.443 107.436 127.039L106.527 127.117L106.041 126.072L105.08 125.363C105.493 126.124 105.922 126.874 106.366 127.624C106.645 127.546 107.198 127.396 107.477 127.319C107.875 129.894 107.565 132.822 105.597 134.72C103.928 136.401 101.339 136.531 99.1431 136.091C97.1384 135.698 95.0975 134.679 94.0744 132.832ZM102.967 124.205L102.951 124.458C103.013 124.769 103.054 125.074 103.065 125.389C101.541 124.65 99.8045 124.091 98.1046 124.494C94.9218 125.503 93.3717 129.682 94.8546 132.605C95.9242 134.436 98.1304 135.232 100.14 135.455C102.073 135.719 104.356 135.238 105.374 133.401C106.78 130.877 106.428 126.688 103.37 125.575C103.912 125.317 104.46 125.069 105.013 124.831C104.744 124.748 104.207 124.582 103.938 124.494C103.695 124.422 103.209 124.277 102.967 124.205Z" fill="black"/>
<path d="M98.8796 126.631C100.001 126.186 101.36 126.082 102.481 126.558C104.935 128.239 103.638 132.605 100.729 132.874C97.4949 133.355 95.702 127.95 98.8796 126.631ZM99.3033 127.526C97.6034 128.658 98.7608 131.648 100.642 131.767C102.476 131.239 102.161 129.051 101.969 127.588C101.086 127.386 100.109 126.801 99.3033 127.526Z" fill="black"/>
<path d="M100.967 128.979C101.866 129.186 101.313 131.317 100.373 130.949C100.042 130.292 100.476 129.429 100.967 128.979Z" fill="black"/>
<path d="M80.186 133.593C80.4495 133.918 80.4495 133.918 80.186 133.593V133.593Z" fill="black"/>
<path d="M138.923 135.682C138.096 137.208 140.659 135.703 138.923 135.682V135.682Z" fill="black"/>
<path d="M138.009 137.156C138.277 137.508 138.277 137.508 138.009 137.156V137.156Z" fill="black"/>
<path d="M109.131 140.255C109.735 139.789 110.097 139.908 110.216 140.612C109.606 141.077 109.239 140.958 109.131 140.255Z" fill="black"/>
<path d="M111.079 140.658C111.445 140.053 111.833 140.068 112.241 140.71C111.854 141.32 111.466 141.299 111.079 140.658Z" fill="black"/>
<path d="M113.161 140.565C113.605 140.027 114.907 140.472 114.416 141.237C113.993 141.858 112.567 141.299 113.161 140.565Z" fill="black"/>
<path d="M129.188 140.834C129.25 142.567 130.718 140.017 129.188 140.834V140.834Z" fill="black"/>
<path d="M119.93 141.351C120.266 141.687 120.266 141.687 119.93 141.351V141.351Z" fill="black"/>
<path d="M122.002 141.269C122.095 143.017 123.5 140.425 122.002 141.269V141.269Z" fill="black"/>
<path d="M123.593 141.248C123.495 143.001 125.164 140.596 123.593 141.248V141.248Z" fill="black"/>
<path d="M125.665 141.284C125.66 143.043 127.184 140.529 125.665 141.284V141.284Z" fill="black"/>
<path d="M138.592 149.441C139.295 149.198 139.502 149.456 139.212 150.217C138.52 150.45 138.308 150.191 138.592 149.441Z" fill="black"/>
<path d="M130.821 157.427C131.235 156.775 131.602 156.77 131.912 157.422C131.478 158.079 131.116 158.079 130.821 157.427Z" fill="black"/>
</svg>
