<svg width="24" height="24" viewBox="0 0 24 24" fill="none" xmlns="http://www.w3.org/2000/svg">
<path d="M20.345 7.05443C20.2734 6.79641 20.1091 6.57392 19.8835 6.42966L17.2442 5.06794C17.2108 4.4862 16.9888 3.93117 16.6118 3.48692C15.783 2.50005 14.2581 2.00024 12.0854 2.00024H12.0064C9.78528 1.98749 8.23231 2.4873 7.3908 3.48692C7.01529 3.93189 6.79427 4.48666 6.76093 5.06794L4.15734 6.40672L4.12164 6.42966C3.89734 6.57126 3.73373 6.79123 3.66263 7.04678L2 12.6798L2.45392 18.573C2.47752 18.8553 2.60611 19.1185 2.81431 19.3107C3.0225 19.5028 3.29517 19.6099 3.57848 19.6108H5.80722C5.84397 20.214 6.09846 20.7833 6.5234 21.213C6.94835 21.6426 7.51483 21.9033 8.11756 21.9467C9.36124 22.1744 10.6222 22.2947 11.8865 22.3062H12.1211C13.3868 22.2983 14.6495 22.1814 15.8952 21.9569C16.4956 21.911 17.059 21.6491 17.481 21.2196C17.903 20.7901 18.155 20.2221 18.1902 19.621H20.4215C20.7047 19.6206 20.9774 19.5137 21.1853 19.3214C21.3932 19.129 21.5211 18.8655 21.5435 18.5832L22 12.69L20.345 7.05443ZM8.09206 4.05048C8.74742 3.28546 10.1015 2.88256 12.0064 2.89531C13.9113 2.90806 15.2577 3.28546 15.913 4.05048C16.1814 4.35663 16.3371 4.74533 16.3542 5.1521L12.0013 6.75097L7.65089 5.1521C7.66801 4.74533 7.82368 4.35663 8.09206 4.05048ZM17.3003 19.4629C17.3004 19.8689 17.1455 20.2597 16.8674 20.5554C16.5892 20.8511 16.2086 21.0295 15.8034 21.0542H15.7498C14.5483 21.2739 13.3298 21.3874 12.1084 21.3933H11.8789C10.6566 21.3876 9.4372 21.2741 8.23486 21.0542H8.18131C7.77561 21.0301 7.39445 20.852 7.11573 20.5562C6.83702 20.2604 6.68182 19.8693 6.68188 19.4629V17.3592C7.38006 17.2605 8.02725 16.9375 8.52585 16.4389C9.02445 15.9403 9.34744 15.2931 9.44613 14.5949H14.5462C14.6444 15.2916 14.9659 15.9377 15.4625 16.4361C15.9591 16.9345 16.6039 17.2584 17.3003 17.3592V19.4629ZM20.6536 18.5041C20.6485 18.5616 20.6222 18.6152 20.5797 18.6543C20.5373 18.6935 20.4818 18.7154 20.4241 18.7158H18.1979V11.795C18.1979 11.6759 18.1506 11.5618 18.0664 11.4776C17.9823 11.3934 17.8681 11.3462 17.7491 11.3462C17.63 11.3462 17.5159 11.3934 17.4317 11.4776C17.3476 11.5618 17.3003 11.6759 17.3003 11.795V16.4411C16.7677 16.3364 16.2878 16.0506 15.942 15.6322C15.5962 15.2139 15.4058 14.6888 15.403 14.1461C15.403 14.0271 15.3557 13.9129 15.2716 13.8287C15.1874 13.7446 15.0733 13.6973 14.9542 13.6973H9.03812C8.91909 13.6973 8.80493 13.7446 8.72076 13.8287C8.6366 13.9129 8.58932 14.0271 8.58932 14.1461C8.58706 14.689 8.3968 15.2143 8.05091 15.6327C7.70502 16.0512 7.22485 16.3368 6.69209 16.4411V11.795C6.69209 11.6759 6.6448 11.5618 6.56063 11.4776C6.47647 11.3934 6.36231 11.3462 6.24328 11.3462C6.12425 11.3462 6.01009 11.3934 5.92592 11.4776C5.84176 11.5618 5.79447 11.6759 5.79447 11.795V18.7158H3.57082C3.51309 18.7154 3.4576 18.6935 3.41516 18.6543C3.37273 18.6152 3.3464 18.5616 3.34133 18.5041L2.90017 12.7767L4.52455 7.29669C4.53474 7.25493 4.55906 7.21799 4.59339 7.19213L7.09499 5.90436L8.84942 6.54697V9.70138C8.84942 9.82041 8.8967 9.93456 8.98087 10.0187C9.06504 10.1029 9.1792 10.1502 9.29823 10.1502C9.41726 10.1502 9.53141 10.1029 9.61558 10.0187C9.69975 9.93456 9.74704 9.82041 9.74704 9.70138V6.87592L12.0013 7.70469L14.2581 6.87592V9.70138C14.2581 9.82041 14.3054 9.93456 14.3895 10.0187C14.4737 10.1029 14.5878 10.1502 14.7069 10.1502C14.8259 10.1502 14.9401 10.1029 15.0242 10.0187C15.1084 9.93456 15.1557 9.82041 15.1557 9.70138V6.54697L16.9076 5.90436L19.4117 7.19213C19.4468 7.21998 19.4718 7.25846 19.4831 7.30178L21.1049 12.7767L20.6536 18.5041Z" fill="#182A37"/>
</svg>
