<svg width="220" height="220" viewBox="0 0 220 220" fill="none" xmlns="http://www.w3.org/2000/svg">
<path d="M135.94 32.0645C136.908 31.9982 137.81 31.6185 138.735 31.3555C139.519 31.6025 139.56 32.4465 139.743 33.0984C140.803 33.5306 140.983 34.7429 141.198 35.731C141.55 37.9588 141.531 40.2689 140.963 42.4601C141.07 42.8969 141.321 43.2789 141.52 43.6769C142.434 45.4106 143.027 47.4051 142.614 49.3699C142.651 50.2665 142.762 51.1653 142.696 52.0665C142.609 53.2353 143.226 54.2737 143.507 55.3716C144.167 57.636 144.058 60.0193 144.261 62.3477C144.535 65.6985 144.54 69.0631 144.793 72.4162C145.054 73.8526 144.802 75.3073 144.967 76.7505C145.136 78.514 144.768 80.2523 144.665 82.0021C144.649 86.1305 144.642 90.2636 144.414 94.3875C143.98 98.3513 143.667 102.34 142.906 106.263C142.326 109.218 141.817 112.187 141.486 115.181C141.392 116.144 141.46 117.134 141.815 118.042C142.315 119.383 142.856 120.707 143.448 122.011C143.802 122.802 144.163 123.651 144.028 124.538C143.783 126.32 143.137 128.047 143.057 129.844C143.441 130.826 144.115 131.711 144.211 132.793C144.094 133.998 143.318 135.032 143.219 136.249C143.121 138.076 142.842 139.888 142.701 141.713C142.534 143.941 141.936 146.111 141.771 148.341C141.677 150.825 141.202 153.28 140.602 155.688C140.426 156.379 140.597 157.099 140.474 157.797C140.277 158.49 140.021 159.169 139.946 159.892C139.544 162.957 139.14 166.022 138.635 169.071C138.354 170.827 137.73 172.518 137.612 174.302C138.126 174.675 138.694 175.116 138.813 175.782C139.08 177.133 138.818 178.515 138.692 179.869C138.521 181.212 138.345 182.781 137.159 183.641C136.266 184.055 135.177 184.242 134.537 185.066C131.725 184.629 128.852 184.606 126.07 183.984C124.53 183.38 123.153 182.438 121.736 181.596C120.811 181.04 120.003 180.125 120.032 178.984C119.994 177.04 120.012 175.047 120.565 173.17C120.77 172.367 121.748 171.891 121.602 170.994C121.579 169.011 121.643 167.024 121.871 165.052C122.173 162.538 122.257 159.99 122.81 157.511C123.029 156.539 123.116 155.526 122.931 154.54C122.301 151.356 121.611 148.156 121.565 144.899C121.618 142.216 121.259 139.513 121.75 136.85C122.004 135.661 122.401 134.462 122.253 133.23C122.244 132.843 122.104 132.443 122.225 132.063C122.527 131.491 123.166 131.148 123.361 130.51C123.516 129.533 123.466 128.506 123.08 127.585C122.285 125.604 121.693 123.539 121.307 121.439C121.067 120.593 121.871 119.916 121.826 119.088C121.766 118.109 121.531 117.153 121.357 116.192C120.916 113.902 120.699 111.578 120.352 109.275C120.058 107.18 119.601 105.115 119.286 103.024C118.863 100.115 117.963 97.306 117.253 94.4607C115.884 90.3551 114.477 86.2586 112.842 82.2514C112.259 80.8195 111.86 79.3214 111.286 77.885C110.921 77.837 110.558 77.7844 110.194 77.7363C109.834 80.4833 109.208 83.1868 108.568 85.8812C107.757 88.6671 107.369 91.5559 106.563 94.3441C105.877 96.7228 105.379 99.1473 104.872 101.569C104.262 104.31 104.048 107.118 103.79 109.909C103.388 113.255 103.26 116.652 103.643 120.007C103.721 120.682 103.888 121.352 103.838 122.036C103.264 122.914 102.433 123.68 102.248 124.762C101.839 126.942 101.688 129.19 100.896 131.283C100.503 132.527 99.6872 133.735 99.9522 135.098C100.288 136.773 100.928 138.383 101.085 140.094C101.604 145.373 100.391 150.613 100.439 155.889C100.484 158.33 99.9567 160.775 100.356 163.206C100.852 166.951 101.569 170.665 101.937 174.428C101.978 175.281 101.935 176.136 101.944 176.994C102.577 177.312 102.618 178.016 102.252 178.563C102.481 180.301 102.659 182.078 102.373 183.821C102.182 184.928 101.526 186.028 100.388 186.351C98.7895 186.781 97.1563 187.234 95.4866 187.195C92.3709 187.7 89.221 188.012 86.0848 188.332C84.7554 187.863 82.8687 187.865 82.1949 186.399C81.9527 184.704 81.8408 182.954 82.0738 181.253C82.1606 180.308 82.8596 179.617 83.2365 178.794C83.1771 177.982 82.7933 177.245 82.4256 176.539C82.0647 175.848 81.8591 175.091 81.5644 174.373C81.199 173.407 80.6302 172.497 80.5662 171.443C80.3652 169.19 80.9637 166.973 81.4548 164.796C81.368 164.169 80.918 163.639 80.9134 162.996C81.0665 162.731 81.2743 162.506 81.4662 162.273C80.4292 156.692 79.7462 151.047 79.23 145.395C79.1295 142.717 78.6681 140.041 78.9445 137.36C79.0495 135.91 78.9856 134.458 78.9787 133.008C79.0084 131.343 78.2272 129.742 78.4602 128.07C78.7846 127.482 79.3716 127.072 79.5817 126.414C79.8467 125.714 80.6119 125.332 80.8175 124.609C80.8495 122.971 79.7965 121.622 79.1615 120.197C78.8714 119.433 79.6457 118.985 79.9107 118.367C80.1345 117.871 80.283 117.242 79.9564 116.757C79.3579 115.718 78.949 114.547 78.8828 113.347C78.9559 111.652 79.0906 109.959 79.1226 108.262C78.9696 108.068 78.8165 107.873 78.6635 107.681C79.2483 107.002 78.8965 106.121 78.7366 105.35C78.0285 102.345 77.7064 99.2685 77.2747 96.215C76.5346 90.9704 76.1486 85.6891 75.6644 80.417C75.4885 78.9692 75.6621 77.4779 75.2189 76.0666C74.9837 75.3782 75.2966 74.6806 75.4474 74.0081C75.7809 72.8073 75.7877 71.483 75.2646 70.3348C74.8192 69.5045 75.4108 68.6377 75.4976 67.7937C75.9088 65.3189 75.9111 62.8006 76.0961 60.3052C76.16 58.7773 76.2582 57.2517 76.2674 55.7238C76.2948 54.1891 76.0367 52.6566 76.1783 51.1219C76.562 50.5867 77.4118 50.39 77.4415 49.6352C77.6996 47.7779 77.727 45.8909 78.0422 44.0451C77.7681 41.6001 78.097 39.1413 78.5059 36.7305C78.6155 36.0009 79.2003 35.3627 79.9746 35.4039C79.9998 34.0316 80.6028 32.7621 81.5553 31.7946C82.3319 31.6277 83.0697 32.0828 83.8372 32.1469C85.8884 32.4076 87.9442 32.7072 90.0159 32.7255C93.6638 32.7415 97.3116 32.6432 100.962 32.6455C102.867 32.57 104.776 32.5174 106.681 32.6386C112.383 32.4602 118.091 32.5997 123.797 32.5334C127.847 32.4579 131.917 32.6455 135.94 32.0645ZM137.621 33.1235C137.02 33.0206 136.479 33.6679 135.928 33.2425C134.197 33.3385 132.495 33.7182 130.784 33.9812C130.814 34.0407 130.878 34.1596 130.91 34.2191C131.282 34.3586 131.689 34.2694 132.077 34.3243C131.609 34.5187 131.095 34.4844 130.604 34.5576C130.565 34.4776 130.492 34.3129 130.455 34.2305C130.22 34.226 129.752 34.2145 129.516 34.21C129.765 34.441 130.017 34.6743 130.252 34.9213C129.93 34.7772 129.569 34.6514 129.393 34.3106C128.098 34.5508 126.835 34.9487 125.528 35.1294C125.633 35.2507 125.741 35.3742 125.846 35.4954C126.248 35.4016 126.663 35.3559 127.072 35.4222C126.641 35.5503 126.2 35.6349 125.761 35.7287C125.725 35.7882 125.652 35.9071 125.615 35.9666C125.553 35.7058 125.496 35.4428 125.446 35.1798C125.126 35.285 124.484 35.4931 124.165 35.596C124.4 35.6807 124.873 35.8476 125.108 35.9323C124.553 36.0969 123.982 36.2113 123.438 36.408C123.603 37.1857 123.822 37.9702 124.274 38.6335C124.53 39.7565 124.916 40.843 125.238 41.9477C125.668 41.6504 126.554 41.6206 126.456 40.8956C126.102 40.9025 125.75 40.9185 125.4 40.9459C125.704 40.7904 126.012 40.6417 126.321 40.4885C126.435 40.8064 126.547 41.1243 126.663 41.4422C128.815 40.644 131.088 40.2483 133.285 39.6033C135.35 39.1367 137.342 38.359 139.448 38.0846C139.101 36.2822 138.669 34.4776 138.557 32.6386C138.244 32.801 137.931 32.9611 137.621 33.1235ZM80.8563 37.7918C81.2286 37.7621 81.4868 37.9039 81.6352 38.2218C81.7814 38.1783 82.0761 38.096 82.2223 38.0548C82.2108 38.2835 82.1994 38.5123 82.1857 38.7387C81.7403 38.4208 81.2629 38.1463 80.8198 37.8215C80.8084 38.0823 80.7832 38.6015 80.7718 38.8599C81.9048 39.3288 83.1245 39.4981 84.3009 39.8229C87.6952 40.7812 91.1649 41.4514 94.5318 42.5012C94.7465 42.5653 94.9658 42.5996 95.1896 42.5996C95.3861 42.2725 95.4295 41.886 95.498 41.5177C95.7058 40.0493 96.1193 38.6244 96.398 37.1719C96.5396 36.8746 96.35 36.5978 96.2746 36.3211C96.0393 36.5064 95.7675 36.6116 95.466 36.6367C95.4203 36.5132 95.329 36.2662 95.2833 36.145C95.7835 36.0924 96.3089 36.0352 96.7429 36.3462L96.5327 35.8408C94.1343 35.3307 91.6605 35.1043 89.3215 34.3175L89.2416 34.4135C89.2393 34.5462 89.2347 34.8092 89.2302 34.9419C89.0657 34.8458 88.9012 34.7452 88.7414 34.64L88.8601 34.4341L88.8784 34.2649C88.2411 34.0293 87.5284 33.9309 86.8615 33.7434C86.8775 33.8577 86.9094 34.0864 86.9254 34.1985C86.7495 34.1825 86.3978 34.1482 86.2219 34.1299C86.3635 34.0133 86.649 33.7777 86.7929 33.661C85.66 33.5032 84.5202 33.4048 83.3941 33.2104C83.4238 33.3408 83.4854 33.6038 83.5151 33.7342C83.0788 33.3682 82.5535 33.1647 81.9801 33.167C80.9523 34.473 81.0939 36.2365 80.8563 37.7918ZM97.5446 33.565C94.8082 33.6313 92.0694 33.5261 89.3375 33.7205C92.3869 34.5599 95.5208 35.0494 98.6753 35.2346C101.01 35.5183 103.317 35.9826 105.651 36.2662C105.679 35.699 105.706 35.134 105.752 34.5691C109.011 34.4616 112.273 34.4112 115.535 34.3335C115.562 34.8893 115.606 35.4428 115.642 35.9963C116.917 35.9803 118.212 36.0032 119.452 35.6555C120.88 35.2667 122.378 35.2712 123.811 34.8893C125.821 34.3541 127.863 33.9652 129.896 33.5284C128.859 33.4071 127.819 33.5878 126.782 33.5535C124.277 33.3934 121.762 33.5284 119.251 33.4483C112.017 33.3545 104.776 33.2836 97.5446 33.565ZM106.672 35.7721C109.441 35.6738 112.209 35.6395 114.98 35.6669C114.987 35.4611 114.996 35.2529 115.003 35.0471C112.232 35.1363 109.45 34.9076 106.684 35.1958C106.145 35.0471 106.238 35.8934 106.672 35.7721ZM122.522 35.8934C122.648 36.9524 122.794 38.2378 123.76 38.8851C123.605 38.0022 123.089 37.1971 123.166 36.2753C123.402 36.0901 123.635 35.8979 123.863 35.7012C123.413 35.7424 122.965 35.8156 122.522 35.8934ZM97.4715 35.8705C96.72 38.2378 96.2678 40.6989 95.8794 43.1485C95.6305 44.1641 95.2604 45.1613 95.2787 46.2203C95.7904 46.3141 96.302 46.4033 96.8182 46.4742C97.1997 44.9074 97.4807 43.3132 97.9992 41.783C98.4172 39.9281 98.7895 38.0617 99.0682 36.1816C98.5542 36.0009 98.0152 35.9025 97.4715 35.8705ZM121.213 36.0283C122.273 38.1875 122.662 40.5914 123.212 42.9129C123.47 44.3791 124 45.8406 123.84 47.3502C124.308 47.2907 124.834 47.3639 125.24 47.078C125.309 46.847 125.348 46.6091 125.359 46.3667C125.097 45.9847 124.635 46.0488 124.288 46.2615C124.439 46.4948 124.589 46.7281 124.745 46.9614C124.601 46.9637 124.313 46.9705 124.171 46.9728C124.085 46.3781 124.347 45.9001 124.918 45.6988C124.704 45.4083 124.491 45.1201 124.279 44.8297C123.881 43.1783 123.61 41.4949 123.13 39.864C123.422 39.7863 123.715 39.6994 124.007 39.6102L123.991 39.0315C123.694 39.0658 123.397 39.1024 123.102 39.1344C122.787 38.0754 122.445 37.021 122.25 35.93C121.903 35.9643 121.558 35.9963 121.213 36.0283ZM99.6963 37.0073C100.612 37.0118 101.517 37.1788 102.41 37.3847C102.236 37.499 102.072 37.6248 101.889 37.7209C101.208 37.3481 100.418 37.3343 99.6963 37.0759C99.3674 38.9697 98.8238 40.8155 98.4149 42.6911C101.206 43.2903 104.045 43.7844 106.905 43.8576C107.042 43.6815 107.182 43.5076 107.326 43.3361L106.848 43.2057C107.04 42.7574 107.218 42.2313 107.718 42.0415C107.757 42.3571 107.552 42.6065 107.412 42.8672C107.46 43.2011 107.492 43.5374 107.506 43.8736C108.648 43.8073 107.967 42.4326 108.141 41.7236C107.999 41.6984 107.855 41.6733 107.714 41.6458C107.983 41.1472 108.225 40.6303 108.15 40.0424C108.029 40.1751 107.787 40.4427 107.666 40.5754C107.246 40.4267 107.435 39.2419 108.198 39.7703C108.009 39.633 107.632 39.3608 107.442 39.2236L108.061 39.4157C108.079 38.677 108.114 37.9405 108.203 37.2085C105.553 37.2611 102.926 36.8106 100.318 36.4103C99.9407 36.2891 99.8722 36.8106 99.6963 37.0073ZM118.079 36.8197C116.636 36.9981 115.176 36.8426 113.735 37.0347C112.885 37.1285 112.045 37.3595 111.181 37.2955C111.104 37.3664 110.953 37.5059 110.875 37.5768C110.473 38.0045 109.984 38.3933 109.795 38.972C109.722 39.6353 109.804 40.3032 109.895 40.9596C110.135 40.0516 110.341 39.0406 111.106 38.4093C111.748 37.7232 112.869 37.7666 113.618 38.247C114.187 38.5855 114.47 39.2053 114.758 39.7726C115.441 39.8091 116.127 39.8114 116.812 39.8663C116.286 40.6394 115.281 40.2552 114.555 40.6463C114.825 40.6989 115.364 40.8018 115.633 40.8544C115.366 40.9734 115.101 41.0923 114.836 41.2112C114.603 41.7053 114.329 42.1787 114.052 42.6476C114.596 42.5973 115.144 42.5516 115.69 42.5241C115.718 42.6819 115.772 42.9953 115.798 43.1531C115.645 42.9633 115.492 42.7734 115.338 42.5836C115.163 42.7323 114.989 42.8832 114.815 43.0365C114.569 42.9152 114.322 42.7986 114.075 42.6819C113.566 43.0296 113.02 43.3658 112.387 43.4047C111.471 43.5191 110.59 42.9244 110.194 42.1216C109.792 41.2913 109.331 40.4221 109.498 39.4638C109.4 38.4711 110.229 37.7666 110.996 37.3115C110.178 37.3069 109.347 37.3 108.566 37.0233C109.014 39.5987 108.735 42.2245 108.899 44.8205C109.564 44.665 110.247 44.6192 110.923 44.5209C110.834 44.3288 110.656 43.9422 110.567 43.7478C110.379 43.7478 110.005 43.7478 109.82 43.7478C109.708 43.9262 109.596 44.1023 109.484 44.2784C109.48 44.1481 109.47 43.885 109.466 43.7524C109.781 43.6837 110.092 43.574 110.418 43.5511C110.951 43.7341 111.307 44.3951 111.935 44.2235C115.4 43.7935 118.836 43.1531 122.294 42.6796C122.289 42.4875 122.282 42.0987 122.28 41.9043C122.065 41.9226 121.853 41.9409 121.641 41.9592L121.812 42.4258C121.538 42.3045 121.273 42.1627 121.01 42.0209C120.601 41.998 120.496 42.5287 120.208 42.7391C120.026 41.8196 121.113 41.8471 121.698 41.5886L121.755 41.918C121.871 41.7876 121.988 41.6572 122.104 41.5246C121.602 40.3718 121.597 39.0452 120.994 37.9427C120.889 38.3956 120.816 38.8531 120.718 39.3082C120.679 38.7364 120.661 38.1646 120.624 37.5928C120.734 37.5288 120.953 37.3961 121.063 37.3298C120.98 37.1216 120.9 36.9135 120.818 36.7053C120.688 36.8792 120.56 37.0553 120.432 37.2291C119.825 37.2291 119.224 37.3206 118.623 37.3869C118.993 36.6344 120.048 36.9775 120.521 36.3257C119.699 36.4469 118.909 36.7374 118.079 36.8197ZM107.435 36.4858C107.741 36.7122 108.082 37.1079 108.513 36.9707C110.073 36.6482 111.709 37.0553 113.246 36.5544C111.323 36.2891 109.37 36.4286 107.435 36.4858ZM79.0381 41.9912C78.9513 43.0113 79.3944 44.0566 78.9833 45.0447C78.7777 46.7235 78.716 48.4184 78.7252 50.1109C78.7731 50.1063 78.8668 50.0995 78.9148 50.0972C79.0107 48.2102 78.8165 46.2798 79.3008 44.434C79.3625 42.9381 79.5543 41.4468 79.9701 40.0081C80.0043 39.0338 79.8855 38.0525 79.7919 37.0827C79.1752 38.6335 79.1295 40.3421 79.0381 41.9912ZM111.809 38.6975C110.306 39.3997 110.076 41.9294 111.59 42.7414C112.931 43.3338 114.55 42.0209 114.368 40.5937C114.19 39.4478 113.086 38.096 111.809 38.6975ZM125.416 42.5127C125.551 43.5991 125.818 44.6627 126.008 45.7377C126.067 45.7743 126.184 45.8475 126.241 45.8841C126.328 44.8228 125.921 43.789 125.569 42.8032C125.768 42.8123 126.166 42.8283 126.362 42.8375C126.588 44.0657 126.478 45.4518 127.248 46.5108C128.354 47.9289 129.638 49.3287 131.376 49.9485C133.016 50.6804 134.848 50.589 136.6 50.4769C137.998 50.3419 139.418 50.406 140.796 50.0949C140.903 48.2285 140.867 46.3461 140.485 44.5117C140.366 43.7455 139.64 43.2423 139.585 42.4532C139.391 41.2089 138.971 40.0173 138.496 38.8554C134.183 40.246 129.672 40.939 125.416 42.5127ZM80.902 40.0196C80.6576 40.5136 80.5982 41.0694 80.4863 41.6024C83.1519 42.0026 85.7171 42.8718 88.3827 43.272C89.0314 43.4527 89.8766 43.4093 90.3106 44.0177C90.4065 44.6215 90.0045 45.1247 89.8195 45.6645C90.105 45.8932 90.4065 46.1037 90.6852 46.3438C90.3426 46.1769 90.0136 45.9801 89.6824 45.7926C89.068 47.2427 88.2502 48.5922 87.5718 50.0103C90.5938 49.2441 93.2001 46.584 93.577 43.4482C94.1161 43.3933 94.6574 43.3338 95.1965 43.2537C92.6861 42.5401 90.1713 41.8288 87.6015 41.353C85.3745 40.8979 83.1885 40.1134 80.902 40.0196ZM123.616 41.0237C123.689 41.0031 123.833 40.9573 123.906 40.9345L123.913 41.1449C123.653 41.7213 123.788 42.3457 123.952 42.9267C124.021 42.9084 124.155 42.8718 124.224 42.8535C124.283 42.6842 124.404 42.3457 124.466 42.1765C124.382 42.5538 124.532 43.0776 124.085 43.2537C124.261 44.1252 124.676 44.9189 124.962 45.756C125.007 45.7926 125.101 45.8612 125.147 45.8978C125.172 45.7834 125.22 45.557 125.243 45.4426C125.053 43.4779 124.528 41.5612 123.87 39.7039C123.201 39.8595 123.347 40.5982 123.616 41.0237ZM80.5662 42.0484C79.8513 44.7313 79.5658 47.508 79.6503 50.2825C79.7965 50.2619 80.0934 50.2184 80.2419 50.1978C80.315 48.5899 80.5091 46.9774 80.9134 45.4175C80.9203 44.8708 80.8518 44.3219 80.902 43.7752C81.0368 43.2995 81.4594 42.8329 82.0007 42.945C81.8911 43.4184 81.4022 43.7432 81.4731 44.2647C81.5005 44.7679 81.1693 45.1819 81.0962 45.6668C80.8609 47.197 80.7992 48.7592 80.4246 50.2665C82.5877 50.2184 84.8148 50.5958 86.9368 50.0881C88.1132 48.272 89.1023 46.3209 89.8857 44.299C86.7861 43.5305 83.6682 42.8169 80.5662 42.0484ZM115.288 44.434C115.167 45.8681 115.425 47.3365 114.946 48.7294C114.459 48.0913 114.763 47.3365 115.195 46.7647C115.069 46.568 114.948 46.369 114.829 46.17C115.078 45.6554 115.247 45.0675 115.005 44.5186C113.271 44.944 111.476 44.9532 109.719 45.2299C110.019 46.9179 109.603 48.6151 109.678 50.3145C109.486 50.0698 109.306 49.8204 109.128 49.5688C109.251 49.4453 109.496 49.1983 109.619 49.0748C109.498 48.6677 109.345 48.2697 109.212 47.8648C109.381 47.6476 109.575 47.4531 109.756 47.245C109.313 46.9088 109.628 46.433 109.562 46.0007C109.498 45.6599 109.151 45.6851 108.886 45.6325C108.874 47.9312 108.785 50.2276 108.698 52.524C108.584 57.9585 108.655 63.3953 108.726 68.8298C108.881 68.6308 109.046 68.4387 109.217 68.2534C109.722 68.3906 110.354 68.7497 110.759 68.1688C110.935 68.7269 110.811 69.3124 110.832 69.8842L110.612 69.7996C110.354 72.0091 110.839 74.2346 110.469 76.4395C110.875 76.5858 111.282 76.746 111.709 76.8329C112.093 76.8489 112.326 76.4646 112.639 76.2954C113.155 77.3315 114 78.1526 114.518 79.1865C115.608 81.2678 116.318 83.5162 117.134 85.712C117.358 86.2678 117.383 86.8808 117.598 87.4366C118.006 88.1022 118.041 88.9004 118.226 89.6415C117.776 89.4539 117.646 89.0719 117.728 88.6076C117.161 87.0866 116.75 85.5061 116.088 84.0194C115.044 81.6681 114.155 79.1887 112.554 77.1416V77.6288C114.395 81.556 116.101 85.5564 117.463 89.6804C118.178 92.1506 118.936 94.6094 119.633 97.0842C120.227 99.1885 120.562 101.35 120.987 103.491C122.095 108.484 122.824 113.552 123.429 118.626C123.509 119.168 123.187 119.668 123.278 120.213C123.171 121.814 123.843 123.321 124.304 124.824C124.966 126.221 125.455 127.706 125.601 129.254C125.823 128.76 126.051 128.269 126.28 127.777C126.081 127.596 125.885 127.415 125.69 127.237C125.825 127.216 126.095 127.175 126.229 127.155C126.145 126.995 125.974 126.677 125.889 126.519C125.709 126.466 125.531 126.418 125.355 126.37C125.499 126.286 125.786 126.119 125.93 126.036C125.176 125.224 124.747 124.17 124.498 123.104C124.969 123.705 125.037 124.511 125.501 125.121C126.001 125.823 126.129 126.695 126.335 127.511C126.408 127.557 126.554 127.651 126.625 127.697C127.495 126.873 128.045 125.711 129.098 125.085C129.418 124.895 129.713 124.943 129.982 125.233C129.432 125.826 128.774 126.32 128.308 126.99C127.41 128.241 126.723 129.634 125.759 130.842C125.115 131.745 124.176 132.532 124.037 133.701C123.717 135.485 123.173 137.26 123.281 139.092C123.363 141.805 123.226 144.522 123.374 147.232C123.509 150.835 124.423 154.364 124.459 157.975C124.697 159.407 124.459 160.892 124.854 162.294C124.79 162.383 124.667 162.561 124.603 162.65C124.724 163.533 124.509 164.428 124.765 165.297C124.562 165.878 124.402 166.507 124.667 167.101C124.905 167.628 124.578 168.147 124.432 168.652C124.758 169.318 124.736 170.061 124.571 170.77C124.692 171.239 125.279 171.854 124.505 172.063C124.818 172.788 124.82 173.549 124.393 174.233C124.663 174.302 124.934 174.359 125.208 174.418C125.425 174.686 125.631 174.965 125.878 175.21C126.229 175.299 126.609 175.256 126.951 175.386C127.26 175.674 127.369 176.116 127.589 176.472C126.46 175.569 125.113 175.031 123.849 174.357C124.126 173.613 124.176 172.815 124.377 172.053C124.277 171.58 124.094 171.1 124.414 170.658C123.715 169.67 124.674 168.609 124.281 167.568C123.843 166.71 124.263 165.741 124.098 164.837C123.84 163.348 124.119 161.832 123.913 160.338C123.413 162.708 123.315 165.146 123.278 167.561C123.217 169.032 123.68 170.455 123.744 171.918C123.774 172.648 123.655 173.373 123.642 174.103C123.42 174.071 122.975 174.009 122.753 173.977C123.539 175.029 124.72 175.667 125.859 176.262C127.372 176.941 128.966 177.659 130.665 177.559C132.372 177.479 134.105 177.273 135.713 176.667C136.022 175.67 135.51 174.585 135.163 173.638C134.651 172.527 134.295 171.331 133.628 170.299C133.448 170.002 132.819 169.835 133.059 169.407C134.804 164.947 137.66 160.947 138.802 156.246C140.074 150.814 140.684 145.254 141.182 139.705C141.458 137.95 141.257 136.169 141.513 134.417C140.825 132.854 139.619 131.61 138.658 130.224C138.473 129.943 138.461 129.586 138.372 129.273C139.69 130.817 141.326 132.278 141.862 134.309C142.605 133.122 142.29 131.631 141.536 130.538C140.828 129.421 140.302 128.186 139.434 127.18C139.121 126.85 138.987 126.423 139.037 125.97C139.891 126.434 140.49 127.223 141.239 127.823C141.545 126.754 141.602 125.636 141.874 124.559C142.016 124.113 141.709 123.701 141.556 123.303C140.693 121.601 140.097 119.783 139.635 117.935C139.272 118.724 139.007 119.588 138.381 120.222C139.183 116.798 139.471 113.276 140.414 109.879C141.739 104.881 142.356 99.7305 142.719 94.5819C143.228 90.0303 142.998 85.4421 143.176 80.8744C143.208 79.9298 143.34 78.9943 143.516 78.068C142.879 79.0195 142.495 80.1036 141.97 81.1146C141.952 79.7171 142.676 78.482 143.114 77.1988C143.315 76.0644 142.954 74.923 143.037 73.7794C143.178 70.3485 142.872 66.9268 142.879 63.4959C142.902 61.3505 142.527 59.2302 142.34 57.0985C142.265 56.2568 141.789 55.5431 141.476 54.7815C141.129 54.0015 140.947 53.1621 140.819 52.3227C139.51 52.6315 138.162 52.3799 136.835 52.4325C134.3 52.4805 131.673 52.2541 129.425 50.9755C127.719 50.04 126.209 48.4778 125.846 46.5062C126.602 47.1832 126.956 48.169 127.614 48.9307C128.459 50.0652 129.765 50.6804 130.967 51.3598C131.501 51.3826 131.995 51.5725 132.392 51.9361C132.956 51.7074 133.607 51.7555 134.028 52.2358C134.37 51.8081 134.795 51.9682 135.195 52.1923C135.743 52.0574 136.314 52.0528 136.869 52.1694C138.228 52.1763 139.583 51.9979 140.944 51.9773C140.992 51.5839 141.04 51.1882 141.09 50.7948C139.163 51.1836 137.18 51.1173 135.222 51.1974C132.598 51.3781 129.877 50.4174 128.043 48.5076C127.351 47.8351 126.876 46.9888 126.357 46.1837C125.583 46.3941 125.745 47.2404 125.567 47.8534C124.806 47.9792 124.016 47.9335 123.278 47.7093C123.164 46.2134 122.867 44.7382 122.47 43.2926C120.083 43.6975 117.675 44.0085 115.288 44.434ZM98.3692 43.4733C98.0403 44.5872 97.7708 45.7263 97.3162 46.7944C96.832 47.4005 95.9023 47.0163 95.2878 46.8036C94.6391 46.5588 94.7511 45.8109 94.7031 45.2551C94.2759 46.2523 94.2531 47.4143 93.593 48.3063C92.1699 50.1773 90.0479 51.5267 87.7226 51.9133C87.0305 52.142 86.3041 52.2358 85.5869 52.078C85.8359 51.9659 86.0392 51.6868 86.3407 51.7257C87.6312 51.7646 88.8693 51.2797 89.9931 50.685C89.7784 50.4952 89.5637 50.3031 89.3512 50.1086C85.8381 51.6548 81.9322 50.8566 78.2341 51.1814C78.2455 53.2284 77.9668 55.2618 78.0079 57.3112C77.8389 61.2018 78.2592 65.1565 77.3935 68.9853C78.3186 71.2954 79.6114 73.4546 80.3812 75.8311C80.7216 76.8992 81.0847 78.0017 80.9774 79.1407C80.5502 78.2693 80.4292 77.2857 80.0683 76.3869C79.2757 73.9692 77.9211 71.7895 77.0577 69.3993C76.6123 70.3417 77.4483 71.2177 77.2656 72.1715C77.124 73.004 76.9823 73.8434 77.0235 74.6943C77.1696 78.7565 77.6722 82.7934 78.0239 86.8396C78.2889 90.044 78.6384 93.2416 79.0998 96.4232C79.4196 98.8774 79.7508 101.332 80.3173 103.74C80.6233 104.927 80.5434 106.336 81.4822 107.251C80.5731 108.992 80.4475 110.998 80.4954 112.923C80.5685 114.472 81.5279 115.776 81.8659 117.255C82.0578 118.207 81.199 118.873 80.6485 119.513C81.4822 120.62 82.2497 121.848 82.3273 123.273C82.9327 122.157 84.3466 121.825 84.8742 120.666C84.8171 119.339 83.9605 118.234 83.4968 117.029C83.7116 117.12 84.0268 117.1 84.1478 117.345C84.5704 118.047 84.9016 118.804 85.1986 119.568C85.3836 120.128 85.5549 120.803 85.2031 121.336C84.5133 122.374 83.6316 123.271 82.8527 124.241C82.2063 125.137 81.6878 126.116 81.0756 127.036C80.5274 127.779 80.7467 128.751 80.8335 129.6C81.0368 130.723 81.0733 131.885 80.8358 133.005C80.5914 134.209 80.7741 135.439 80.6873 136.654C80.8929 136.798 81.0984 136.942 81.3063 137.088C81.9048 135.661 82.6768 134.302 83.6636 133.108C84.8925 131.599 86.199 130.108 87.8231 129.016C88.0195 128.817 88.3759 129 88.3416 129.273C85.9044 131.002 83.9514 133.371 82.4644 135.954C82.0601 136.891 81.5233 137.754 80.9957 138.621C80.7764 140.711 80.9386 142.831 81.0231 144.931C81.4731 150.702 82.5626 156.399 83.1565 162.152C83.2524 162.829 83.104 163.602 83.5471 164.183C84.5864 165.736 84.9496 167.6 85.3676 169.389C85.6371 170.825 85.8062 172.392 85.2351 173.778C85.0295 173.783 84.8217 173.789 84.6138 173.796C84.6093 173.76 84.6024 173.686 84.5978 173.65C84.6983 173.654 84.9016 173.661 85.0044 173.664C85.4407 170.697 84.4585 167.79 83.1611 165.169C82.8139 165.745 82.6106 166.399 82.5535 167.072C82.4004 168.533 82.0373 169.99 82.1789 171.47C82.2428 172.637 83.2753 173.387 83.6773 174.43C83.844 174.544 84.0085 174.663 84.173 174.784C84.0268 174.775 83.7344 174.757 83.5859 174.748C83.6704 175.477 83.7915 176.216 84.1775 176.859C84.1364 176.285 84.1067 175.711 84.0885 175.137C84.5362 175.628 84.374 176.335 84.5521 176.93C84.4471 176.955 84.2369 177.008 84.1319 177.033C84.5042 177.932 84.4402 179.018 85.0798 179.798C85.9524 180.244 86.9642 180.267 87.9213 180.395C91.6765 180.637 95.5528 180.505 99.1184 179.185C99.9978 178.924 100.13 177.927 100.418 177.193C100.692 175.441 100.48 173.654 100.377 171.896C100.114 168.067 98.7735 164.352 98.9563 160.487C98.9083 159.108 98.7552 157.726 98.8854 156.345C99.3491 151.946 100.066 147.543 99.9019 143.106C99.8539 140.057 98.3646 137.305 97.7251 134.378C97.3048 132.619 96.0964 131.128 95.8475 129.328C96.2107 129.458 96.3591 129.815 96.5122 130.13C97.1152 131.411 97.8621 132.621 98.4195 133.925C98.8672 131.738 99.7671 129.684 100.331 127.53C100.763 125.984 100.932 124.376 101.362 122.827C101.515 122.281 101.93 121.871 102.179 121.372C102.259 120.604 102.099 119.842 102.033 119.083C101.633 114.088 102.499 109.127 102.992 104.175C103.458 101.169 104.194 98.2141 104.927 95.2681C106.279 89.2412 108.022 83.3035 109.185 77.2354C108.817 77.1645 108.449 77.1096 108.086 77.0204C108.239 76.1787 108.481 75.3393 108.305 74.477C107.606 74.4358 107.04 74.8796 106.398 75.0648C105.368 74.8796 104.441 74.3443 103.465 73.9852C101.793 73.354 100.153 72.6403 98.4606 72.0685C97.7616 71.8146 96.9713 71.8009 96.3363 71.3869C97.5332 71.1834 98.7118 71.5974 99.8357 71.9587C101.862 72.622 103.785 73.5552 105.793 74.2666C106.569 74.5845 107.383 74.246 108.157 74.111C108.625 74.628 108.641 75.3256 108.454 75.966C108.991 76.4052 109.699 76.4074 110.352 76.4921C109.998 73.8709 110.108 71.1971 110.386 68.5736L109.964 68.5301C109.886 69.23 109.802 69.93 109.674 70.623L109.26 70.1335C109.24 70.3554 109.196 70.7991 109.173 71.021C109.313 70.9729 109.594 70.8769 109.733 70.8288C109.783 71.0873 109.834 71.348 109.886 71.6065C109.708 71.6019 109.356 71.5882 109.178 71.5813C109.514 72.7318 109.966 73.9212 109.699 75.138C109.687 75.4239 109.411 75.568 109.24 75.751C109.187 74.5685 109.614 73.2442 108.895 72.1898C108.767 71.0987 109.258 69.6783 108.166 68.9556C108.063 68.3586 107.999 67.7548 108.011 67.1487C108.031 61.9657 107.947 56.7851 107.995 51.6022C108.004 49.2441 108.118 46.8905 108.109 44.5323C104.833 44.5094 101.624 43.7455 98.3692 43.4733ZM94.0932 44.2922C93.7848 45.1819 93.408 46.0465 93.0539 46.9179C92.042 48.0913 90.989 49.2646 89.6025 50.0011C89.7944 50.1978 89.984 50.3968 90.1758 50.5935C91.1672 49.745 92.4829 49.1 93.0151 47.8465C93.4468 47.8397 93.4788 47.4165 93.5427 47.0918C94.1777 46.0145 94.6665 44.8457 94.9955 43.638C94.582 43.6952 94.1572 43.821 94.0932 44.2922ZM109.039 68.5645C109.059 69.0631 109.173 69.5503 109.317 70.0283C109.781 69.6212 109.763 68.672 109.039 68.5645ZM133.47 169.306C134.601 170.843 135.439 172.584 135.887 174.446C136.255 173.197 136.424 171.9 136.764 170.644C137.456 168.039 137.598 165.333 137.954 162.673C138.126 161.61 138.295 160.544 138.393 159.471C136.904 162.824 135.085 166.015 133.47 169.306ZM121.7 174.169C121.517 175.926 121.355 177.703 121.643 179.457C122.161 180.631 123.45 181.09 124.409 181.82C126.156 183.076 128.315 183.57 130.428 183.739C132.257 183.975 134.151 183.771 135.885 183.135C136.6 182.893 137.214 182.298 137.287 181.518C137.495 179.54 137.831 177.518 137.333 175.553C137.148 175.772 136.961 175.992 136.78 176.218C136.904 176.202 137.15 176.17 137.274 176.152C136.773 178.126 136.81 180.223 136.086 182.147C135.958 182.536 135.549 182.689 135.225 182.874C135.426 182.41 135.848 182.044 135.878 181.516C136.12 180.022 136.296 178.517 136.556 177.028C134.332 177.879 131.894 178.252 129.519 178.096C127.045 177.682 124.653 176.632 122.716 175.029C122.726 176.196 122.675 177.367 122.755 178.531C122.648 179.272 122.643 180.059 123.214 180.624C122.737 180.187 122.312 179.661 122.346 178.972C122.321 177.04 122.385 175.093 122.036 173.183C121.89 173.497 121.739 173.819 121.7 174.169ZM100.754 178.73C100.457 179.478 100.484 180.292 100.395 181.079C100.304 180.58 100.247 180.082 100.176 179.583C95.3449 181.326 90.0365 181.429 85.0113 180.576C84.9998 181.454 84.9907 182.332 85.0387 183.211C85.2351 183.222 85.6257 183.247 85.8199 183.259C85.8199 183.359 85.8199 183.558 85.8199 183.659C85.5458 183.597 85.2694 183.535 84.993 183.485C85.0021 184.048 85.0067 184.615 85.1323 185.168C85.3288 185.578 85.6463 185.912 85.8838 186.298C85.3699 186.113 84.913 185.727 84.8194 185.166C84.5179 183.629 84.7029 182.046 84.5453 180.496C84.3123 180.701 83.8943 180.882 83.972 181.276C83.9308 182.188 83.9308 183.103 83.9834 184.016C84.0428 184.773 84.1273 185.647 84.7851 186.143C84.6572 186.303 84.5476 186.481 84.4539 186.669C89.2918 187.616 94.2006 186.559 98.9311 185.539C99.8608 185.306 101.245 184.949 101.133 183.716C100.608 182.936 100.119 182.11 99.8517 181.205L100.354 181.388L100.612 181.164L100.763 181.228C100.701 181.376 100.58 181.671 100.519 181.818C100.722 182.316 100.932 182.815 101.202 183.286C101.272 182.168 101.336 181.038 101.229 179.919C101.135 179.508 101.17 178.972 100.754 178.73ZM83.0743 183.803C83.0126 184.709 83.4009 185.523 83.8372 186.287C84.0588 186.269 84.278 186.241 84.4996 186.211C84.0976 185.795 83.7847 185.29 83.7161 184.711C83.5151 183.179 83.4694 181.605 83.7961 180.089C82.7705 181.04 83.1359 182.559 83.0743 183.803Z" fill="black"/>
<path d="M135.056 33.6885C135.11 33.3797 135.275 33.3339 135.547 33.5467C135.483 33.8531 135.321 33.8989 135.056 33.6885Z" fill="black"/>
<path d="M85.0251 33.7502C85.0822 34.5142 85.7081 33.3957 85.0251 33.7502V33.7502Z" fill="black"/>
<path d="M133.767 33.8005C134.032 33.5901 134.192 33.6404 134.24 33.9538C133.975 34.1642 133.815 34.1116 133.767 33.8005Z" fill="black"/>
<path d="M132.554 34.0109C132.826 33.8096 132.993 33.8622 133.052 34.1641C132.776 34.3677 132.609 34.3174 132.554 34.0109Z" fill="black"/>
<path d="M87.5627 34.2122C87.6655 34.9693 88.216 33.8005 87.5627 34.2122V34.2122Z" fill="black"/>
<path d="M89.8719 34.9007C90.1004 34.688 90.6257 34.7429 90.676 35.0997C90.6166 35.5548 89.6572 35.333 89.8719 34.9007Z" fill="black"/>
<path d="M127.746 35.1203C127.776 34.8139 127.94 34.7521 128.237 34.9397C128.201 35.2439 128.036 35.3056 127.746 35.1203Z" fill="black"/>
<path d="M91.2721 35.1683C91.6695 35.2552 92.0556 35.3787 92.437 35.5205C91.9916 35.7836 91.4091 35.7767 91.2721 35.1683Z" fill="black"/>
<path d="M92.5673 35.6532C92.8094 35.6394 93.2914 35.6097 93.5335 35.596L93.4239 35.8819C93.9333 35.875 94.4449 35.8865 94.9543 35.9391C94.6459 36.1243 94.3033 36.2364 93.9607 36.3371L94.0703 36.0191C93.5449 36.0191 93.0219 35.9345 92.5673 35.6532Z" fill="black"/>
<path d="M97.9376 36.5705C98.0975 36.8975 98.1158 37.2612 98.0267 37.6112C97.4876 40.4268 97.1107 43.2744 96.3912 46.0511C96.1582 46.0671 95.6922 46.0969 95.4592 46.1106C95.6443 46.0191 96.012 45.8384 96.1948 45.7469C96.5442 44.633 96.9211 43.4459 96.7567 42.2634C96.8138 42.2451 96.9303 42.2108 96.9874 42.1948C96.944 41.5773 96.9737 40.9666 97.1952 40.3856C97.1313 40.2987 97.0056 40.1203 96.9417 40.0311C97.0902 39.9487 97.2386 39.8687 97.3894 39.7909C97.5767 38.7182 97.901 37.6661 97.9376 36.5705Z" fill="black"/>
<path d="M117.632 37.4715C117.897 37.3777 118.164 37.2954 118.434 37.2176C118.086 37.8146 117.282 37.7162 116.691 37.7665C116.919 37.4578 117.28 37.4486 117.632 37.4715Z" fill="black"/>
<path d="M138.77 37.3023L138.916 37.2932L138.925 37.4418L138.779 37.4487L138.77 37.3023Z" fill="black"/>
<path d="M102.76 37.5174C103.344 37.4877 104.125 37.2383 104.511 37.8399C103.906 37.8948 103.292 37.8193 102.76 37.5174Z" fill="black"/>
<path d="M113.646 37.5265C114.441 37.5036 115.236 37.5585 116.031 37.5197C116.127 37.5928 116.316 37.7369 116.412 37.8101C115.494 37.618 114.489 38.0228 113.646 37.5265Z" fill="black"/>
<path d="M136.49 38.0091C136.782 37.7895 137.091 37.5951 137.404 37.4052C137.413 37.5676 137.433 37.8947 137.443 38.0571C137.125 38.0502 136.808 38.0342 136.49 38.0091Z" fill="black"/>
<path d="M138.041 37.7552C137.963 37.3824 138.11 37.2451 138.48 37.3389C138.548 37.7095 138.402 37.849 138.041 37.7552Z" fill="black"/>
<path d="M104.795 37.7666C105.222 37.7186 105.653 37.7163 106.083 37.7461C105.841 38.3522 105.089 38.2858 104.795 37.7666Z" fill="black"/>
<path d="M106.458 37.9565C106.8 37.9405 107.147 37.9107 107.49 37.9565C107.75 38.789 106.412 38.7227 106.458 37.9565Z" fill="black"/>
<path d="M135.796 38.3865C135.533 38.0983 136.01 37.5974 136.273 37.9428C136.574 38.2424 136.065 38.6724 135.796 38.3865Z" fill="black"/>
<path d="M134.733 38.7045C134.797 38.1441 135.423 37.9474 135.688 38.4849C135.378 38.5901 135.053 38.6496 134.733 38.7045Z" fill="black"/>
<path d="M82.7201 38.7547C82.9622 38.2698 83.5949 38.5237 83.7137 38.972C83.3779 38.9194 83.0422 38.8668 82.7201 38.7547Z" fill="black"/>
<path d="M133.792 39.0041C133.863 38.6404 134.023 38.3225 134.446 38.3843C134.667 38.8531 134.073 38.86 133.792 39.0041Z" fill="black"/>
<path d="M132.559 38.988C132.78 38.8142 133.02 38.6655 133.262 38.5191C133.278 38.7135 133.31 39.1069 133.326 39.3036C133.045 39.251 132.79 39.1458 132.559 38.988Z" fill="black"/>
<path d="M84.1957 39.052C84.3715 38.7318 85.0477 38.8576 85.0568 39.2441C84.9015 39.6101 84.1979 39.4363 84.1957 39.052Z" fill="black"/>
<path d="M111.94 39.2831C112.474 38.7364 113.667 39.2488 113.397 40.0402C113.095 40.477 112.52 40.1774 112.095 40.214C112.145 40.6006 112.207 40.9871 112.282 41.3691C112.214 41.3554 112.079 41.3279 112.013 41.3119C112.015 40.8956 112.006 40.477 111.997 40.0608C112.387 39.9601 112.778 39.8618 113.171 39.7589C112.639 38.8096 111.293 39.7131 111.542 40.596C111.446 41.488 112.33 41.9912 113.118 41.7076C112.988 41.6069 112.728 41.4057 112.598 41.305C112.817 41.3531 113.038 41.4011 113.26 41.4468L113.367 41.5017C113.758 41.3119 113.95 40.8522 114.297 40.5983C114.107 41.3073 113.664 42.0896 112.837 42.1079C111.314 42.4189 110.654 39.9464 111.94 39.2831Z" fill="black"/>
<path d="M131.55 39.2762L131.447 39.02C131.673 39.0497 132.125 39.1115 132.351 39.1412C132.13 39.283 131.91 39.4225 131.682 39.5438C131.113 39.3265 130.558 40.063 130.081 39.5026C130.558 39.3562 131.054 39.315 131.55 39.2762Z" fill="black"/>
<path d="M85.3493 39.2922C85.7194 39.3631 86.3224 39.171 86.4023 39.7108C85.9729 39.8 85.5229 39.752 85.3493 39.2922Z" fill="black"/>
<path d="M86.5415 39.8937C86.9047 39.8205 87.2702 39.7496 87.6242 39.633C87.7727 39.8022 87.9166 39.9738 88.0582 40.1499C87.5466 40.1018 87.0441 39.9898 86.5415 39.8937Z" fill="black"/>
<path d="M88.5015 40.3398C88.3896 39.7863 89.0908 40.0836 89.3878 40.0013C89.2325 40.3924 88.8761 40.5594 88.5015 40.3398Z" fill="black"/>
<path d="M89.6506 40.4702C90.0412 40.3832 90.4387 40.3535 90.8361 40.3215C90.8315 40.4633 90.8224 40.7446 90.8178 40.8864C90.4227 40.7629 90.0298 40.6325 89.6506 40.4702Z" fill="black"/>
<path d="M91.7039 40.756C91.9688 40.6988 92.1881 40.7766 92.2087 41.0785C91.8249 41.2889 91.0186 41.0511 91.7039 40.756Z" fill="black"/>
<path d="M94.3306 41.1929C94.486 41.2089 94.7943 41.241 94.9497 41.257C94.9131 41.5497 95.0502 42.0026 94.6047 41.9935C94.374 41.7853 94.3581 41.4811 94.3306 41.1929Z" fill="black"/>
<path d="M99.5022 41.9408C99.7969 41.8813 100.149 41.8996 100.267 42.2313C99.9157 42.3045 99.3766 42.5012 99.3058 41.9683L99.5022 41.9408Z" fill="black"/>
<path d="M119.018 42.6614C118.984 42.2199 119.349 42.1147 119.699 42.0324C119.738 42.4944 119.443 42.6637 119.018 42.6614Z" fill="black"/>
<path d="M100.745 42.5446C101.033 42.0895 101.519 42.3182 101.862 42.5858C101.483 42.6727 101.11 42.659 100.745 42.5446Z" fill="black"/>
<path d="M117.856 42.8992C117.579 42.5629 118.125 42.1261 118.436 42.3388C118.628 42.659 118.18 43.2057 117.856 42.8992Z" fill="black"/>
<path d="M102.629 42.5035C102.869 42.5424 103.104 42.6087 103.337 42.675C102.963 42.8283 102.583 42.9701 102.197 43.089C102.323 42.8786 102.467 42.6842 102.629 42.5035Z" fill="black"/>
<path d="M116.449 42.5791C116.597 42.4007 117.056 42.2497 117.12 42.5813C117.1 42.8924 116.673 43.1783 116.401 42.9748C116.412 42.8764 116.437 42.6797 116.449 42.5791Z" fill="black"/>
<path d="M103.826 42.762C104.137 42.7231 104.447 42.7117 104.763 42.7231C104.555 43.009 103.554 43.4253 103.826 42.762Z" fill="black"/>
<path d="M105.347 42.961C105.512 42.6408 106.377 42.7025 106.325 43.1279C106.055 43.3109 105.473 43.3155 105.347 42.961Z" fill="black"/>
<path d="M82.2041 43.5054C83.2137 43.6449 84.1937 43.9217 85.1827 44.1642C85.2535 44.2373 85.3929 44.3792 85.4637 44.4523C84.5774 44.3403 83.6158 44.2442 82.8437 43.7707C82.7067 43.7616 82.4371 43.7456 82.3024 43.7364C82.2772 43.6793 82.227 43.5626 82.2041 43.5054Z" fill="black"/>
<path d="M85.5869 44.5574C86.1306 44.2807 87.0557 44.2212 87.3343 44.8891C86.7404 44.8525 86.158 44.7221 85.5869 44.5574Z" fill="black"/>
<path d="M87.3616 44.8182C88.0469 44.6787 88.7276 44.8456 89.2187 45.3488C88.5745 45.2848 87.9395 45.1132 87.3616 44.8182Z" fill="black"/>
<path d="M115.8 45.2322C115.633 44.8914 116.17 44.3241 116.243 44.9325C116.216 45.0423 116.165 45.2642 116.138 45.3763C116.054 45.3397 115.884 45.2688 115.8 45.2322Z" fill="black"/>
<path d="M115.821 45.7834C115.976 45.5181 116.168 45.509 116.401 45.7537C116.337 45.8338 116.211 45.9939 116.147 46.0739C116.067 46.003 115.903 45.8566 115.821 45.7834Z" fill="black"/>
<path d="M116.142 48.3017C115.692 47.8443 115.83 47.133 116.174 46.6572C116.252 47.2039 116.236 47.7574 116.142 48.3017Z" fill="black"/>
<path d="M114.553 50.0264C114.553 49.5781 114.745 49.1847 115.046 48.8621C115.046 49.2784 115.035 49.6947 115.019 50.111C114.902 50.0904 114.669 50.0469 114.553 50.0264Z" fill="black"/>
<path d="M109.717 51.6068C109.014 51.4833 109.217 50.7102 109.706 50.4426C109.729 50.8314 109.731 51.2202 109.717 51.6068Z" fill="black"/>
<path d="M114.674 52.2037C114.692 51.6525 114.226 50.733 115.069 50.6781C115.073 51.2156 114.886 51.7188 114.674 52.2037Z" fill="black"/>
<path d="M78.5584 51.7783C80.0088 51.6182 81.4341 51.84 82.8755 51.9727C83.3232 51.8537 83.7754 51.8492 84.1363 52.1671C83.7138 52.2311 83.2866 52.2403 82.8663 52.1534C82.1582 52.2311 81.4456 52.158 80.7352 52.1099C80.2418 52.1625 79.7416 52.1168 79.287 51.9041C79.0266 52.3432 78.7799 52.0276 78.5584 51.7783Z" fill="black"/>
<path d="M84.205 52.158C84.5774 51.792 85.2443 51.6708 85.5413 52.1969C85.0959 52.2289 84.6482 52.222 84.205 52.158Z" fill="black"/>
<path d="M109.731 53.0638C109.053 53.0707 109.153 52.1901 109.667 51.9637C109.697 52.3296 109.72 52.6956 109.731 53.0638Z" fill="black"/>
<path d="M115.715 52.3661C115.818 52.3661 116.021 52.3615 116.122 52.3615C115.857 54.0793 116.126 55.8313 115.896 57.5467C116.152 59.1524 115.768 60.7512 115.756 62.3477C115.439 63.2969 115.957 64.5549 115.174 65.3051C114.971 64.7013 115.242 64.0746 115.297 63.4661C115.567 62.0618 115.478 60.6208 115.695 59.2096C115.651 58.1826 115.676 57.1465 115.768 56.1241C115.67 54.8661 115.971 53.6172 115.715 52.3661Z" fill="black"/>
<path d="M114.729 52.5812C115.085 52.7893 115.131 53.814 114.571 53.4801C114.512 53.169 114.539 52.8442 114.729 52.5812Z" fill="black"/>
<path d="M109.358 54.7289C109.164 54.2761 109.205 53.782 109.685 53.5396C109.699 53.8461 109.71 54.1503 109.719 54.4568C109.628 54.5254 109.448 54.6603 109.358 54.7289Z" fill="black"/>
<path d="M114.681 55.5843C114.589 55.0559 114.423 54.3858 114.948 54.0244C115.012 54.5619 115.035 55.1337 114.681 55.5843Z" fill="black"/>
<path d="M109.128 55.7033C108.997 55.3625 109.436 55.2893 109.621 55.1109C109.607 55.5043 109.614 55.9023 109.541 56.2912C109.189 56.4307 109.208 55.9252 109.128 55.7033Z" fill="black"/>
<path d="M114.799 57.4507C114.365 57.023 114.47 56.3757 114.793 55.9182C114.886 56.426 114.895 56.9429 114.799 57.4507Z" fill="black"/>
<path d="M109.102 56.9909C109.253 56.8949 109.406 56.8011 109.559 56.7096C109.566 57.1739 109.555 57.6405 109.505 58.1048C109.144 57.8395 109.134 57.3935 109.102 56.9909Z" fill="black"/>
<path d="M114.879 59.1523C114.215 59.0974 114.45 58.2031 114.77 57.8623C114.854 58.2855 114.902 58.7201 114.879 59.1523Z" fill="black"/>
<path d="M109.578 59.7082C108.929 59.5207 108.979 58.6355 109.55 58.3862C109.591 58.8253 109.596 59.2668 109.578 59.7082Z" fill="black"/>
<path d="M114.811 61.1377C114.438 60.7443 114.324 60.0741 114.802 59.7104C114.859 60.1839 114.861 60.6619 114.811 61.1377Z" fill="black"/>
<path d="M109.126 60.2C109.235 60.1771 109.457 60.1314 109.569 60.1085C109.571 60.383 109.576 60.6574 109.578 60.9319C109.468 60.9182 109.244 60.8884 109.132 60.8724C109.13 60.6483 109.128 60.4241 109.126 60.2Z" fill="black"/>
<path d="M108.943 61.9017C109.201 61.7645 109.461 61.6295 109.72 61.4946C109.669 61.8743 109.61 62.2539 109.544 62.6336C109.336 62.3957 109.137 62.1487 108.943 61.9017Z" fill="black"/>
<path d="M114.493 63.0294C114.676 62.469 114.281 61.84 114.731 61.3642C115.005 62.7823 114.356 64.141 114.274 65.5385C114.315 65.8038 114.018 65.8747 113.87 66.0234C113.803 65.5796 113.817 65.1222 114.18 64.8088C113.934 64.1638 114.436 63.6469 114.493 63.0294Z" fill="black"/>
<path d="M109.1 63.1917C109.226 63.1574 109.48 63.0888 109.605 63.0522C109.605 63.4753 109.596 63.8985 109.566 64.3216C109.103 64.1112 109.13 63.6217 109.1 63.1917Z" fill="black"/>
<path d="M109.335 64.6601C109.792 65.0718 109.539 65.7282 109.573 66.2635C109.463 66.3481 109.244 66.5196 109.134 66.6065C109.297 66.8879 109.468 67.1669 109.648 67.4391C110.133 67.558 110.681 67.5146 111.06 67.9103C110.384 68.0269 109.655 67.908 109.068 67.5489C108.954 67.1052 109.052 66.6431 109.036 66.1926C109.116 66.1262 109.278 65.9936 109.358 65.9272C109.251 65.5132 109.169 65.0718 109.335 64.6601Z" fill="black"/>
<path d="M122.127 66.3915C122.979 65.9661 123.815 65.4263 124.779 65.3051C123.361 66.2085 121.858 66.9725 120.448 67.8919C118.529 69.1545 116.467 70.1815 114.4 71.1787C113.758 71.4555 113.116 71.8352 112.39 71.7871C113.045 71.0598 114.036 70.8288 114.866 70.3622C117.362 69.1842 119.722 67.7455 122.127 66.3915Z" fill="black"/>
<path d="M112.129 68.5302C113.541 68.0202 114.281 66.5357 115.229 65.463C115.222 65.5911 115.206 65.8496 115.197 65.9777C114.745 66.4191 114.445 66.984 114.052 67.4735C113.2 68.3129 112.305 69.1181 111.261 69.7105C111.133 69.6327 111.01 69.5526 110.887 69.4726C111.414 69.3308 111.912 69.0586 112.129 68.5302Z" fill="black"/>
<path d="M113.013 66.6638C112.91 66.4008 113.109 65.8633 113.459 66.0714C113.872 66.3344 113.28 67.1716 113.013 66.6638Z" fill="black"/>
<path d="M112.266 67.0274C112.41 67.0502 112.698 67.0937 112.844 67.1143C112.351 67.4185 111.91 67.7867 111.476 68.1641C111.446 67.789 111.574 67.4848 111.94 67.3544C112.022 67.2744 112.184 67.1097 112.266 67.0274Z" fill="black"/>
<path d="M91.6766 67.3797C91.768 67.3088 91.953 67.1647 92.0444 67.0915C95.9184 67.4666 99.7512 68.3884 103.374 69.8179C104.936 70.4378 106.56 70.9295 107.988 71.8444C105.242 71.3252 102.766 69.9689 100.092 69.2141C97.3528 68.3358 94.5136 67.828 91.6766 67.3797Z" fill="black"/>
<path d="M114.235 73.203C116.407 71.9953 118.84 71.3618 121.28 70.9752C119.905 71.8878 118.219 71.9633 116.711 72.5374C115.907 72.8348 115.089 73.1069 114.235 73.203Z" fill="black"/>
<path d="M112.065 73.5485C112.426 73.5119 112.815 73.4707 113.118 73.72C115.259 75.1152 117.18 76.8215 119.071 78.5324C119.969 79.3672 120.944 80.1266 121.746 81.0575C121.104 80.9935 120.627 80.5383 120.147 80.1563C118.041 78.4683 116.106 76.5676 113.9 75.0054C113.26 74.5548 112.632 74.0882 112.065 73.5485Z" fill="black"/>
<path d="M105.67 75.7899C106.035 75.4834 106.492 75.2982 106.949 75.5452C103.831 77.7341 100.966 80.2958 98.4515 83.1572C97.9535 83.7084 97.5332 84.3397 96.9325 84.788C97.6063 83.2967 98.769 82.1005 99.8608 80.9088C101.704 79.1019 103.591 77.3247 105.67 75.7899Z" fill="black"/>
<path d="M107.853 79.1041C107.929 79.175 108.079 79.3191 108.155 79.39C108.011 79.9367 108.091 80.6183 107.513 80.9202C107.538 80.4673 107.597 79.9916 107.903 79.6302C107.892 79.4998 107.867 79.2345 107.853 79.1041Z" fill="black"/>
<path d="M105.944 87.576C106.053 87.0454 106.165 86.5102 106.405 86.023C106.38 86.5674 106.467 87.2261 105.944 87.576Z" fill="black"/>
<path d="M105.528 88.5115C105.622 88.571 105.811 88.6945 105.905 88.754C105.818 89.1039 105.77 89.5042 105.382 89.6506C105.414 89.2686 105.464 88.8889 105.528 88.5115Z" fill="black"/>
<path d="M118.443 89.8862C118.797 90.4146 118.911 91.0573 118.904 91.684C118.447 91.2174 118.226 90.5198 118.443 89.8862Z" fill="black"/>
<path d="M118.886 91.7228C119.149 92.1231 119.297 92.5805 119.4 93.0448C118.774 92.9259 118.831 92.2008 118.886 91.7228Z" fill="black"/>
<path d="M104.094 95.3641C104.208 94.7603 104.126 94.0558 104.557 93.564C104.569 94.1793 104.658 94.9478 104.094 95.3641Z" fill="black"/>
<path d="M119.267 93.5344C119.838 93.7905 119.804 94.4538 119.879 94.973C119.329 94.7077 119.393 94.033 119.267 93.5344Z" fill="black"/>
<path d="M119.797 95.4008C120.33 95.2635 120.19 96.167 120.25 96.4872C120.051 96.1556 119.562 95.8239 119.797 95.4008Z" fill="black"/>
<path d="M120.14 96.7366C120.594 97.2101 120.7 97.9877 120.562 98.6144C120.345 98.0083 120.206 97.377 120.14 96.7366Z" fill="black"/>
<path d="M120.542 98.8134C121.124 99.0307 121.049 99.7008 121.19 100.193C121.092 100.179 120.896 100.151 120.795 100.135C120.699 99.6963 120.608 99.2548 120.542 98.8134Z" fill="black"/>
<path d="M103.312 99.989C103.111 99.7214 103.166 99.5567 103.479 99.4903C103.671 99.7511 103.616 99.9181 103.312 99.989Z" fill="black"/>
<path d="M103.111 100.861C103.541 100.961 103.285 101.917 102.876 101.833C102.739 101.526 102.833 101.057 103.111 100.861Z" fill="black"/>
<path d="M121.063 100.712C121.645 101.121 121.675 101.833 121.641 102.48C121.896 102.974 122.111 103.498 122.093 104.065C121.721 103.795 121.618 103.34 121.54 102.914C121.414 102.171 121.165 101.457 121.063 100.712Z" fill="black"/>
<path d="M102.141 103.871C102.218 103.333 102.339 102.789 102.657 102.338C102.682 102.88 102.789 103.642 102.141 103.871Z" fill="black"/>
<path d="M101.704 105.469C101.839 105.149 101.981 104.831 102.161 104.536C102.191 104.868 102.209 105.199 102.216 105.536C102.088 105.517 101.832 105.485 101.704 105.469Z" fill="black"/>
<path d="M102.01 107.51C101.549 107.169 101.706 106.558 101.974 106.151C102.108 106.595 102.088 107.057 102.01 107.51Z" fill="black"/>
<path d="M101.567 108.015C101.674 108.013 101.891 108.008 101.999 108.006C102.147 108.276 102.099 108.495 101.853 108.669C101.48 108.777 101.373 108.237 101.567 108.015Z" fill="black"/>
<path d="M123.498 111.679C123.799 112.066 123.776 112.562 123.795 113.026C123.701 112.971 123.516 112.857 123.425 112.8C123.427 112.425 123.45 112.05 123.498 111.679Z" fill="black"/>
<path d="M123.482 113.676C123.603 113.687 123.84 113.71 123.961 113.722C123.81 115.005 124.329 116.192 124.491 117.434C123.87 117.036 124.224 116.286 123.995 115.714C123.756 115.053 123.619 114.362 123.482 113.676Z" fill="black"/>
<path d="M124.194 117.946C124.656 117.674 124.797 118.751 124.349 118.802C124.039 118.674 124.037 118.193 124.194 117.946Z" fill="black"/>
<path d="M81.3633 131.144C82.277 128.628 84.7279 127.239 86.2126 125.13C86.5758 124.842 86.5119 125.387 86.473 125.604C86.2629 126.05 85.8791 126.375 85.5411 126.722C84.0838 128.136 82.6744 129.595 81.3633 131.144Z" fill="black"/>
<path d="M129.834 130.814C130.487 130.096 130.928 129.174 131.753 128.625C131.821 129.247 131.369 129.705 131.01 130.151C129.43 132.072 127.776 133.934 126.248 135.896C125.556 136.855 124.708 137.779 124.491 138.984C124.388 138.879 124.183 138.669 124.08 138.566C124.325 137.683 124.864 136.933 125.38 136.192C126.737 134.298 128.292 132.559 129.834 130.814Z" fill="black"/>
<path d="M93.2275 132.669C93.3919 132.838 93.5313 133.024 93.6501 133.225C95.0274 135.922 96.3226 138.655 97.6382 141.381C98.3601 142.875 99.0088 144.465 99.0796 146.143C98.858 145.798 98.6867 145.425 98.5611 145.036C97.6382 141.974 95.9502 139.227 94.6345 136.326C94.1115 135.135 93.328 134.003 93.2275 132.669Z" fill="black"/>
<path d="M124.046 139.723C124.503 139.767 124.672 140.359 124.475 140.727C123.966 140.851 123.954 140.064 124.046 139.723Z" fill="black"/>
<path d="M124 141.8C124.128 141.793 124.384 141.777 124.51 141.768C124.464 142.097 124.409 142.427 124.345 142.756C124.16 142.465 124.082 142.127 124 141.8Z" fill="black"/>
<path d="M124.14 143.257C124.667 143.499 124.571 144.087 124.599 144.565C124.466 144.565 124.201 144.57 124.069 144.57C124.069 144.131 124.087 143.692 124.14 143.257Z" fill="black"/>
<path d="M124.105 145.261C124.222 145.272 124.452 145.295 124.569 145.306C124.599 145.61 124.626 145.917 124.656 146.226C124.528 146.201 124.277 146.148 124.151 146.123C124.133 145.835 124.117 145.546 124.105 145.261Z" fill="black"/>
<path d="M98.3759 146.516C98.6569 146.567 98.9378 146.622 99.2165 146.683C98.5404 146.878 98.7665 147.534 98.7414 148.051C98.5335 147.562 98.4719 147.031 98.3759 146.516Z" fill="black"/>
<path d="M124.354 147.998C124.224 147.518 124.112 147.013 124.731 146.882C124.756 147.266 124.772 147.653 124.788 148.04C124.679 148.03 124.462 148.007 124.354 147.998Z" fill="black"/>
<path d="M98.4423 148.653C98.753 148.412 99.2144 148.954 98.8215 149.167C98.4834 149.453 98.1088 148.888 98.4423 148.653Z" fill="black"/>
<path d="M124.325 148.538C124.898 148.669 124.772 149.265 124.793 149.714C124.466 149.396 124.254 149.009 124.325 148.538Z" fill="black"/>
<path d="M98.5132 149.874C99.0294 149.705 98.9495 150.743 98.4858 150.677C98.1774 150.526 98.2551 150.032 98.5132 149.874Z" fill="black"/>
<path d="M124.557 150.039C124.957 150.171 125.005 150.805 124.646 151.02C124.279 150.816 124.249 150.313 124.557 150.039Z" fill="black"/>
<path d="M98.4765 152.276C97.8643 152.202 98.063 151.258 98.6112 151.239C98.5861 151.585 98.5724 151.937 98.4765 152.276Z" fill="black"/>
<path d="M124.544 151.34C124.743 151.553 125.156 152.465 124.56 152.312C124.526 151.987 124.519 151.665 124.544 151.34Z" fill="black"/>
<path d="M98.1224 152.964C98.561 153.117 98.344 153.678 98.3965 154.025C98.2595 154.014 97.9877 153.991 97.8506 153.982C97.9169 153.636 97.9922 153.291 98.1224 152.964Z" fill="black"/>
<path d="M125.099 154.167C124.569 154.101 124.26 152.994 124.902 152.989C125.09 153.351 125.067 153.769 125.099 154.167Z" fill="black"/>
<path d="M97.9491 154.499C98.2734 154.954 98.3854 155.688 97.8235 156.011C97.8029 155.503 97.8417 154.995 97.9491 154.499Z" fill="black"/>
<path d="M124.996 155.846C124.546 155.448 124.88 154.984 125.266 154.714C125.339 155.112 125.487 155.656 124.996 155.846Z" fill="black"/>
<path d="M97.6887 157.598C97.7732 157.255 97.4762 156.226 98.1067 156.463C98.1843 156.903 98.0953 157.353 97.6887 157.598Z" fill="black"/>
<path d="M97.668 157.827C98.1728 158.177 98.2276 158.975 97.6588 159.281C97.6405 158.796 97.6565 158.312 97.668 157.827Z" fill="black"/>
<path d="M125.528 158.119C125.757 158.497 125.887 158.922 125.99 159.352C125.346 159.297 125.549 158.549 125.528 158.119Z" fill="black"/>
<path d="M97.7091 159.677C98.5976 160.315 98.2185 161.553 98.3692 162.479C98.2413 162.484 97.9809 162.49 97.8507 162.493C97.837 162.323 97.8142 161.98 97.8027 161.809C97.9124 161.71 98.1317 161.516 98.2413 161.418C97.5789 161.063 97.6977 160.304 97.7091 159.677Z" fill="black"/>
<path d="M125.485 161.024C125.307 160.638 125.693 160.329 125.898 160.055C126.074 160.299 126.264 160.581 126.186 160.903C126.15 161.146 125.978 162.108 126.013 161.033C125.88 161.031 125.617 161.027 125.485 161.024ZM125.855 160.789C126.006 160.935 126.006 160.935 125.855 160.789V160.789Z" fill="black"/>
<path d="M125.766 162.502C125.864 162.216 126.003 161.944 126.124 161.669C126.547 163.565 126.488 165.523 126.565 167.451C126.134 166.891 126.14 166.15 126.003 165.484C126.803 164.99 125.364 164.089 126.268 163.609C126.453 163.158 125.903 162.886 125.766 162.502Z" fill="black"/>
<path d="M97.8737 163.945C97.9331 163.607 98.0245 163.273 98.2049 162.978C98.294 163.314 98.3694 163.657 98.4379 164C98.2986 163.986 98.0153 163.959 97.8737 163.945Z" fill="black"/>
<path d="M98.0584 165.306C98.2114 165.025 98.3691 164.746 98.5335 164.473C98.8053 165.471 98.9264 166.502 99.0292 167.527C98.7802 167.307 98.2937 167.097 98.5358 166.688C98.7459 166.308 98.7619 165.878 98.5312 165.507C98.4125 165.457 98.1772 165.356 98.0584 165.306Z" fill="black"/>
<path d="M93.2505 165.821C93.6799 166.37 93.8855 167.051 94.2236 167.657C95.4022 169.853 96.992 171.788 98.262 173.929C98.8034 174.855 99.5138 175.679 99.9775 176.648C100.156 176.875 99.95 177.129 99.8906 177.358C99.2031 176.28 98.6069 175.146 97.8874 174.091C96.622 172.296 95.3154 170.523 94.1916 168.634C93.7256 167.763 93.1751 166.848 93.2505 165.821Z" fill="black"/>
<path d="M99.2648 169.508C98.6892 169.16 98.6937 168.316 99.1163 167.847C99.2922 168.382 99.3173 168.947 99.2648 169.508Z" fill="black"/>
<path d="M91.8252 172.381C93.6799 174.334 95.103 176.655 96.5534 178.913C96.2748 178.721 95.9961 178.524 95.7882 178.256C94.7352 176.946 93.8512 175.516 92.8325 174.181C92.4328 173.623 91.9143 173.094 91.8252 172.381Z" fill="black"/>
<path d="M99.1686 172.412C99.2965 172.41 99.5523 172.41 99.6803 172.408C99.7808 172.685 99.8836 172.966 99.9818 173.247C99.7077 172.971 99.4381 172.691 99.1686 172.412Z" fill="black"/>
<path d="M129.503 173.474C130.051 173.922 130.04 174.697 130.231 175.326C130.343 176.001 130.647 176.66 130.624 177.353C130.252 177.515 130.14 176.973 130.014 176.735C129.736 175.681 129.318 174.574 129.503 173.474Z" fill="black"/>
<path d="M84.6915 177.886C84.3238 178.554 85.4704 177.977 84.6915 177.886V177.886Z" fill="black"/>
<path d="M123.523 180.612C124.809 181.006 125.903 181.847 127.159 182.314C127.627 182.419 128.082 182.566 128.543 182.698C129.062 182.79 129.699 182.685 130.069 183.151C129.512 183.197 128.968 183.078 128.452 182.874C127.159 182.625 125.891 182.184 124.745 181.525C124.308 181.262 123.731 181.129 123.523 180.612Z" fill="black"/>
<path d="M133.76 183.062C134.048 182.794 134.389 182.602 134.754 182.463C134.701 182.991 134.208 183.082 133.76 183.062Z" fill="black"/>
<path d="M130.12 182.993C131.269 182.817 132.447 183.131 133.573 182.744C133.231 183.25 132.639 183.352 132.086 183.14C131.428 183.238 130.7 183.43 130.12 182.993Z" fill="black"/>
<path d="M99.5363 184.094C99.6962 184.24 99.8561 184.389 100.018 184.537C100.258 184.215 100.566 183.984 100.939 183.846C100.459 184.816 99.2576 184.835 98.3485 185.114C98.5975 184.672 99.0475 184.384 99.5454 184.668C99.5431 184.524 99.5386 184.238 99.5363 184.094Z" fill="black"/>
<path d="M97.0262 185.374C97.0079 184.695 97.7092 184.848 98.1386 184.944C97.796 185.152 97.4168 185.283 97.0262 185.374Z" fill="black"/>
<path d="M94.9406 185.745C95.2764 185.196 95.9228 185.184 96.4962 185.2C96.0347 185.523 95.4843 185.646 94.9406 185.745Z" fill="black"/>
<path d="M93.6821 185.852C93.8945 185.489 94.3079 185.502 94.6665 185.45C94.5386 185.681 94.3787 185.903 94.0818 185.887C93.4399 185.974 92.8095 186.131 92.1745 186.262C92.2293 186.074 92.2864 185.889 92.3458 185.706C92.4783 185.708 92.7455 185.715 92.878 185.717C93.1407 185.795 93.4102 185.839 93.6821 185.852Z" fill="black"/>
<path d="M86.4001 185.955C86.6377 185.736 87.1471 186.047 86.9849 186.362C86.7473 186.591 86.2471 186.259 86.4001 185.955Z" fill="black"/>
<path d="M87.3435 185.987C87.5948 185.836 87.8369 185.85 88.0745 186.031C88.4285 186.632 87.0397 186.539 87.3435 185.987Z" fill="black"/>
<path d="M90.0638 186.209C90.5093 185.598 91.1808 185.967 91.7176 186.218C91.1671 186.253 90.6143 186.257 90.0638 186.209Z" fill="black"/>
<path d="M88.7117 186.429C88.7186 186.303 88.7346 186.054 88.7437 185.928C89.1343 186.017 89.5226 186.145 89.8653 186.362C89.4815 186.397 89.0978 186.415 88.7117 186.429Z" fill="black"/>
</svg>
