<svg width="220" height="219" viewBox="0 0 220 219" fill="none" xmlns="http://www.w3.org/2000/svg">
<path d="M100.49 56.2639C103.402 55.752 106.385 56.2286 109.314 55.8711C112.195 55.7211 115.213 55.5446 117.957 56.5816C119.661 57.1685 120.559 58.8719 121.285 60.39C121.988 62.1155 122.847 63.7659 123.688 65.4252C123.927 65.9635 124.586 66.0871 125.073 66.321C126.657 66.8903 128.237 67.4728 129.795 68.1215C131.428 68.7746 132.809 69.9793 134.543 70.3941C136.588 70.8796 138.699 71.0605 140.748 71.5371C142.575 71.9431 143.956 73.364 145.753 73.8671C147.027 74.2246 148.293 74.9306 148.762 76.2457C151.2 81.7089 153.108 87.5561 156.936 92.2691C159.224 95.3935 160.918 98.8929 163.047 102.123C164.211 103.906 164.237 106.108 164.985 108.054C165.552 109.343 166.831 110.075 167.795 111.037C168.287 112.498 169.397 113.637 169.937 115.08C171.676 119.607 171.765 124.545 173.243 129.148C174.358 132.709 174.553 136.513 175.974 139.986C177.137 142.974 177.279 146.288 176.664 149.412C176.279 151.279 177.31 153.009 177.673 154.783C176.62 156.385 174.619 156.914 173.009 157.784C170.915 158.627 168.667 159.942 166.344 159.315C165.676 158.512 165.711 157.404 165.441 156.447C165.123 154.372 163.1 153.287 161.874 151.782C159.794 149.567 159.383 146.456 158.387 143.715C156.024 139.042 153.316 134.501 151.638 129.519C150.961 127.039 152.382 124.559 151.926 122.065C151.581 121.011 150.758 120.212 149.855 119.607C148.266 118.517 146.695 117.401 145.04 116.417C144.965 116.262 144.81 115.949 144.735 115.795C144.638 116.88 144.283 117.979 144.505 119.069C145.399 123.411 146.558 127.807 146.12 132.277C145.793 135.097 145.916 137.947 145.642 140.772C145.381 143.287 144.806 145.767 144.031 148.172C143.487 149.885 142.332 151.31 141.642 152.952C141.212 155.008 141.557 157.117 141.513 159.196C141.385 160.431 140.115 161.155 138.986 161.332C135.933 161.87 132.822 162.077 129.72 162.055C124.98 162.055 120.28 162.788 115.55 162.925C111.173 162.978 106.796 163.057 102.424 162.814C98.5163 162.744 94.6486 162.1 90.741 162.038C87.2095 161.901 83.6604 161.923 80.1466 161.495C78.7659 161.288 77.0931 160.352 77.1905 158.75C77.2657 157.1 77.3631 155.445 76.8896 153.839C76.8276 152.016 75.2743 150.855 74.5972 149.284C73.96 147.938 73.7608 146.442 73.6015 144.982C73.3537 142.744 72.2651 140.675 72.2783 138.402C72.2518 134.144 71.8402 129.885 71.9995 125.622C72.0659 122.648 72.597 119.713 73.0484 116.779C71.0835 117.414 69.8134 119.329 68.4327 120.777C68.0698 123.53 68.3752 126.39 67.6007 129.095C66.5475 132.727 63.879 135.582 62.5558 139.095C61.7725 140.957 60.5334 142.621 60.0289 144.602C59.4536 146.862 58.5022 148.998 57.5817 151.133C56.9046 152.718 55.4708 153.781 54.5592 155.202C53.829 156.68 53.5458 158.331 52.8952 159.845C49.7709 159.372 46.7528 158.291 44.0003 156.755C43.2524 156.323 42.3319 155.701 42.4337 154.717C42.7656 153.238 43.3763 151.839 43.6816 150.357C42.9913 149.112 42.3363 147.775 42.3496 146.319C42.2478 144.66 43.1063 143.19 43.6816 141.699C45.0314 138.093 45.4296 134.236 46.3501 130.516C48.2929 123.91 48.3946 116.717 51.8332 110.592C52.7315 109.228 54.4884 108.39 54.6698 106.611C55.1301 104.008 55.639 101.36 56.971 99.0386C59.0111 94.7139 62.6709 91.3998 64.4764 86.9603C65.5651 84.5244 67.4193 82.5209 68.4947 80.0761C69.6851 78.1565 69.5258 74.9836 72.0881 74.2775C73.4909 73.6994 74.6813 72.6889 76.1328 72.2079C78.1641 71.5239 80.2175 70.8663 82.3461 70.5618C83.9569 70.403 85.2225 69.3306 86.5856 68.5716C88.8292 67.2433 91.5198 67.0977 93.8963 66.0959C95.3257 65.0501 95.3257 63.0422 96.047 61.5462C96.9542 59.4544 98.0694 56.9038 100.49 56.2639ZM99.0031 59.834C99.4501 61.8419 100.233 63.7571 100.641 65.7782C106.066 65.5311 111.514 65.7958 116.944 65.7738C116.983 65.4693 117.059 64.8603 117.094 64.5514C116.82 64.5646 116.266 64.5823 115.992 64.5911C116.297 64.3793 116.607 64.1675 116.917 63.9557C117.563 62.1331 118.373 60.3812 119.059 58.5763C116.744 57.4245 114.067 57.7643 111.571 57.6893C108.026 57.8172 104.477 57.6098 100.933 57.7555C99.8838 57.7378 98.6358 58.6954 99.0031 59.834ZM98.1756 65.584C98.3703 68.7525 99.7023 71.7313 101.477 74.3217C102.132 75.3013 103.07 76.0383 104.123 76.5458C102.774 74.0216 101.349 71.5327 100.202 68.907C99.2421 66.9697 98.981 64.8029 98.357 62.7553C97.9897 61.7095 98.0296 60.5974 98.0119 59.5074C97.2064 61.4932 98.0738 63.5541 98.1756 65.584ZM115.988 73.973C115.793 74.988 115.125 75.8 114.656 76.6958C116.939 74.7983 117.78 71.8283 118.811 69.1673C119.926 66.2901 120.05 63.1525 119.745 60.1164C118.501 64.7367 117.156 69.335 115.988 73.973ZM96.8126 67.5787C97.6357 69.8337 98.4854 72.1814 100.109 74.0039C99.543 72.5035 98.6535 71.1399 98.1535 69.613C97.5251 67.0844 97.3967 64.472 97.1578 61.886C96.5338 63.7129 96.1488 65.6988 96.8126 67.5787ZM120.798 63.2187C120.67 64.3837 120.316 65.6546 121.024 66.7137C120.625 68.7613 119.988 70.7516 119.426 72.7551L118.922 73.3332C118.908 72.9007 118.877 72.0402 118.864 71.6121C118.417 73.6465 117.072 75.2704 115.789 76.8459C116.899 76.4178 117.899 75.7559 118.731 74.9042C120.249 72.5168 121.086 69.8072 121.935 67.133L122.458 66.7358C122.462 69.5954 121.258 72.2696 119.864 74.71C122.028 73.0816 123.099 70.3809 123.409 67.7729C123.166 67.0888 122.922 65.7782 121.71 66.8417C122.617 66.4666 122.732 65.9635 122.068 65.3281C121.873 64.5161 121.692 63.7041 121.515 62.8877C121.484 63.3555 121.418 64.2822 121.387 64.7456C120.674 65.7164 120.767 63.6556 120.798 63.2187ZM94.83 68.2715C96.0603 71.4312 97.9012 74.8865 101.486 75.7647C100.627 74.9571 99.5165 74.4496 98.742 73.5538C97.0383 71.2944 96.162 68.5804 95.2593 65.9371C94.9185 66.6652 94.3875 67.4551 94.83 68.2715ZM101.26 67.0403C102.676 70.1603 104.066 73.3023 105.721 76.3031C106.601 76.334 107.487 76.3737 108.372 76.409C107.765 74.988 108.071 73.5097 108.044 72.0313C107.894 72.3447 107.588 72.9669 107.438 73.2758C106.473 72.4638 106.925 71.0605 106.805 69.9661C106.832 69.1276 106.663 67.6669 107.96 67.9008C110.828 68.0465 113.673 67.6493 116.541 67.6669C116.058 66.8241 115.001 67.1595 114.213 67.0491C109.898 67.0094 105.579 66.9918 101.26 67.0403ZM107.659 68.4171C107.677 69.2688 107.695 70.1205 107.73 70.9722C108.088 70.1735 107.69 68.6819 109.066 68.7481C109.009 69.3836 108.889 70.0146 108.677 70.6192C109.757 70.275 111.779 71.1134 112.054 69.6528C111.496 69.7763 110.385 70.0146 109.828 70.1338C109.836 69.7498 109.845 69.3703 109.859 68.9864C110.491 69.1232 111.124 69.2556 111.761 69.3836C112.111 69.4498 112.638 69.1629 112.846 69.5689C112.757 69.8381 112.576 70.3809 112.483 70.6501C113.386 70.9502 114.315 71.1664 115.231 71.4268C115.465 70.4118 115.806 69.4277 116.156 68.4524C113.332 68.095 110.491 68.4083 107.659 68.4171ZM124.321 68.5098C123.568 70.4692 122.958 72.6006 121.426 74.1231C119.616 75.9059 117.351 77.2827 114.868 77.8697C112.89 77.446 110.938 78.1256 108.987 78.3816C108.42 78.8273 107.823 79.2774 107.071 78.9288C107.256 79.8643 107.106 80.9764 107.695 81.7751C108.739 82.0002 109.801 81.6736 110.841 81.581C110.969 80.7734 111.372 79.6084 110.199 79.3392C109.792 79.9173 109.46 80.5439 109.115 81.1573C109.035 80.7601 108.885 79.9702 108.805 79.5731C110.31 78.9861 112.2 79.4495 113.359 78.1653C113.62 78.3727 113.881 78.5757 114.147 78.7831C112.487 85.4511 113.071 92.353 112.828 99.1489C112.775 106.051 113.164 112.953 112.846 119.85C112.717 133.813 112.328 147.766 112.341 161.724C115.288 161.689 118.236 161.694 121.183 161.548C121.506 159.116 121.187 156.65 121.095 154.209C120.05 154.245 119.006 154.196 117.979 154.033C121.621 152.859 125.48 153.305 129.233 152.885C133.118 152.594 136.995 151.95 140.725 150.807C141.602 150.529 141.982 149.615 142.296 148.843C143.155 146.469 143.513 143.962 144.146 141.531C145.067 138.499 144.266 135.317 144.567 132.215C144.841 128.773 144.345 125.318 143.478 121.986C143.182 120.865 142.597 119.766 142.779 118.57C143.266 115.539 143.376 112.467 143.69 109.418C142.699 108.076 141.845 106.58 141.619 104.908C140.199 95.0846 141.531 85.0628 144.142 75.5485C142.119 73.0596 138.769 72.989 135.893 72.2785C132.76 71.6298 130.078 69.794 127.117 68.6775C126.232 68.298 125.246 68.3686 124.321 68.5098ZM88.6433 69.2777C86.5457 69.8955 84.8508 71.4047 82.7665 72.049C80.4564 72.6933 78.1597 73.4038 75.9204 74.2775C75.2212 74.5291 74.668 75.0321 74.1945 75.5882C76.863 83.4388 78.4473 91.7087 78.1951 100.027C78.4031 104.096 77.3454 108.354 74.5972 111.457C74.376 113.226 74.075 115.04 74.4601 116.814C73.8007 121.743 73.1944 126.734 73.6192 131.712C73.8184 134.66 73.6458 137.643 74.2344 140.556C74.5884 142.784 75.3363 144.929 75.5752 147.179C75.8939 149.103 77.2613 151.01 79.266 151.416C83.7754 152.395 88.3778 152.899 92.9802 153.168C96.1178 153.234 99.1846 153.94 102.296 154.258C100.72 154.717 99.0872 154.531 97.4852 154.372C97.6268 156.672 97.556 158.975 97.7109 161.274C100.875 161.724 104.088 161.733 107.283 161.888C107.911 154.518 107.65 147.118 107.792 139.73C107.951 125.6 108.013 111.47 107.885 97.344C107.832 94.0387 108.066 90.6363 106.982 87.4546C106.301 85.6056 105.871 83.6815 105.548 81.7442C105.672 80.6675 106.234 79.6746 106.247 78.5713C106.053 78.6419 105.659 78.7831 105.46 78.8538L105.69 79.5289C104.57 79.9305 105.066 78.4433 105.075 77.8785C103.061 76.6782 100.605 76.5943 98.5827 75.4028C95.7815 73.9686 94.83 70.7472 93.1395 68.3156C91.6216 68.5363 90.1126 68.8408 88.6433 69.2777ZM111.766 71.0473C112.452 72.0534 112.934 73.1743 113.186 74.3702C112.956 74.3702 112.501 74.3702 112.27 74.3702C112.142 73.6509 111.93 72.9492 111.669 72.2652C110.801 72.2564 109.938 72.252 109.071 72.2476C109.128 73.5009 109.199 74.7497 109.301 75.9986C110.053 75.8353 110.806 75.6632 111.553 75.4823L111.399 75.0542C111.708 75.2837 112.023 75.5176 112.337 75.7515C112.16 76.0118 111.806 76.5414 111.629 76.8017C112.301 76.1972 112.784 75.4293 113.204 74.6394C113.651 74.0128 114.058 73.2714 113.921 72.477C113.687 71.5062 112.554 71.3341 111.766 71.0473ZM71.7606 76.5149C71.1278 80.2262 69.1186 83.4829 67.1892 86.647C66.7289 87.3443 66.4501 88.1386 66.2466 88.9462C64.8924 91.06 63.4542 93.1208 61.9761 95.1508C60.467 97.2381 58.5287 99.1401 57.8118 101.678C57.3649 103.619 57.1436 105.609 56.5108 107.507C55.4266 110.031 52.7359 111.518 51.9084 114.193C49.9347 119.735 49.5806 125.666 48.1734 131.35C47.691 133.389 47.3326 135.459 46.8635 137.502C46.3103 140.264 44.5579 142.652 44.31 145.494C44.102 146.76 44.0666 148.578 45.5934 149.028C45.9518 148.261 46.2129 147.369 46.9962 146.919C46.6688 147.678 46.1997 148.366 45.6775 149.006C46.0669 149.165 46.8458 149.483 47.2308 149.642C47.6468 149.077 48.0804 148.521 48.4787 147.938C48.1335 148.658 48.138 149.461 48.1114 150.233C49.4479 150.564 49.293 149.02 49.7709 148.305C49.8152 148.583 49.9081 149.134 49.9524 149.412C49.74 149.633 49.3063 150.074 49.0894 150.295C50.51 150.952 51.8863 151.716 53.3555 152.259C54.0458 152.44 55.0194 152.568 55.4752 151.87C56.7143 149.88 57.4888 147.643 58.2101 145.432C59.1483 141.363 61.0556 137.594 63.1798 134.029L62.162 134.011C62.3921 133.768 62.6222 133.53 62.8523 133.292L63.5028 133.34C66.1536 129.969 66.9723 125.556 66.8307 121.359C64.8128 122.763 62.7682 120.918 61.4141 119.51C62.8921 120.212 64.1578 121.986 65.9324 121.62C67.4104 119.709 68.7292 117.661 70.4197 115.918C71.2428 114.987 72.3049 114.144 72.5881 112.873C72.8536 111.96 72.6235 111.002 72.5704 110.075C72.9067 108.985 72.7386 107.86 72.3713 106.801C73.0085 105.278 72.2341 103.663 72.4244 102.088C73.7343 104.131 73.9556 106.655 74.73 108.924C75.2301 108.412 75.6416 107.816 75.8806 107.136C77.4383 103.01 77.0931 98.5487 77.1153 94.2329C76.6329 87.9753 75.1814 81.8325 73.3183 75.853C72.8005 76.0736 72.2783 76.2942 71.7606 76.5149ZM145.023 75.7117C144.739 78.1036 143.872 80.3762 143.531 82.7592C142.336 89.7096 141.217 96.9468 143.022 103.897C143.235 105.539 144.173 106.916 144.806 108.403C144.686 107.075 145.602 106.051 146.173 104.943C146.456 104.188 147.209 103.827 147.872 103.474C146.434 105.918 145.558 108.822 145.793 111.677C146.182 111.871 146.629 111.854 146.917 111.483C148.917 109.811 149.691 107.203 151.368 105.256C151.678 105.592 151.992 105.927 152.307 106.267C151.116 106.832 150.483 107.984 149.868 109.074C149.178 110.305 147.629 110.742 147.049 112.048C146.908 112.728 146.209 112.525 145.708 112.613C145.549 114.899 147.359 116.381 149.266 117.158C151.245 117.886 151.948 120.004 153.329 121.417C155.028 120.437 156.59 119.241 158.263 118.222C158.241 118.381 158.206 118.703 158.188 118.862C156.825 120.177 155.112 121.072 153.497 122.039C153.409 123.804 153.13 125.569 153.236 127.343C153.316 128.98 153.988 130.507 154.564 132.025C156.29 132.286 158.029 132.489 159.781 132.493C159.294 132.74 158.812 132.987 158.33 133.239C157.06 133.058 155.785 132.903 154.519 132.705C155.219 134.148 155.944 135.587 156.856 136.915C158.719 139.624 160.193 142.634 160.949 145.847C161.388 148.406 163.047 150.538 164.777 152.387C166.875 152.263 168.672 150.869 170.694 150.374C170.322 149.787 169.787 149.231 169.822 148.494C170.296 149.077 170.787 149.659 171.309 150.202C171.734 150.021 172.579 149.651 173.004 149.47C172.464 148.64 172.694 147.669 172.876 146.773C173.23 147.652 173.261 148.6 173.239 149.54C173.942 148.971 175.164 148.772 175.372 147.753C175.659 144.977 174.65 142.321 173.849 139.713C172.863 136.204 172.234 132.603 171.221 129.1C169.791 124.267 169.995 119.038 167.968 114.369C167.176 112.335 164.923 111.505 163.786 109.709C162.122 108.041 162.401 105.548 161.569 103.504C160.759 101.152 158.812 99.4887 157.511 97.4323C156.09 95.2081 154.608 93.0237 153.032 90.9055C151.276 88.5578 150.116 85.8571 148.948 83.1873C148.142 80.9499 147.576 78.6243 146.523 76.4796C146.014 76.2281 145.518 75.9765 145.023 75.7117ZM111.704 79.6746C111.235 81.7222 111.053 83.8051 111.315 85.8968C110.868 86.9162 110.797 88.015 110.704 89.1094C110.226 88.4872 110.075 87.7017 109.779 86.9956C109.717 87.9444 109.168 89.7934 110.761 89.6125C110.655 89.9126 110.438 90.5128 110.328 90.8128C110.775 91.6028 110.452 92.2426 109.668 92.6486C109.566 91.8587 109.566 91.0555 109.381 90.2745C108.544 87.9003 109.407 85.3849 109.035 82.9357L109.708 82.8872C109.912 84.339 110.19 85.7821 110.487 87.2207C110.575 85.7071 110.828 84.1934 110.722 82.671C109.912 81.881 108.531 82.8033 107.495 82.4988C107.863 84.3082 108.018 86.1616 108.562 87.9312C108.597 90.3539 109.049 92.7457 109.062 95.1728C108.898 102.966 109.142 110.759 108.996 118.557C108.956 132.992 108.708 147.422 108.544 161.857C109.031 161.852 109.518 161.857 110.009 161.857C109.788 154.637 109.571 147.413 109.854 140.189C109.828 128.124 110.204 116.059 110.058 103.994C109.982 100.989 110.244 97.975 109.956 94.9831C110.367 94.9875 111.191 94.9963 111.602 95.0007C110.629 96.329 111.133 98.0457 110.983 99.5725C111.222 118.994 110.483 138.411 110.845 157.832C110.85 159.13 110.797 160.427 110.748 161.724C110.983 161.716 111.447 161.707 111.677 161.698C111.107 142.453 112.173 123.204 111.912 103.95C111.947 100.009 111.633 96.0642 111.841 92.1235C111.673 92.909 111.5 93.6901 111.319 94.4712C110.806 94.6124 110.288 94.7448 109.77 94.8639C109.589 94.127 109.474 93.3812 109.425 92.6221C110.487 93.037 111.372 92.7148 111.832 91.6866C111.465 90.954 110.876 90.27 110.85 89.4139C111.452 85.9409 112.266 82.4768 112.735 78.9729C112.381 79.1936 112.04 79.4318 111.704 79.6746ZM43.8409 154.748C46.536 156.155 49.4169 157.157 52.2536 158.251C52.6784 156.945 53.0457 155.626 53.3334 154.284C52.4085 153.962 51.5145 153.565 50.5941 153.23C50.4746 153.419 50.2312 153.79 50.1117 153.975C50.1913 153.746 50.3551 153.282 50.4347 153.053C49.8152 152.793 49.1956 152.528 48.5805 152.254C48.5672 152.978 48.5495 153.706 48.492 154.43C48.4699 153.706 48.4787 152.987 48.4964 152.268C47.7485 151.963 47.0007 151.659 46.2572 151.354C46.1731 151.866 46.3988 152.334 46.567 152.806L45.9032 151.76L45.6199 152.974C45.6819 152.215 45.735 151.456 45.7261 150.696C44.2614 151.407 44.3985 153.41 43.8409 154.748ZM174.965 152.395C175.385 152.484 175.606 152.29 175.624 151.809C175.456 151.553 175.119 151.041 174.951 150.785C174.292 150.992 174.726 151.981 174.965 152.395ZM166.18 154.064C166.503 155.339 166.848 156.614 167.264 157.868C169.189 157.607 170.92 156.694 172.708 155.996C173.787 155.524 174.956 155.14 175.823 154.311C175.797 153.839 175.743 152.894 175.717 152.422C175.412 152.969 175.208 153.56 175.013 154.152C174.69 153.11 174.487 152.042 174.358 150.961C171.699 152.17 168.889 152.982 166.18 154.064ZM78.434 152.819C78.5048 153.662 78.5978 154.505 78.6996 155.348C82.4478 156.548 86.4085 156.685 90.3073 156.875C92.3651 157.064 94.4273 157.104 96.4895 157.082C96.4674 156.341 96.4364 155.599 96.401 154.862C91.2676 154.575 86.1032 154.509 81.0229 153.627C80.1378 153.433 79.2926 153.097 78.434 152.819ZM122.059 154.876C122.108 155.599 122.17 156.327 122.245 157.051C124.281 157.047 126.321 157.073 128.352 156.91C132.326 156.68 136.424 156.839 140.217 155.445C140.363 154.695 140.425 153.931 140.425 153.168C134.331 153.993 128.211 154.664 122.059 154.876ZM79.2616 159.399C82.3593 160.48 85.7359 160.162 88.9664 160.396C91.4623 160.665 94.029 160.352 96.4674 161.054C96.4453 160.087 96.4408 159.116 96.4497 158.15C93.9803 158.499 91.5021 158.141 89.0239 158.154C86.0811 158.11 83.1161 157.881 80.275 157.073C79.5536 156.866 79.2439 156.094 78.7659 155.586C78.5137 156.8 77.7215 158.728 79.2616 159.399ZM136.84 157.634C131.95 158.181 127.02 158.203 122.108 158.468C122.166 159.319 122.227 160.171 122.276 161.027C125.454 160.568 128.666 160.674 131.857 160.405C134.574 160.162 137.433 160.365 139.982 159.227C140.894 158.574 140.137 157.298 140.141 156.398C139.079 156.897 138.039 157.545 136.84 157.634Z" fill="black"/>
</svg>
