<svg width="220" height="220" viewBox="0 0 220 220" fill="none" xmlns="http://www.w3.org/2000/svg">
<path d="M106.949 57.7598C108.479 56.4388 110.641 56.4482 112.548 56.5191C114.243 56.5311 116.01 56.8105 117.442 57.7758C117.755 57.9991 118 58.4363 118.444 58.3628C119.372 58.2973 120.366 58.4617 121.121 59.0406C121.72 59.5581 122.143 60.2426 122.719 60.7827C123.356 61.3857 123.801 62.1572 124.082 62.9834C124.315 63.545 124.323 64.1667 124.53 64.7336C125.186 65.1267 125.944 65.4101 126.403 66.0585C127.071 66.8019 127.193 67.8194 127.52 68.7218C128.232 69.0775 128.964 69.4639 129.484 70.0842C129.848 70.5161 129.758 71.107 129.784 71.6285C131.012 74.2303 131.675 77.0594 132.094 79.8951C132.456 82.8245 132.638 85.7779 132.582 88.73C132.585 91.1393 132.414 93.5432 132.392 95.9512C132.192 98.934 132.305 101.926 132.517 104.905C132.605 108.162 132.986 111.403 133.092 114.66C133.248 118.308 133.424 121.984 132.93 125.616C132.549 128.272 132.097 130.92 131.421 133.519C131.049 135.102 130.665 136.681 130.333 138.274C130.212 138.958 130.041 139.654 130.142 140.353C130.247 141.171 130.64 141.906 130.935 142.666C131.464 144.028 131.232 145.546 130.803 146.902C130.668 147.443 130.232 147.876 130.232 148.454C130.067 148.43 129.774 148.485 129.754 148.247C129.764 147.998 129.818 147.756 129.861 147.515C129.699 147.42 129.539 147.327 129.376 147.242C129.368 147.156 129.35 146.98 129.342 146.893C129.111 147.003 129.233 147.186 129.324 147.352C129.164 147.396 128.882 147.518 128.815 147.284C128.709 146.891 128.501 146.543 128.259 146.222C128.224 146.331 128.156 146.547 128.122 146.654C127.943 146.407 127.746 146.176 127.567 145.93C127.597 145.653 127.728 145.403 127.805 145.139C127.463 145.2 127.203 145.431 126.952 145.651C126.803 145.452 126.837 145.21 126.861 144.983C126.752 144.669 126.663 144.349 126.544 144.042C126.395 144.222 126.256 144.415 126.092 144.584C126.035 144.215 126.03 143.844 126.03 143.472C125.891 143.528 125.753 143.584 125.615 143.642C125.508 143.499 125.425 143.338 125.435 143.155C125.367 142.491 125.296 141.812 125.471 141.156C125.57 140.464 126.051 139.839 125.899 139.115C125.892 138.726 125.579 138.456 125.282 138.259C125.364 138.782 125.556 139.283 125.61 139.811C125.602 140.253 125.313 140.618 125.159 141.017C124.988 141.385 125 141.801 124.945 142.195C124.811 142.051 124.672 141.874 124.716 141.663C124.753 140.802 125.281 140.005 125.147 139.134C124.85 138.081 124.326 137.083 123.558 136.295C123.816 137.156 124.383 137.934 124.381 138.863C124.418 139.635 124.102 140.369 124.096 141.136C124.064 141.456 124.299 141.703 124.439 141.968C123.919 141.517 123.206 141.198 122.928 140.535C123.197 140.234 123.193 139.813 123.27 139.442C123.385 138.81 123.377 138.164 123.32 137.528C123.288 136.708 123.098 135.853 122.543 135.221C122.84 136.43 123.262 137.676 123.042 138.934C122.971 139.433 122.599 139.936 122.947 140.416C122.888 140.454 122.769 140.533 122.71 140.572C122.769 140.734 122.826 140.897 122.884 141.061C122.704 141.06 122.54 141.017 122.387 140.933C122.343 140.555 122.402 140.151 122.171 139.821C122.069 139.976 122.042 140.277 121.787 140.171C121.387 139.194 121.66 138.129 121.749 137.123C121.547 137.794 121.365 138.494 120.927 139.059C120.684 139.194 120.425 138.918 120.313 138.726C120.607 138.262 120.882 137.785 121.186 137.326C121.335 137.111 121.424 136.851 121.399 136.589C121.341 135.764 121.343 134.929 121.147 134.121C121.088 133.855 120.886 133.664 120.71 133.473C120.9 133.913 121.142 134.356 121.138 134.85C121.028 135.462 120.789 136.049 120.421 136.552C120.14 136.994 119.804 137.465 119.87 138.02C119.644 137.908 119.359 137.786 119.293 137.516C119.348 137.252 119.485 136.997 119.39 136.726C119.242 136.803 119.095 136.883 118.949 136.968C118.939 137.064 118.915 137.258 118.904 137.355C118.679 137.195 118.426 137.022 118.381 136.728C118.396 135.969 118.738 135.268 118.832 134.522C118.524 135.101 118.215 135.709 118.163 136.375C117.956 136.222 117.697 136.053 117.68 135.767C117.663 135.508 117.681 135.244 117.609 134.992C117.474 135.165 117.354 135.347 117.232 135.533C116.991 135.074 116.848 134.569 116.773 134.058C116.944 133.386 117.335 132.743 117.197 132.021C116.824 132.658 116.711 133.403 116.499 134.102C116.566 134.172 116.698 134.314 116.764 134.383C116.54 134.487 116.298 134.513 116.055 134.502C116.051 134.191 116.071 133.88 116.04 133.573C115.437 132.811 116.184 131.954 116.188 131.138C115.891 131.741 115.407 132.205 114.923 132.657C114.708 132.489 114.381 132.372 114.345 132.063C114.271 131.559 114.39 131.049 114.342 130.541C114.401 130.785 114.431 131.031 114.476 131.281C114.706 130.859 114.992 130.427 114.956 129.923C114.86 129.974 114.667 130.075 114.571 130.126C115.042 129.439 114.9 128.574 114.618 127.843C114.556 128.603 114.758 129.495 114.226 130.13C113.937 130.451 114.132 130.899 114.116 131.284C113.954 131.388 113.794 131.498 113.623 131.588C113.213 131.511 113.113 131.014 113.332 130.706C113.376 130.938 113.475 131.141 113.625 131.319C113.651 131.001 113.624 130.682 113.593 130.367C113.339 130.575 112.922 131.006 112.654 130.571C112.667 129.855 112.559 129.125 112.722 128.422C112.923 127.954 113.236 127.532 113.318 127.018C113.399 127.233 113.489 127.447 113.587 127.658C113.542 126.742 113.38 125.837 113.245 124.932C113.607 125.245 114.037 125.63 113.991 126.159C113.958 126.633 114.148 127.072 114.362 127.483C114.444 127.06 114.655 126.571 114.376 126.179C114.011 125.634 113.631 125.034 112.999 124.771C112.958 125.479 113.252 126.154 113.244 126.853C113.013 127.524 112.764 128.192 112.456 128.833C112.478 129.037 112.613 129.308 112.362 129.428C112.062 129.792 111.683 129.434 111.367 129.304C111.104 129.23 111.073 128.915 110.908 128.732C110.431 128.141 110.518 127.298 110.756 126.627C110.951 126.047 111.443 125.661 111.827 125.211C111.933 124.562 111.825 123.892 111.802 123.235C111.77 122.543 111.46 121.917 111.276 121.263C111.156 120.103 111.457 118.958 111.6 117.814C111.908 115.871 112.116 113.915 112.459 111.978C113.53 106.632 114.304 101.224 115.665 95.9405C116.521 92.4255 117.337 88.8865 118.595 85.4891C118.215 85.7926 117.863 86.1322 117.451 86.3916C116.313 87.1751 115.133 87.9613 113.776 88.3035C112.947 88.5602 112.072 88.5094 111.216 88.5402C110.284 88.5362 109.349 88.5402 108.416 88.4907C107.101 88.3222 105.805 87.9679 104.602 87.4077C105.075 89.4226 105.39 91.4709 105.566 93.5339C105.896 97.002 106.143 100.48 106.212 103.964C106.242 106.016 106.329 108.068 106.254 110.121C106.288 113.914 105.824 117.688 105.782 121.478C105.714 124.644 105.64 127.812 105.452 130.975C105.366 132.938 105.215 134.903 104.866 136.839C104.315 139.651 103.733 142.457 103.128 145.258C102.738 147.319 102.208 149.351 101.903 151.426C101.762 152.375 101.535 153.33 101.584 154.294C101.97 155.433 102.343 156.613 102.263 157.831C102.201 158.368 102.023 158.928 102.249 159.452C102.538 160.266 102.798 161.153 102.54 162.012C102.358 162.606 102.205 163.304 101.718 163.718C101.162 163.574 100.653 163.146 100.251 162.728C100.101 162.737 99.9511 162.749 99.8012 162.761C99.7558 162.194 99.6193 161.621 99.733 161.055C99.8414 160.365 100.176 159.73 100.62 159.198C100.255 159.317 99.9805 159.711 99.5859 159.691C99.2876 159.443 99.0856 159.106 98.8608 158.795C98.8622 158.939 98.8635 159.223 98.8635 159.366C98.6174 159.182 98.4113 158.956 98.1772 158.759C98.113 158.738 97.9846 158.697 97.9204 158.676C97.5258 158.571 98.014 157.916 97.7024 157.827C97.6221 157.861 97.4629 157.926 97.384 157.96C97.3639 157.874 97.3452 157.79 97.3265 157.707C97.388 157.676 97.5111 157.616 97.5726 157.585C97.6636 157.358 97.5499 157.13 97.5097 156.909C97.4134 157.101 97.3198 157.293 97.2221 157.487C97.1365 157.064 96.9974 156.658 96.8743 156.246C96.9158 156.039 96.984 155.839 97.0469 155.64C96.8556 155.658 96.6643 155.672 96.4716 155.684C96.3499 155.838 96.2228 155.992 96.0877 156.137C95.9232 155.589 95.5058 155.115 95.5312 154.518C95.4951 153.85 95.6998 153.204 95.9954 152.616C96.3071 152.02 95.9941 151.355 95.8991 150.743C95.7292 150.109 95.8657 149.446 95.7586 148.808C95.5834 148.407 95.2677 148.087 95.059 147.705C95.2329 148.562 95.451 149.43 95.4082 150.312C95.2329 150.046 95.1393 149.74 95.0804 149.431C95.0884 149.69 95.0577 149.951 95.0777 150.213C95.1312 150.359 95.3667 150.502 95.2316 150.668C95.0817 150.776 94.9185 150.866 94.762 150.963C94.6309 150.736 94.4784 150.521 94.3166 150.318C94.2483 150.596 94.1908 150.878 94.132 151.161C93.7159 151.046 93.5554 150.66 93.6424 150.257C93.5848 150.265 93.4685 150.283 93.4096 150.291C93.3828 150.029 93.3494 149.769 93.3026 149.513C93.2491 149.546 93.1407 149.612 93.0859 149.645C92.7314 148.344 93.0645 147.003 93.0925 145.685C93.0992 145.122 93.3293 144.539 93.0738 143.998C92.8477 144.841 92.817 145.754 92.9253 146.619C92.7969 146.968 92.6872 147.341 92.4384 147.627C92.2498 147.705 92.0585 147.579 91.9715 147.416C91.7428 147.077 91.704 146.662 91.6344 146.272C91.5221 146.428 91.403 146.579 91.2786 146.73C91.2371 146.291 91.1622 145.855 91.1261 145.416C91.1555 144.726 91.4177 144.048 91.2826 143.352C90.987 143.8 90.999 144.363 90.9335 144.877C90.9308 145.232 90.8171 145.646 91.0846 145.939C91.0806 146.085 91.0699 146.379 91.0646 146.524C90.9415 146.328 90.8478 146.121 90.7689 145.905C90.603 145.831 90.2766 145.829 90.4171 145.565C90.6418 144.79 90.4599 143.936 90.8371 143.203C91.1181 142.6 91.0967 141.917 91.1288 141.269C91.1221 140.805 91.2144 140.294 90.9321 139.889C90.8693 140.659 90.9696 141.443 90.805 142.203C90.6231 142.797 90.4211 143.408 89.985 143.869C90.1977 143.772 90.4131 143.679 90.6298 143.591C90.4358 143.881 90.1723 144.114 89.9155 144.348C89.8245 144.154 89.6399 143.952 89.7482 143.725C89.9342 143.408 90.2044 143.138 90.3074 142.774C90.0064 142.983 89.7308 143.229 89.4138 143.417C89.3095 143.194 89.0767 142.999 89.1008 142.737C89.2667 142.378 89.5275 142.048 89.5101 141.631C88.8921 141.905 89.0847 142.665 88.777 143.157C88.5523 142.828 88.7142 142.439 88.7249 142.078C88.6138 141.846 88.4506 141.644 88.361 141.405C88.3757 141.102 88.5536 140.854 88.6727 140.59C88.7235 140.331 88.6834 140.067 88.6767 139.809C88.5242 139.954 88.3757 140.104 88.2246 140.253C88.1149 139.997 88.0052 139.743 87.8955 139.489C87.7978 139.624 87.7015 139.762 87.6052 139.901C87.5958 139.814 87.5744 139.642 87.5637 139.555C86.8775 138.886 86.844 137.843 87.0714 136.969C87.2253 136.167 87.854 135.586 88.1604 134.852C88.0252 134.068 87.6681 133.342 87.4928 132.566C87.2186 131.486 87.3082 130.351 87.5517 129.276C88.258 125.936 88.4627 122.52 89.0111 119.156C89.7121 115.41 90.195 111.629 90.7649 107.862C91.0686 105.274 91.4164 102.691 91.7521 100.107C92.1628 96.4057 92.5695 92.7036 93.0939 89.0175C93.6129 85.9705 94.128 82.9101 95.0537 79.9553C95.4362 78.5862 96.0797 77.3107 96.6937 76.0352C96.3887 75.2517 95.9058 74.4923 95.9459 73.6206C96.1292 72.0095 96.8248 70.3677 98.1973 69.4224C98.3859 68.8368 98.1398 68.1924 98.3498 67.6054C98.6521 66.5452 99.5297 65.7925 99.9257 64.7764C100.31 63.8231 100.873 62.9554 101.429 62.0943C102.09 61.0849 103.036 60.3201 103.966 59.5728C104.911 58.8922 105.976 58.3989 106.949 57.7598ZM112.033 57.1675C110.833 57.1996 109.604 57.2771 108.487 57.7518C107.878 58.0232 107.211 58.2117 106.72 58.6863C105.401 59.7345 104.812 61.4245 104.6 63.0436C104.297 65.1333 104.447 67.2618 104.697 69.3489C104.74 70.004 105.116 70.5562 105.44 71.1044C106.242 72.4053 106.745 73.8653 107.54 75.1702C107.888 75.7545 108.478 76.181 109.144 76.3213C109.918 76.4697 110.712 76.4644 111.494 76.546C112.027 76.6034 112.57 76.6569 113.1 76.5419C113.754 76.435 114.324 76.0165 114.699 75.4804C115.116 74.9001 115.736 74.4549 115.968 73.7556C116.211 73.1045 116.447 72.4507 116.74 71.821C117.4 70.3824 117.935 68.8916 118.555 67.4356C119.123 66.0412 119.768 64.6614 120.105 63.1867C120.194 62.6184 119.78 62.2013 119.486 61.7761C118.908 60.6892 118.438 59.4698 117.42 58.705C115.882 57.5673 113.918 57.1461 112.033 57.1675ZM118.646 59.0112C118.913 59.4377 119.293 59.7746 119.613 60.1597C120.186 60.8777 120.741 61.6972 120.743 62.6532C120.624 63.5236 120.393 64.3779 120.099 65.2055C119.491 67.0412 118.706 68.8087 117.976 70.5976C117.343 72.0804 116.65 73.5404 116.154 75.0766C116.075 75.0726 115.917 75.0659 115.838 75.0619C115.617 75.3159 115.402 75.578 115.241 75.8761C115.562 75.7264 115.898 75.5071 115.926 75.114L116.128 75.0766L116.109 75.3346C117.046 74.6514 117.72 73.6955 118.505 72.8585C119.17 72.059 119.901 71.3129 120.535 70.4867C121.058 69.8369 121.396 69.036 122.038 68.4879C121.533 69.9559 120.59 71.2073 119.736 72.4855C119.011 73.4936 118.261 74.487 117.403 75.3868C116.721 76.0432 116.006 76.6663 115.348 77.3482C114.279 78.4806 112.948 79.3122 111.738 80.2802C111.076 80.8337 110.249 81.1599 109.41 81.3324C108.42 81.5811 107.433 81.9635 106.395 81.8726C105.195 81.7696 104.051 81.3485 102.94 80.9072C104.732 81.2188 106.582 81.8886 108.392 81.2816C107.668 81.0851 106.973 80.8043 106.277 80.5262C104.76 79.8737 103.214 79.2627 101.8 78.3977C101.174 78.0501 100.446 77.788 100.023 77.1743C99.3973 76.2772 98.826 75.3253 98.5023 74.2731C98.3886 73.8559 98.0796 73.511 98.0408 73.0724C97.9538 72.2395 98.1572 71.4052 98.0569 70.5709C97.5619 71.083 97.2917 71.7555 97.0188 72.3999C96.8516 72.9173 96.6723 73.4642 96.7245 74.0137C96.98 74.7156 97.3559 75.3681 97.7331 76.0112C98.0328 76.4176 98.3752 76.792 98.6455 77.2211C99.4106 78.3522 100.298 79.3951 101.237 80.3845C101.817 80.9901 102.344 81.6627 103.043 82.144C101.93 81.9381 101.243 80.954 100.512 80.1879C99.4722 79.0515 98.4341 77.9084 97.4763 76.701C97.7144 77.2506 97.7987 77.8482 97.9913 78.4137C98.7498 80.319 100.05 81.9301 101.202 83.6066C101.841 84.4717 102.489 85.3942 103.459 85.917C104.988 86.8248 106.692 87.4866 108.476 87.631C110.229 87.7767 112.021 87.8222 113.747 87.4265C115.069 87.1056 116.199 86.3167 117.312 85.5734C117.84 85.2151 118.433 84.9289 118.865 84.4476C119.311 83.8968 119.551 83.2203 119.863 82.5932C118.662 83.1253 117.423 83.5772 116.158 83.9369C114.503 84.4182 112.86 84.9664 111.159 85.2712C110.286 85.3862 109.41 85.4905 108.551 85.6843C109.715 85.2512 110.955 85.1054 112.144 84.7605C113.603 84.4088 114.996 83.85 116.41 83.3606C118.145 82.8178 119.761 81.9595 121.323 81.0396C122.021 80.6586 122.636 80.1505 123.274 79.6799C124.387 78.8215 125.179 77.6463 126.141 76.6382C127.156 75.5592 128.085 74.3707 128.693 73.0109C129.039 72.2676 129.237 71.3945 128.906 70.6083C128.72 70.1671 128.233 70.0134 127.804 69.9278C127.544 70.7808 127.122 71.575 126.655 72.3304C125.92 73.527 124.833 74.4415 123.804 75.3747C122.845 76.185 121.935 77.0674 120.88 77.7573C122.302 76.1943 124.002 74.9228 125.483 73.4214C126.236 72.6433 126.781 71.6793 127.174 70.6765C127.399 70.1738 127.353 69.5227 126.961 69.1163C126.764 69.0173 126.632 69.1751 126.509 69.3034C126.381 69.3034 126.253 69.3021 126.126 69.3021C126.431 68.0894 126.156 66.4155 124.854 65.9101C124.807 66.5479 124.822 67.1977 124.645 67.818C124.133 69.5026 123.396 71.107 122.571 72.6593C121.559 74.5137 120.365 76.2852 118.904 77.8161C117.775 78.9285 116.559 79.954 115.245 80.8444C114.187 81.5945 113.146 82.4394 111.885 82.8218C112.512 82.3352 113.173 81.8926 113.837 81.4554C114.816 80.7963 115.751 80.0743 116.698 79.3697C117.494 78.7453 118.186 78.0019 118.905 77.2933C121.221 74.6274 123.044 71.4921 123.963 68.068C124.421 66.3941 124.081 64.6039 123.397 63.0409C122.976 62.085 122.172 61.3844 121.602 60.526C121.319 60.1223 121.042 59.673 120.573 59.4631C119.974 59.1797 119.319 58.9484 118.646 59.0112ZM102.178 62.0542C101.184 63.2562 100.463 64.7082 100.227 66.2564C100.149 67.1455 100.382 68.0253 100.6 68.8796C101.398 71.6566 102.689 74.253 103.713 76.9484C104.067 77.7452 104.268 78.6491 104.851 79.3176C105.96 79.8189 107.124 80.1893 108.261 80.6198C108.694 80.7722 109.144 80.9326 109.609 80.8939C109.989 80.8578 110.337 80.6907 110.684 80.5436C109.981 80.3965 109.283 80.1946 108.662 79.8243C107.385 79.0769 106.495 77.8215 105.908 76.4871C105.232 75.237 104.807 73.872 104.439 72.5055C104.269 72.4186 104.121 72.293 104.01 72.1379C103.341 71.2742 102.964 70.2326 102.608 69.2125C102.323 68.2472 102.023 67.2672 101.962 66.2591C102.145 65.1561 102.75 64.1841 103.243 63.1987C103.386 62.8631 103.673 62.6398 104.015 62.5262C104.269 61.5328 104.552 60.5381 105.05 59.6356C103.909 60.1945 103.044 61.1504 102.178 62.0542ZM102.849 64.5758C102.601 65.1601 102.22 65.731 102.276 66.3941C102.338 67.5894 102.711 68.7446 103.111 69.865C103.496 70.7674 103.776 71.7622 104.451 72.4989C104.424 71.214 104.085 69.9639 104.019 68.6831C103.876 67.4811 103.75 66.2738 103.808 65.0611C103.773 64.3245 103.964 63.6038 103.95 62.8698C103.499 63.3805 103.113 63.9474 102.849 64.5758ZM98.9558 68.1429C98.921 69.0334 98.8354 69.9198 98.8662 70.8116C98.8889 71.6779 98.6789 72.5376 98.7538 73.4027C99.0896 74.7571 99.7397 76.0352 100.612 77.1235C100.968 77.5835 101.582 77.6583 102.047 77.9632C102.744 78.4204 103.523 78.7386 104.212 79.2106C103.679 77.9699 103.115 76.7425 102.644 75.4764C101.479 72.5991 100.03 69.7473 99.7544 66.608C99.3424 67.0198 98.9665 67.5373 98.9558 68.1429ZM105.145 72.5697C105.285 73.0591 105.42 73.5551 105.648 74.0123C105.707 74.1835 105.846 74.2918 106.008 74.3626C105.85 73.7436 105.529 73.1847 105.242 72.6205C105.218 72.6072 105.17 72.5818 105.145 72.5697ZM129.503 72.8465C129.199 73.8011 128.711 74.6822 128.15 75.5098C128.213 76.2291 128.391 76.931 128.524 77.641C129.358 81.3124 129.527 85.0974 129.499 88.8504C129.489 92.2463 129.113 95.6249 129.033 99.0182C128.948 100.834 129.001 102.652 128.917 104.469C128.891 104.468 128.843 104.465 128.819 104.464C128.533 100.469 128.792 96.4646 129.059 92.4776C129.208 87.9613 129.211 83.4074 128.431 78.9432C128.257 77.891 127.926 76.8668 127.816 75.8039C127.156 76.7291 126.259 77.4618 125.629 78.4071C125.25 79.3938 125.152 80.4594 124.992 81.4982C124.591 84.4409 124.236 87.3917 123.793 90.3291C123.458 93.1368 123.143 95.9485 122.824 98.7602C122.527 101.41 122.51 104.083 122.25 106.735C122.07 106.571 122.105 106.321 122.096 106.103C122.137 102.889 122.304 99.676 122.666 96.4806C123.131 92.2838 123.67 88.0936 124.254 83.9115C124.429 82.3445 124.704 80.7896 124.851 79.22C124.377 79.7253 123.876 80.2053 123.38 80.688C123.175 80.8551 123.181 81.1399 123.115 81.3739C122.398 84.9998 121.385 88.5602 120.726 92.1982C119.997 96.2881 119.105 100.359 118.738 104.504C118.648 105.33 118.616 106.162 118.481 106.983C118.238 105.404 118.499 103.805 118.662 102.231C119.249 98.0556 119.975 93.8989 120.842 89.7715C121.53 86.8636 122.148 83.9396 122.81 81.0262C122.329 81.418 121.788 81.7255 121.232 81.9956C120.608 82.2616 120.476 82.9916 120.186 83.5304C119.355 85.1723 118.8 86.9358 118.365 88.7207C117.775 90.8291 117.212 92.9456 116.749 95.0861C115.841 98.68 115.073 102.307 114.411 105.955C113.936 108.959 113.283 111.932 112.849 114.943C112.638 116.427 112.317 117.894 112.126 119.381C112.792 120.732 113.75 121.926 114.708 123.084C116.654 125.322 118.623 127.54 120.512 129.828C121.981 131.656 123.66 133.296 125.294 134.973C126.946 136.595 128.54 138.321 129.655 140.366C129.432 139.408 129.781 138.466 129.938 137.528C130.568 134.459 131.285 131.407 131.804 128.316C132.356 125.451 132.662 122.531 132.598 119.611C132.53 115.768 132.196 111.938 131.893 108.11C131.793 106.461 131.75 104.811 131.715 103.162C131.71 101.645 131.614 100.131 131.707 98.6158C131.706 96.4311 131.738 94.2478 131.796 92.0632C131.971 88.8089 131.854 85.544 131.578 82.2991C131.315 79.0729 130.644 75.8775 129.503 72.8465ZM106.042 75.5913C106.47 76.5473 106.818 77.5688 107.527 78.3629C108.166 79.0609 108.957 79.6224 109.827 79.9914C110.215 80.1545 110.697 80.2508 111.077 80.0195C112.721 79.0074 114.242 77.7867 115.534 76.3481C114.314 76.943 113.007 77.4859 111.621 77.4056C110.325 77.2867 108.981 77.3254 107.762 76.7986C107.078 76.574 106.569 76.0539 106.042 75.5913ZM95.0363 82.9876C94.3848 85.8314 93.8658 88.7086 93.5246 91.6059C92.9334 96.5648 92.3943 101.532 91.7481 106.484C91.4405 109.361 90.983 112.22 90.5495 115.08C90.2726 117.437 89.771 119.756 89.3884 122.095C89.1703 123.739 88.9015 125.376 88.7128 127.023C88.6326 127.797 88.3543 128.606 88.6647 129.365C89.4098 131.362 90.5134 133.196 91.4217 135.117C92.2163 136.706 92.9655 138.315 93.6919 139.934C94.9921 142.583 96.4783 145.133 97.9191 147.704C98.4916 148.689 99.1163 149.642 99.6568 150.645C100.193 151.641 100.835 152.605 101.11 153.718C101.392 150.562 102.021 147.455 102.568 144.338C103.136 141.175 103.837 138.033 104.291 134.85C104.562 132.185 104.744 129.51 104.774 126.832C104.918 124.112 104.816 121.384 105.022 118.667C105.14 117.197 105.235 115.725 105.339 114.255C105.551 110.922 105.551 107.579 105.493 104.239C105.366 101.826 105.267 99.41 105.06 97.002C104.865 93.6849 104.581 90.3652 103.911 87.1056C103.389 86.8007 102.861 86.5066 102.331 86.2165C101.155 85.4036 100.699 83.9596 99.7183 82.9662C99.6153 84.9289 99.4561 86.8957 99.5631 88.8624C99.6675 90.1954 99.7451 91.5324 99.935 92.8573C100.716 97.736 101.623 102.617 101.753 107.57C101.836 111.432 101.881 115.298 101.749 119.159C101.732 119.161 101.695 119.167 101.678 119.169C101.646 118.782 101.602 118.397 101.572 118.01C101.427 113.321 101.376 108.629 101.099 103.946C100.901 104.971 100.853 106.019 100.631 107.039C100.033 110.151 99.3277 113.26 98.1625 116.216C97.9164 116.834 97.6997 117.473 97.3171 118.025C97.4749 116.953 97.998 115.975 98.303 114.942C99.1926 112.3 99.7798 109.57 100.267 106.829C100.525 105.176 100.814 103.509 100.712 101.831C100.538 99.4514 100.088 97.105 99.7491 94.7465C99.6715 94.2492 99.6661 93.7357 99.4882 93.2584C99.2474 94.1756 99.1899 95.1289 98.9933 96.0554C98.3578 100.112 97.2248 104.064 96.4329 108.088C95.7426 111.422 94.8998 114.721 94.0183 118.009C93.7788 118.81 93.6036 119.636 93.2624 120.404C93.34 119.401 93.6597 118.435 93.8805 117.459C95.0443 113.182 95.9245 108.837 96.8596 104.507C97.8923 100.506 98.624 96.4378 99.222 92.352C99.3959 91.1874 99.1244 90.0229 99.1324 88.857C99.0066 86.7606 99.1605 84.6602 99.4534 82.5838C99.2019 81.8378 98.5853 81.2682 98.2267 80.5676C98.1023 81.1573 97.9164 81.7322 97.8013 82.3245C97.2877 84.7859 96.6656 87.2232 96.0891 89.6713C96.0195 89.9561 95.9232 90.2341 95.7961 90.4975C95.7854 89.4948 96.0957 88.5255 96.275 87.5481C96.7994 85.2244 97.3131 82.8994 97.8254 80.5757C98.0167 80.0609 97.5351 79.6892 97.3813 79.244C97.1793 78.6664 97.0348 78.0701 96.8422 77.4885C95.8309 79.1638 95.5232 81.1225 95.0363 82.9876ZM111.944 119.629C111.807 120.333 111.699 121.097 112.007 121.774C112.871 123.685 114.445 125.115 115.738 126.728C117.961 129.103 119.835 131.795 122.212 134.032C123.007 134.887 123.851 135.693 124.728 136.465C125.837 137.678 126.984 138.859 127.988 140.163C128.434 140.742 128.98 141.249 129.318 141.906C129.461 142.257 129.864 142.329 130.119 142.57C130.541 142.929 130.747 143.459 130.984 143.945C130.877 143.161 130.486 142.461 130.176 141.745C129.194 139.936 128.003 138.232 126.593 136.731C125.211 135.26 123.747 133.87 122.378 132.387C121.289 131.284 120.335 130.059 119.328 128.883C118.032 127.373 116.693 125.904 115.431 124.365C114.627 123.388 113.732 122.477 113.054 121.402C112.665 120.823 112.274 120.243 111.944 119.629ZM112.35 123.199C112.266 123.918 112.371 124.642 112.312 125.362C112.254 126.332 112.498 127.371 112.007 128.266C111.851 128.482 111.731 128.721 111.77 128.998C112.076 128.428 112.52 127.9 112.586 127.233C112.663 126.431 112.55 125.627 112.53 124.825C112.516 124.279 112.494 123.729 112.35 123.199ZM111.287 127.075C111.177 127.534 110.975 128.129 111.357 128.516C111.588 128.075 111.544 127.563 111.659 127.091C111.728 126.663 111.936 126.278 112.037 125.861C111.542 126.052 111.419 126.619 111.287 127.075ZM111.771 127.958C112.045 127.437 112.242 126.851 112.181 126.257C111.833 126.741 111.842 127.385 111.771 127.958ZM113.843 127.114C113.969 127.689 113.938 128.289 113.754 128.849C113.652 129.218 113.414 129.609 113.587 129.995C113.736 129.9 113.886 129.789 113.968 129.629C114.401 128.849 114.357 127.845 113.843 127.114ZM114.765 127.23C114.813 127.665 115.082 128.023 115.224 128.428C115.451 129.074 115.438 129.777 115.363 130.45C115.291 131.067 114.875 131.571 114.766 132.177C115.314 131.817 115.857 131.279 115.849 130.577C115.901 129.399 115.834 127.974 114.765 127.23ZM112.91 130.336C113.241 130.152 113.166 129.748 113.233 129.432C113.32 128.951 113.573 128.504 113.554 128.004C113.035 128.661 113.003 129.539 112.91 130.336ZM116.079 128.174C116.33 129.312 116.317 130.484 116.372 131.641C116.325 132.053 116.079 132.404 115.953 132.793C115.89 132.949 115.869 133.16 116.055 133.24C116.085 133.237 116.15 133.233 116.182 133.231C116.344 132.701 116.544 132.177 116.61 131.625C116.667 130.463 116.313 129.333 116.249 128.182C116.206 128.181 116.122 128.177 116.079 128.174ZM116.631 129.069C117.13 129.987 117.517 130.993 117.502 132.054C117.649 132.951 117.301 133.816 117.281 134.707C117.6 134.33 117.859 133.884 117.907 133.384C118.034 132.396 117.862 131.392 117.62 130.435C117.493 129.865 117.073 129.423 116.631 129.069ZM88.3383 129.486C88.2018 130.107 88.0627 130.748 88.1416 131.388C88.254 132.049 88.5242 132.672 88.8346 133.264C89.1703 133.897 89.3857 134.586 89.7522 135.205C90.4439 136.52 90.9335 137.929 91.514 139.294C93.1541 142.214 94.4115 145.355 96.3379 148.111C96.9251 149.176 97.5164 150.239 98.117 151.296C98.4889 151.864 98.8769 152.426 99.1779 153.037C99.4374 153.568 99.8588 153.998 100.122 154.528C100.604 155.522 101.266 156.44 101.515 157.536L101.227 157.347C101.182 157.813 101.39 158.36 101.036 158.742C100.809 158.102 100.901 157.409 100.71 156.761C100.7 157.48 100.698 158.199 100.718 158.918C100.945 158.897 101.115 158.758 101.259 158.592C101.369 158.293 101.492 157.997 101.552 157.684C101.809 156.706 101.591 155.662 101.211 154.743C100.823 153.774 100.49 152.778 99.9658 151.87C99.2742 150.68 98.6535 149.451 97.9217 148.285C96.7098 146.146 95.5031 144.006 94.3366 141.841C93.5594 140.464 92.9641 138.996 92.2605 137.583C91.312 135.463 90.2352 133.409 89.181 131.342C88.8613 130.74 88.6633 130.083 88.3383 129.486ZM118.715 131.328C118.871 132.046 119.007 132.773 119.018 133.511C118.975 134.55 119.107 135.586 119.06 136.627C119.325 136.369 119.301 136.001 119.34 135.667C119.509 134.767 119.238 133.868 119.178 132.971C119.082 132.414 119.225 131.72 118.715 131.328ZM118.37 131.878C118.309 132.463 118.448 133.052 118.356 133.636C118.309 134.061 118.108 134.445 117.992 134.851C118.452 134.402 118.541 133.719 118.543 133.106C118.537 132.693 118.57 132.255 118.37 131.878ZM119.696 134.201C119.85 135.033 119.656 135.875 119.735 136.712C119.899 136.607 120.05 136.482 120.199 136.358C120.375 135.783 120.714 135.22 120.623 134.598C120.599 134.187 120.379 133.83 120.124 133.522C120.236 133.874 120.371 134.224 120.392 134.597C120.434 135.168 120.203 135.708 120.121 136.266C119.933 136.351 119.721 136.14 119.864 135.929C119.954 134.838 120.017 133.667 119.515 132.658C119.439 133.176 119.649 133.687 119.696 134.201ZM88.8265 134.898C88.7998 134.239 88.6633 133.58 88.3811 132.982C88.3851 133.644 88.6112 134.279 88.8265 134.898ZM121.563 134.311C121.832 135.24 122.042 136.188 122.203 137.141C122.18 137.954 121.982 138.769 122.141 139.583C122.86 138.882 122.718 137.723 122.476 136.839C122.169 135.998 122.1 135.05 121.563 134.311ZM88.6005 136.306C88.7329 137.337 88.6018 138.377 88.4159 139.393C88.6794 138.87 88.7556 138.285 88.8988 137.723C89.0326 137.207 88.8292 136.692 88.8011 136.177C88.7797 135.796 88.7717 135.413 88.6674 135.044C88.4386 135.425 88.6018 135.889 88.6005 136.306ZM87.9035 136.387C87.842 136.608 87.549 136.708 87.5784 136.964C87.5958 137.617 87.5196 138.286 87.6293 138.93C87.6774 138.242 87.6346 137.548 87.6105 136.859C87.6761 136.861 87.8085 136.865 87.8741 136.866C87.9022 137.453 87.7042 138.141 88.1925 138.595C88.3369 138.255 88.4346 137.891 88.3757 137.521C88.2955 136.89 88.3022 136.256 88.3022 135.623C88.1416 135.862 88.0239 136.125 87.9035 136.387ZM89.9074 137.835C90.278 138.523 90.0559 139.338 90.3301 140.053C90.2592 140.261 90.187 140.471 90.1241 140.683C89.886 141.405 90.0613 142.282 89.4392 142.837C89.8098 142.598 90.3315 142.432 90.4064 141.933C90.5121 141.233 90.6017 140.492 90.3502 139.813C90.4505 139.335 90.4291 138.838 90.2726 138.377C89.9864 137.481 89.6787 136.581 89.1837 135.776C89.3429 136.486 89.5529 137.194 89.9074 137.835ZM118.885 136.481C118.963 136.567 118.963 136.567 118.885 136.481V136.481ZM123.581 137.365C123.631 137.906 123.765 138.448 123.694 138.996C123.621 139.678 123.381 140.417 123.739 141.06C124.03 139.866 124.193 138.49 123.581 137.365ZM89.3362 137.886C89.28 138.208 89.4018 138.605 89.1436 138.862C89.0152 138.993 89.0566 139.192 89.0606 139.359C89.1275 139.18 89.1891 139 89.2653 138.826C89.4165 139.306 89.4606 139.842 89.7549 140.266C89.8245 139.45 89.7081 138.619 89.3362 137.886ZM126.308 139.109C126.344 139.194 126.417 139.361 126.453 139.444C127.578 140.848 127.662 142.849 127.159 144.515C127.468 144.178 127.507 143.699 127.528 143.265C127.543 142.471 127.492 141.675 127.506 140.88C127.568 140.902 127.693 140.948 127.756 140.971C127.322 140.315 126.914 139.624 126.308 139.109ZM126.299 139.889C126.101 140.701 125.721 141.497 125.863 142.356C125.942 142.682 125.824 143.153 126.17 143.345C126.152 143.055 126.05 142.757 126.177 142.479C126.397 141.858 126.387 141.198 126.422 140.551C126.73 141.497 126.692 142.516 126.558 143.491C126.684 143.496 126.811 143.5 126.938 143.507C127.047 142.484 126.958 141.406 126.454 140.492C126.402 140.289 126.352 140.089 126.299 139.889ZM88.876 141.664C89.371 141.647 89.7108 141.004 89.5181 140.563C89.379 140.898 89.3991 141.437 88.9724 141.554C89.0499 141.246 89.1369 140.941 89.2212 140.638C88.9897 140.921 88.65 141.274 88.876 141.664ZM91.5943 140.703C91.7067 141.156 91.7107 141.63 91.8177 142.08C92.4397 143.399 92.3193 144.931 91.9836 146.307C92.3595 146.329 92.4371 145.843 92.425 145.556C92.3969 144.749 92.6591 143.948 92.4999 143.145C92.3702 142.274 91.9261 141.504 91.5943 140.703ZM128.136 143.12C127.887 143.673 127.678 144.249 127.539 144.839C128.229 144.531 128.382 143.679 128.497 143.008C128.627 142.39 128.162 141.908 127.864 141.426C128.026 141.976 128.134 142.544 128.136 143.12ZM91.5247 142.936C91.5983 143.235 91.7722 143.51 91.795 143.824C91.8204 144.142 91.6451 144.436 91.6491 144.753C91.6933 145.147 91.4552 145.514 91.5421 145.909C91.617 145.835 91.692 145.761 91.7669 145.688C91.7682 145.429 91.7562 145.171 91.7281 144.917C92.1428 144.575 92.0317 143.992 91.8806 143.548C91.72 143.099 91.6572 142.626 91.593 142.156C91.5475 142.412 91.4926 142.674 91.5247 142.936ZM129.412 142.995C129.592 143.338 129.881 143.608 130.07 143.947C130.347 144.726 130.235 145.566 130.276 146.376C130.839 145.234 130.57 143.658 129.412 142.995ZM129.101 143.063C128.957 143.984 128.911 144.923 128.677 145.831C128.57 146.17 128.794 146.478 128.937 146.77C129.056 146.053 129.072 145.323 129.156 144.601C129.19 144.088 129.25 143.562 129.101 143.063ZM129.714 143.718C129.622 144.721 129.643 145.734 129.424 146.724C130.263 145.964 129.994 144.71 129.86 143.721L129.714 143.718ZM93.633 144.971C93.4644 145.677 94.1172 146.131 94.2791 146.756C94.4196 147.591 94.243 148.447 94.3714 149.284C94.3848 149.49 94.5253 149.634 94.7032 149.719C94.7446 148.793 94.7955 147.837 94.5346 146.939C94.2751 146.268 94.0637 145.558 93.633 144.971ZM128.366 145.187C128.17 145.324 128.091 145.647 128.17 145.869C128.391 145.815 128.505 145.349 128.366 145.187ZM127.898 146.127C128.01 145.935 128.014 145.685 128.014 145.471C127.812 145.527 127.627 146.078 127.898 146.127ZM93.4885 145.982C93.625 146.551 93.4698 147.127 93.4083 147.697C93.3534 148.102 93.4832 148.501 93.5554 148.896C93.6303 149.208 93.6504 149.59 93.9647 149.767C93.6223 148.525 94.0664 147.168 93.4885 145.982ZM92.0344 147.502C92.5963 147.541 92.623 146.832 92.7394 146.435C92.3622 146.68 92.0411 147.019 92.0344 147.502ZM129.931 147.464C130.125 147.367 130.085 146.988 129.892 146.912C129.658 146.97 129.723 147.406 129.931 147.464ZM96.2817 149.253C96.3486 149.55 96.1559 150.165 96.6522 150.098C96.5586 149.804 96.4395 149.518 96.2817 149.253ZM93.9915 149.839C93.8029 149.935 93.7935 150.312 93.9888 150.408C94.2055 150.338 94.2055 149.906 93.9915 149.839ZM96.3339 150.431C96.4609 151.08 96.6536 151.719 96.7124 152.382C96.7552 152.883 96.5479 153.359 96.4971 153.854C96.4222 153.74 96.3486 153.627 96.275 153.514C96.2429 153.545 96.2095 153.577 96.1773 153.611C96.0503 154.207 95.7065 154.913 96.1546 155.464C96.1493 154.933 96.081 154.389 96.2576 153.875C96.3125 153.878 96.4222 153.881 96.4783 153.883C96.4315 154.327 96.3646 154.798 96.5532 155.223C97.0482 154.699 96.7004 153.933 96.8743 153.298C97.0843 152.362 96.8168 151.425 96.6897 150.501C96.6897 150.308 96.3486 150.165 96.3339 150.431ZM97.3746 151.386C97.3706 151.891 97.4495 152.395 97.4281 152.902C97.4188 153.731 97.2074 154.542 97.194 155.371C98.1371 154.758 97.6194 153.534 97.6328 152.623C97.7813 153.08 97.8936 153.55 98.0595 154.004C98.0408 153.098 97.8054 152.181 97.3746 151.386ZM98.3391 153.371C98.319 154.112 98.4929 154.926 98.0194 155.572C97.6569 155.817 97.3158 156.14 97.2141 156.584C97.5164 156.437 97.7411 156.184 97.9605 155.94C97.8776 156.453 97.6569 157.004 97.8615 157.515C98.0154 157.008 98.0849 156.477 98.2923 155.986C98.5117 155.469 98.6869 154.928 98.7311 154.366C98.7792 153.988 98.5063 153.68 98.3391 153.371ZM99.5083 154.649C99.531 155.492 99.6996 156.327 99.6354 157.171C99.5939 157.718 99.5043 158.259 99.4253 158.803C99.0428 158.402 99.1765 157.818 99.1645 157.319C99.2541 156.494 99.2019 155.664 99.1177 154.842C99.0187 155.223 98.9652 155.62 98.8033 155.984C98.3752 156.71 98.3899 157.588 98.3271 158.404C98.4341 158.541 98.5438 158.679 98.6548 158.818C98.6401 157.976 98.6628 157.138 98.6976 156.298C98.7966 156.281 98.9117 156.265 98.9652 156.373C98.9505 157.044 98.7632 157.738 98.9973 158.393C99.1284 158.711 99.2742 159.076 99.6247 159.21C99.7477 158.278 100.01 157.368 100.065 156.426C100.116 156.989 100.277 157.551 100.178 158.118C100.196 158.405 99.9952 158.834 100.344 158.987C100.469 158.104 100.185 157.25 100.181 156.371C100.061 155.764 99.8267 155.18 99.5083 154.649ZM101.673 159.297C101.356 160.075 101.774 160.923 101.528 161.718C101.483 162.126 101.172 162.535 101.36 162.94C101.57 162.785 101.618 162.503 101.758 162.296C102.331 161.376 101.94 160.253 101.673 159.297ZM100.904 159.747C100.759 160.67 100.751 161.607 100.849 162.538C101.031 162.361 101.039 162.101 101.085 161.871C101.206 161.112 101.217 160.33 101.081 159.575C101.037 159.618 100.948 159.705 100.904 159.747ZM100.318 162.217C100.466 162.035 100.577 161.821 100.577 161.583C100.613 160.989 100.714 160.404 100.783 159.816C100.288 160.509 100.298 161.401 100.318 162.217Z" fill="black"/>
</svg>
