<svg width="220" height="220" viewBox="0 0 220 220" fill="none" xmlns="http://www.w3.org/2000/svg">
<path d="M95.2529 76.4855C96.1443 76.2284 96.9981 75.7208 97.9478 75.7208C98.7844 77.6241 98.8049 79.7674 99.0175 81.8043C98.7706 83.5327 98.6266 85.2782 98.4655 87.0202C99.7786 86.2864 101.133 85.5354 102.642 85.309C104.671 85.0896 106.536 86.1286 108.504 86.3961C110.102 86.4235 111.686 86.1183 113.28 86.036C114.381 85.9126 115.595 86.0155 116.52 85.2953C113.294 84.9421 110.037 85.1136 106.8 84.9695C104.637 84.7123 102.477 84.2082 100.286 84.4551C100.074 84.246 99.8644 84.0402 99.6552 83.8345C102.864 83.3681 105.998 84.3386 109.197 84.3523C111.354 84.3043 113.472 84.7535 115.602 85.0415C115.406 83.6561 115.403 82.1713 116.229 80.9744C117.652 81.0533 119.075 80.9436 120.498 80.9367C121.475 80.8338 122.322 81.5951 122.651 82.4593C122.833 83.5155 122.181 84.5272 122.342 85.5868C123.292 89.7465 124.18 93.9919 124.005 98.2853C124.012 101.598 126.186 104.581 125.617 107.946C125.438 108.553 126.429 108.542 126.762 108.295C128.14 107.784 128.785 106.426 129.059 105.079C131.719 104.057 133.177 101.413 135.587 100.017C137.191 99.0295 138.727 97.9356 140.311 96.9205C140.061 94.7566 140.548 92.6168 140.966 90.5112C141.422 88.6045 142.708 87.082 143.723 85.4599C144.491 84.2494 144.299 82.6514 145.166 81.4991C146.747 81.1665 147.806 82.4799 148.598 83.6184C151.4 83.4092 154.214 83.4812 157.012 83.2309C159.796 82.9326 162.59 82.6616 165.354 82.1987C165.248 81.4614 164.737 80.6075 165.289 79.9354C166.012 79.3936 166.979 79.5342 167.829 79.4621C168.885 79.4759 169.983 79.3421 171.011 79.6473C171.882 79.9731 172.115 80.9642 172.101 81.8009C172.05 83.1486 172.876 84.2905 173.082 85.5902C173.692 89.1052 173.301 92.6785 173.161 96.2141C172.979 99.0741 174.193 101.735 174.779 104.479C175.578 107.503 175.249 110.672 175.821 113.731C176.322 116.21 176.202 118.772 175.921 121.272C175.701 122.681 175.448 124.307 174.193 125.188C172.341 126.529 170.195 127.396 168.104 128.285C164.744 129.276 161.682 131.014 158.582 132.602C154.448 134.663 150.875 137.701 146.61 139.529C143.38 140.98 139.931 141.878 136.667 143.25L137.918 143.188C137.685 143.346 137.452 143.504 137.219 143.661C136.67 143.634 136.129 143.61 135.583 143.589C131.929 143.545 128.274 143.754 124.619 143.672C120.628 143.665 116.157 142.806 112.19 143.567L112.653 143.298C113.606 143.274 114.556 143.233 115.509 143.154C111.398 141.967 107.03 141.528 103.163 139.587C101.874 138.939 100.972 137.77 100.08 136.676C97.3649 136.865 94.8758 138.068 92.3386 138.956C89.9146 139.793 87.8129 141.377 85.3203 142.039C83.6917 142.533 81.9671 142.657 80.3625 143.243C74.6402 143.918 68.8665 143.644 63.127 143.37C62.119 143.298 61.1658 143.709 60.1647 143.737C54.7921 143.864 49.4229 144.008 44.0469 143.956V143.579C49.7349 143.624 55.4229 143.569 61.1041 143.342L61.1727 143.058C57.391 142.296 53.4789 141.491 50.1498 139.45C49.0835 138.877 48.408 137.804 48.0858 136.662C47.3898 134.334 47.0846 131.868 47.3006 129.44C47.6332 127.667 48.5075 125.853 50.1395 124.941C50.5681 124.742 51.0926 124.262 51.5281 124.694C51.4526 125.473 50.5269 125.86 50.0983 126.46C50.5681 127.328 51.1441 128.192 52.0629 128.641C54.6961 129.999 57.631 130.616 60.5178 131.189C65.5716 132.321 70.7728 132.612 75.9396 132.602C79.6082 132.585 83.2494 132.094 86.8974 131.81C87.7306 131.69 88.5089 132.012 89.1774 132.475C88.7557 132.341 88.3374 132.194 87.926 132.033C83.9968 131.954 80.1877 133.195 76.2654 133.185C71.5785 133.236 66.8573 133.027 62.2664 132.029C58.9647 131.343 55.6012 130.654 52.5806 129.097C51.3875 128.528 50.5989 127.441 49.6218 126.597C47.6572 128.943 48.2366 132.273 48.8435 135.013C49.1932 136.803 50.6538 138.12 52.3406 138.668C59.6881 141.179 67.5567 141.621 75.2642 141.377C78.3945 141.364 81.518 141.155 84.6277 140.808C86.4106 140.568 88.4506 139.803 89.0574 137.931C89.9489 138.13 90.878 138.226 91.7626 137.941C94.478 137.177 97.0255 135.932 99.7272 135.126C99.2129 132.088 98.5066 128.542 100.629 125.922C96.0963 128.689 90.9123 130.589 85.5568 130.675C82.4677 130.894 79.3785 131.193 76.2756 131.21C70.0768 130.963 63.8401 130.51 57.8092 128.95C55.9818 128.401 53.8835 128.247 52.4195 126.896C51.3395 125.977 51.6275 124.259 52.1589 123.151C54.4938 121.179 57.487 120.246 60.2161 118.964C63.6207 117.393 67.543 116.591 70.2996 113.892C70.6802 113.666 71.1636 113.58 71.4516 113.22C71.0985 113.326 70.7488 113.436 70.399 113.549C70.495 113.299 70.687 112.795 70.783 112.541C71.9693 112.356 73.1076 111.992 74.1876 111.464C74.3419 110.809 74.4962 110.151 74.6916 109.502C75.4356 109.492 76.1796 109.482 76.9236 109.482C77.8219 108.21 78.3088 106.732 78.9294 105.319C79.2894 104.53 80.1877 104.513 80.9317 104.482C80.8631 103.014 80.822 101.303 81.9534 100.192C82.934 99.489 84.2437 99.7531 85.3786 99.6468C85.8311 98.0282 86.654 96.5536 87.3226 95.0207C86.9557 95.2573 86.2254 95.7237 85.8586 95.9569C86.4209 94.9898 87.446 94.2594 87.6311 93.0935C87.8197 91.6703 89.5957 91.8898 90.5557 91.2828C91.1866 89.9317 91.2449 88.3885 91.8003 87.0031C92.4072 85.2164 93.6723 83.7316 95.1672 82.6136C94.2792 81.0087 93.3638 79.3833 92.8495 77.6172C93.4598 76.9245 94.4369 76.8182 95.2529 76.4855ZM168.474 80.3263C169.074 81.2008 169.811 82.0204 169.677 83.1829C168.248 83.2755 167.068 84.1225 165.793 84.6712C162.23 86.1835 158.346 86.9551 154.472 86.7836C152.277 86.5916 150.426 87.9839 148.838 89.3075C148.547 89.3453 148.297 89.2561 148.091 89.0435C149.096 88.0216 150.155 87.0099 151.485 86.4235C152.596 85.8097 153.906 85.9057 155.133 85.8851C157.914 85.9606 160.677 85.4702 163.362 84.7844C164.37 84.51 165.621 84.2254 165.957 83.0732C164.034 83.0732 162.2 83.7384 160.304 83.9648C158.123 84.2082 155.942 84.5615 153.741 84.4963C152.051 84.462 150.33 84.2631 148.664 84.63C146.942 85.7686 147.176 88.0353 147.724 89.7499C147.282 89.9591 146.908 90.2609 146.552 90.5867C147.004 90.3809 147.426 90.1237 147.851 89.8699C148.005 89.8459 148.321 89.7979 148.478 89.7739C150.549 88.4502 152.994 87.5586 155.483 87.7198C159.354 87.8535 163.221 87.0031 166.787 85.5285C168.045 84.9215 169.468 84.4209 170.295 83.224C170.833 82.5485 171.323 81.6432 171.001 80.7687C170.421 79.9251 169.314 80.2612 168.474 80.3263ZM165.868 81.362C166.382 81.6397 166.979 81.6157 167.541 81.7049C167.174 81.9586 166.814 82.2193 166.465 82.4902C166.523 82.7165 166.64 83.1657 166.701 83.3886C167.054 83.1966 167.397 82.9874 167.733 82.7611C167.706 82.3942 167.651 81.6603 167.624 81.2899C168.426 81.4957 168.34 82.3976 168.635 82.984C168.916 82.6959 169.197 82.4079 169.479 82.1164C168.786 81.6157 168.11 81.091 167.418 80.5938C166.862 80.3092 165.604 80.5046 165.868 81.362ZM116.634 81.386C116.095 82.6651 115.872 84.1637 116.61 85.4188C117.463 85.261 118.303 85.0381 119.112 84.7192C118.276 84.4449 117.09 84.8324 116.551 83.951C117.552 83.6836 119.04 84.6849 119.613 83.5327C118.938 83.4504 118.262 83.3886 117.594 83.2858C118.375 83.1212 119.25 82.936 119.99 83.3475C120.268 84.0814 119.901 84.9901 119.15 85.2645C116.27 86.3275 113.236 86.8659 110.208 87.3049C107.839 87.6752 105.693 86.2589 103.351 86.3138C101.634 86.5196 100.094 87.5038 98.9866 88.8034C99.5627 88.5668 100.718 88.0902 101.298 87.8501C100.749 88.145 99.6518 88.7349 99.1032 89.0298C99.4461 89.2184 99.7924 89.4036 100.146 89.5819C99.6175 89.5785 98.8769 89.4001 99.0312 90.1717C99.7924 90.3295 100.656 90.1614 101.332 90.6141C102.028 91.2794 102.494 92.6785 101.527 93.3198C100.797 93.9576 99.8198 93.5427 99.0689 93.1826C99.0346 93.9851 98.7878 94.7498 98.5341 95.5042C99.8987 96.7079 101.514 97.6166 102.786 98.9232L102.892 99.3004L102.559 99.9897C102.439 99.7668 102.196 99.321 102.072 99.0981C101.352 98.6008 100.65 98.0762 99.9329 97.5755C100.039 98.059 100.159 98.5425 100.269 99.0295C99.0141 99.4101 98.0506 98.546 97.5364 97.4863C97.1969 98.4054 96.8026 99.3381 96.7821 100.333C96.8849 101.67 97.8964 102.785 97.7352 104.163C96.3535 104.091 94.4266 104.794 93.5009 103.481C94.4198 103.556 95.3386 103.676 96.2643 103.632C95.2598 103.193 94.1695 103.217 93.1032 103.337C92.7809 103.954 92.462 104.578 92.1432 105.199C92.87 105.48 93.7546 105.72 94.1043 106.505C94.3992 107.088 94.574 108.151 93.7855 108.419C92.1123 108.81 90.5352 107.987 88.9854 107.503C87.9809 108.162 87.1374 109.029 86.2117 109.787C87.4254 110.61 88.9203 110.939 90.0174 111.944C89.6232 112.695 89.1397 113.415 88.9203 114.249C88.4609 114.235 87.9843 114.269 87.5523 114.077C86.2666 113.532 84.83 113.618 83.4654 113.624C82.4231 113.82 81.7271 114.729 81.11 115.514C82.3957 115.092 84.0517 115.459 84.686 116.748C85.1317 117.997 83.5408 118.953 82.454 118.672C81.3465 118.319 80.4208 117.568 79.3648 117.091C78.9774 118.587 78.7477 120.133 79.0322 121.669C79.694 120.617 79.7591 119.327 80.2357 118.189C80.3454 118.209 80.5648 118.247 80.6745 118.268C79.8551 119.492 79.6357 120.96 80.0334 122.383C81.878 122.321 83.6746 121.8 85.526 121.803C86.1637 121.827 86.9214 121.491 87.3911 122.17L87.6174 121.793C87.0689 121.306 86.1911 120.973 86.5889 120.068C86.6506 120.311 86.7706 120.798 86.8323 121.038C87.7786 121.025 87.4151 120.263 87.0311 119.763C87.8711 118.103 89.4826 117.133 90.7855 115.888C90.7546 115.781 90.6963 115.572 90.6689 115.469C90.4769 115.521 90.0963 115.631 89.9043 115.682C90.398 115.332 90.8883 114.955 91.1146 114.365C90.7855 114.41 90.1306 114.499 89.8049 114.543C90.2506 114.382 90.7752 113.978 91.2277 114.348C91.1386 114.681 91.0563 115.017 90.9843 115.353L91.0803 115.504C93.5386 112.945 96.2609 110.617 98.4381 107.798C97.9204 107.359 97.2929 107.959 96.7238 107.976C96.9226 107.877 97.3238 107.682 97.5261 107.585C97.7421 107.267 97.9615 106.951 98.1844 106.636L97.5261 106.543L98.4004 106.581C98.1878 106.392 97.7626 106.018 97.5535 105.833C97.8861 106.042 98.2221 106.248 98.5615 106.447C99.0552 105.477 99.5969 104.533 100.152 103.601C100.293 103.882 100.44 104.163 100.588 104.441C101.49 104.067 100.773 102.075 99.9569 103.512C100.128 103.323 100.478 102.946 100.653 102.757C101.051 101.725 101.616 100.768 102.038 99.7462C102.151 99.928 102.264 100.11 102.378 100.295C101.891 101.066 100.968 101.787 101.14 102.795C103.2 100.082 103.862 96.6633 104.774 93.457C105.055 92.1573 105.559 90.8199 105.292 89.479C103.567 88.6354 101.62 89.3693 99.8026 89.2664C101.613 88.6183 103.704 88.1999 105.501 89.1155C105.902 89.1121 106.3 89.1087 106.701 89.1052L106.715 89.2664C106.444 89.2664 105.906 89.2698 105.638 89.2698C105.686 90.182 105.662 91.0908 105.556 91.9961C105.786 91.9378 106.242 91.8143 106.471 91.7526C105.81 91.9069 105.347 92.2979 105.192 92.9906C105.415 93.018 105.854 93.0763 106.074 93.1037C105.854 93.1449 105.412 93.2272 105.192 93.2683L105.1 94.1805C106.111 94.2423 105.285 95.4494 105.518 96.1043C105.254 95.8026 104.997 95.4974 104.743 95.1853C104.469 96.5673 103.79 97.8704 103.797 99.3004C101.757 102.565 100.135 106.09 97.7866 109.156C96.3192 110.908 94.6392 112.469 93.1066 114.159C93.1375 114.482 93.1683 114.808 93.1992 115.13C93.11 114.938 92.9283 114.55 92.8392 114.355C91.262 115.956 89.5169 117.373 87.8471 118.871C88.0529 119.166 88.2654 119.454 88.4849 119.742C88.2037 119.732 87.926 119.718 87.6483 119.701C87.8094 120.418 87.8711 121.159 87.8231 121.892C88.166 122.369 88.5329 122.825 88.9237 123.264C88.7112 123.189 88.2826 123.041 88.07 122.969L88.1831 123.943C88.3477 123.885 88.6803 123.775 88.8449 123.717C88.0837 124.464 88.8209 125.49 88.9203 126.364C89.1054 126.707 89.294 127.05 89.4929 127.389L89.1569 127.266C89.5614 127.828 89.6163 128.518 89.6266 129.19C89.3249 128.792 89.0437 128.381 88.7729 127.966C88.8449 127.684 88.9477 127.393 88.8483 127.105C88.4334 125.538 88.1763 123.916 87.5317 122.42C85.1454 121.477 82.6048 122.263 80.2494 122.894C80.5751 123.542 80.8768 124.197 81.1408 124.872C81.3843 124.821 81.8711 124.715 82.118 124.663C81.854 124.859 81.6003 125.064 81.3568 125.284C81.3397 126.841 81.3774 128.401 81.3603 129.961C83.4346 129.718 85.5123 129.646 87.5969 129.715C87.7991 129.262 88.0049 128.809 88.2209 128.36C88.3614 128.621 88.6494 129.138 88.7934 129.399C91.982 129.224 94.8586 127.756 97.7421 126.525C100.101 125.411 102.566 124.485 104.757 123.051C108.155 121.944 111.412 120.452 114.522 118.703C115.663 117.877 116.082 116.402 117.206 115.541C118.718 114.057 121.18 113.23 121.701 110.97C122.339 109.743 124.012 109.297 124.42 107.887C124.907 106.433 125.147 104.544 123.967 103.354C124.108 103.035 124.242 102.719 124.379 102.4C124.159 102.472 123.724 102.623 123.508 102.695C123.556 102.472 123.655 102.023 123.703 101.8C123.525 101.821 123.172 101.865 122.997 101.886C122.98 101.783 122.949 101.574 122.932 101.468C123.138 101.526 123.542 101.639 123.748 101.697C123.505 100.823 123.453 99.8354 122.908 99.0844C121.554 99.5062 120.144 99.6571 118.763 99.952C117.919 100.192 117.035 100.202 116.167 100.182C118.351 99.7634 120.487 99.153 122.651 98.6283C123.309 97.3389 123.107 95.8403 123.031 94.4514C122.74 91.5674 122.565 88.6217 121.523 85.8886C119.922 87.3049 117.679 87.4386 115.701 87.977C111.851 88.6594 107.74 88.9338 104.003 87.6204C107.685 87.6341 111.477 88.2685 115.077 87.1814C116.462 86.7185 117.895 86.4167 119.359 86.3961L119.339 86.0052C119.462 86.036 119.709 86.0909 119.836 86.1183C120.364 85.0998 121.526 84.414 121.598 83.176C121.547 82.5828 121.358 81.9038 120.844 81.5471C119.442 81.4511 118.032 81.5814 116.634 81.386ZM145.873 82.0101C145.249 84.5443 145.3 87.2569 144.182 89.6505C143.973 90.2677 143.27 90.4289 142.801 90.765C143.311 88.9372 144.601 87.3872 144.796 85.4668C143.853 87.0682 143.294 88.8583 142.355 90.4632C143.301 91.5057 144.851 90.9056 145.952 90.4392C146.401 88.9612 146.27 87.3563 146.905 85.9263C147.381 84.5992 147.46 82.5931 145.873 82.0101ZM91.43 91.2176C92.8323 89.5339 93.5146 87.3837 94.8758 85.6622C95.3043 84.8255 96.1581 83.5292 95.1089 82.8297C92.7637 84.9661 91.8449 88.1725 91.43 91.2176ZM169.256 85.285C165.834 86.9174 162.114 87.8741 158.37 88.3885C156.728 88.6526 155.054 88.1999 153.429 88.5531C151.256 89.215 149.15 90.1374 147.316 91.4954C147.71 91.8178 148.098 92.1538 148.533 92.4247C148.958 91.8966 149.325 91.3205 149.798 90.8336C149.99 92.5345 148.76 93.841 148.053 95.2607C148.317 95.3636 148.842 95.5694 149.106 95.6757C150.189 95.0893 151.468 95.1236 152.665 95.0584C152.555 95.1133 152.336 95.2264 152.226 95.2847C151.832 95.247 151.441 95.2127 151.05 95.175C150.549 95.3842 150.045 95.5831 149.555 95.8026C150.662 96.1764 151.763 96.581 152.891 96.8965C153.772 95.4116 154.458 93.8067 154.77 92.099C155.037 90.933 155.126 89.5407 156.158 88.752C155.308 90.3569 155.301 92.1538 154.804 93.8547L155.469 93.8822C154.232 94.6983 153.662 96.1969 153.285 97.5652C153.827 97.2497 154.142 96.7113 154.475 96.2038C154.286 96.7593 154.088 97.3114 153.899 97.867C156.083 98.7243 158.366 99.2764 160.633 99.8628C161.73 100.12 162.872 100.302 164 100.206C165.738 99.7839 167.236 98.762 168.807 97.9527C169.938 97.3732 171.028 96.7182 172.095 96.0255C172.304 94.2594 172.479 92.4899 172.468 90.7135C172.444 88.3096 172.503 85.7754 171.344 83.591C170.809 84.3351 170.089 84.9147 169.256 85.285ZM92.6883 91.1353C93.1203 91.3308 93.5523 91.5228 93.9878 91.7149C94.5535 90.0277 94.7935 88.2651 95.0883 86.5161C93.9466 87.8604 93.4255 89.5647 92.6883 91.1353ZM95.1432 93.2443C95.7741 92.363 95.8289 91.2691 95.7123 90.23C95.2803 91.1628 94.8483 92.2018 95.1432 93.2443ZM98.5238 91.684C99.0381 92.5242 100.262 93.3678 101.16 92.5825C101.346 92.0372 100.752 91.6532 100.56 91.2176C100.406 91.6532 100.231 92.0818 100.029 92.4968C100.077 92.1778 100.17 91.54 100.214 91.2176C99.6484 91.3651 99.0861 91.5229 98.5238 91.684ZM96.6655 92.3459C96.5249 92.7711 96.3843 93.1998 96.2506 93.6284C96.4906 93.6593 96.9741 93.7244 97.2141 93.7553C97.4095 93.2306 97.5981 92.7025 97.7009 92.1538C97.4438 92.2018 96.9261 92.2979 96.6655 92.3459ZM95.4552 94.1565C95.3866 94.4411 95.3318 94.7258 95.2872 95.0173C95.6918 95.0824 96.0998 95.1339 96.5078 95.1716C96.1649 94.8218 95.8152 94.4823 95.4552 94.1565ZM88.4712 95.5488C87.7786 96.9959 86.6643 98.2648 86.414 99.8937C86.8426 99.4273 87.254 98.9438 87.662 98.4568C87.6106 98.8409 87.5146 99.6125 87.4631 99.9965C89.2597 100.727 91.0563 101.464 92.87 102.147C94.79 100.501 93.1066 97.7984 94.022 95.7717C93.7443 95.9603 93.47 96.1523 93.1992 96.3478C92.9215 95.6894 92.7295 94.8081 91.8929 94.6743C90.7443 94.4343 89.0334 94.2182 88.4712 95.5488ZM144.584 98.3025C144.289 98.7552 144.008 99.2147 143.778 99.7016C145.554 98.8306 145.101 96.4233 145.015 94.8047C144.467 95.878 144.789 97.1503 144.584 98.3025ZM95.2941 96.4438C94.9169 97.8533 94.502 99.2764 94.5432 100.754C95.0472 99.4719 95.5786 98.1928 96.3706 97.0577C96.0106 96.8519 95.6541 96.6462 95.2941 96.4438ZM98.1569 96.5021C98.3626 97.1983 98.6609 97.8636 99.0004 98.5083C99.9055 97.771 98.7432 96.9342 98.1569 96.5021ZM148.784 96.5364C149.264 96.8211 149.768 97.068 150.278 97.3012C149.826 97.4726 149.384 97.6647 148.952 97.8773C149.709 97.9973 150.47 98.1447 151.225 98.2991C151.204 98.0762 151.163 97.6372 151.142 97.4177C151.393 97.4177 151.9 97.4143 152.154 97.4109C151.917 97.8533 151.688 98.2991 151.468 98.7483C150.09 98.4671 148.729 98.083 147.333 97.8944C147.08 98.8855 146.726 99.8525 146.305 100.785C146.696 100.957 147.093 101.125 147.494 101.283C147.765 101.92 148.05 102.716 147.412 103.251C146.63 104.218 145.468 103.251 144.642 102.874C143.942 103.11 143.274 103.44 142.581 103.69C142.478 104.263 142.382 104.835 142.307 105.415C142.931 105.387 143.565 105.243 144.189 105.36C144.933 106.131 144.594 107.736 143.497 107.997C142.657 108.018 141.865 107.627 141.014 107.716C140.473 107.387 139.969 106.996 139.485 106.588C138.398 107.939 137.332 109.31 136.225 110.648C136.801 110.343 137.281 109.718 137.987 109.76C138.875 110.192 139.684 110.836 140.277 111.629C140.404 112.239 140.281 113.007 139.677 113.326C139.338 113.511 138.182 113.816 138.378 113.089C138.635 112.846 138.895 112.603 139.159 112.366C138.882 112.421 138.323 112.534 138.042 112.592C137.613 112.129 137.202 111.587 136.506 111.577C136.742 112.184 137.305 112.51 137.723 112.969V113.182C137.017 113.052 136.351 112.716 135.628 112.685C134.524 113.233 133.581 114.074 132.422 114.537C133.818 114.639 135.611 115.703 135.083 117.338C134.006 119.05 131.383 118.724 130.386 117.095C130.105 118.415 129.844 119.756 129.823 121.11C130.149 121.244 130.807 121.508 131.133 121.639C130.804 121.752 130.142 121.978 129.813 122.091C129.916 122.883 130.475 123.171 131.219 123.165C131.342 122.736 131.497 122.318 131.606 121.886C131.349 121.69 131.071 121.525 130.801 121.354C132.882 121.57 134.959 121.903 137.058 121.834C137.116 121.371 137.171 120.908 137.229 120.449C136.969 120.857 136.711 121.268 136.454 121.68C136.249 121.004 136.739 120.514 137.161 120.078C137.133 119.9 137.082 119.54 137.058 119.362C137.198 119.259 137.486 119.056 137.63 118.953C137.884 117.88 138.409 116.865 139.365 116.251C138.813 116.028 138.45 115.603 138.237 115.065C138.594 115.517 139.012 115.908 139.537 116.162C140.109 115.617 140.713 115.099 141.268 114.533C141.46 115.198 141.313 115.922 140.757 116.375L141.323 115.041C140.668 115.665 139.986 116.265 139.225 116.759C139.42 116.965 139.615 117.174 139.814 117.383L139.053 116.893L139.156 118.117C139.091 117.89 138.964 117.434 138.899 117.208C138.721 117.386 138.361 117.746 138.182 117.925C138.625 118.271 138.525 118.58 138.038 118.83C138.145 119.674 138.295 120.517 138.597 121.316C138.388 121.227 137.966 121.042 137.757 120.949C137.778 121.251 137.822 121.851 137.843 122.15C138.052 122.036 138.467 121.813 138.676 121.7C138.861 123.003 139.42 124.293 139.242 125.62C139.153 125.284 138.981 124.612 138.895 124.276H138.614L138.337 124.296C137.62 123.984 137.918 122.808 137.514 122.191C135.587 122.211 133.653 122.074 131.767 121.68C131.863 121.937 132.055 122.455 132.151 122.712C131.778 123.185 131.157 123.384 130.687 123.751C130.794 124.567 130.838 125.39 130.993 126.196C131.099 125.63 131.198 125.061 131.291 124.492C131.356 125.25 131.726 125.973 131.757 126.721C131.644 126.608 131.421 126.378 131.308 126.265L131.03 126.127C131.404 127.208 131.699 128.329 132.244 129.341C133.79 129.344 135.446 129.594 136.927 129.094C137.085 128.809 137.215 128.514 137.37 128.23C137.431 128.449 137.551 128.881 137.613 129.101C138.302 129.519 139.303 129.09 140.099 129.207C140.106 128.874 140.113 128.538 140.119 128.206C139.708 127.592 139.711 126.573 138.926 126.309C139.019 127.088 139.173 127.863 139.225 128.651C138.686 127.547 138.405 126.309 138.388 125.085C139.098 124.927 138.494 126.577 139.513 126.22C139.722 126.875 139.996 127.513 140.287 128.137C140.277 128.381 140.253 128.874 140.239 129.118C144.179 128.116 148.238 127.163 151.76 125.047C154.132 123.405 156.625 121.947 159.093 120.456C161.699 118.861 164.565 117.746 167.133 116.093C169.482 114.598 172.067 113.518 174.426 112.047C174.632 107.534 173.823 102.956 172.009 98.8135C172.314 98.1585 172.263 97.4452 172.125 96.7525C171.807 97.0131 171.471 97.2566 171.22 97.5858C171.412 97.939 171.621 98.2819 171.848 98.6146C171.313 98.7894 170.785 98.9712 170.26 99.1632C170.346 98.8032 170.524 98.083 170.613 97.723C169.873 98.0865 169.143 98.474 168.357 98.7312C168.892 99.0226 169.492 99.0775 170.092 99.1461C169.324 99.4033 168.567 99.6948 167.799 99.952C167.377 100.027 167.85 99.1427 167.476 99.3381C166.136 100.233 164.552 100.631 162.964 100.751L163.173 101.183C162.371 100.97 161.562 100.748 160.722 100.772C160.931 100.669 161.349 100.456 161.555 100.35C160.448 100.01 159.313 99.7565 158.202 99.4204C157.907 99.6571 157.917 100.045 157.897 100.391C157.88 100.346 157.845 100.257 157.828 100.213C157.718 99.8662 157.602 99.5233 157.482 99.1838C155.932 99.1907 154.571 98.107 153.059 98.1482C153.2 99.3656 154.859 98.9781 155.668 99.4959C154.657 99.537 153.666 99.345 152.72 98.9986C152.212 100.391 151.544 101.725 151.108 103.145C150.642 104.568 149.216 105.521 149.068 107.057C146.98 109.763 144.388 112.006 142.156 114.578C141.95 114.372 141.745 114.163 141.542 113.957L142.42 113.827C142.355 113.576 142.231 113.072 142.166 112.822C143.39 111.498 144.583 110.147 145.842 108.858C146.469 108.275 147.011 107.603 147.683 107.064C146.363 109.156 144.426 110.782 142.794 112.63L142.996 112.98C144.045 112.05 144.861 110.891 145.893 109.941C147.008 108.889 148.033 107.73 148.797 106.392C148.571 106.389 148.112 106.385 147.885 106.382C148.022 106.293 148.304 106.114 148.444 106.025C148.516 105.816 148.657 105.394 148.729 105.185C148.821 104.842 148.921 104.499 149.013 104.16C149.157 104.547 149.349 104.921 149.548 105.284C149.757 104.65 150.117 104.088 150.46 103.518L150.23 103.409L149.555 104.139C149.822 103.549 150.162 102.987 150.32 102.352C150.392 102.62 150.536 103.158 150.608 103.426C151.009 101.835 151.866 100.411 152.325 98.8375L151.746 98.7963C152.113 98.3917 152.257 97.8807 152.366 97.3663C151.17 97.0988 150.001 96.6976 148.784 96.5364ZM147.995 97.1948C148.197 97.3183 148.605 97.5686 148.808 97.6921C149.373 97.164 147.954 96.2929 147.995 97.1948ZM146.552 97.5206C146.027 98.8649 144.467 100.508 145.859 101.848C145.742 101.447 145.619 101.049 145.482 100.655C145.993 99.6673 146.411 98.6317 146.552 97.5206ZM138.724 99.7736C137.15 101.001 135.172 101.608 133.711 103.004C132.415 103.906 131.294 105.363 129.583 105.374C129.679 105.562 129.775 105.754 129.875 105.946C131.359 105.034 132.834 104.115 134.222 103.055C134.003 103.422 133.564 104.163 133.345 104.533C134.455 104.3 135.58 104.153 136.694 103.92C135.93 103.608 135.134 103.368 134.407 102.977C135.474 101.649 137.161 101.162 138.484 100.165C139.279 99.4993 140.541 99.2353 140.833 98.1207C140.099 98.6351 139.441 99.2387 138.724 99.7736ZM95.1569 102.26C95.7192 102.5 96.2849 102.726 96.8575 102.953C96.6483 101.9 96.3809 100.861 96.1443 99.8114C95.7878 100.617 95.4758 101.44 95.1569 102.26ZM161.514 100.456C161.476 100.936 162.8 101.217 162.968 100.72C162.597 100.384 161.977 100.336 161.514 100.456ZM82.3923 103.731C82.9923 103.371 83.5614 102.901 84.2677 102.771C84.7477 102.901 85.1968 103.11 85.6186 103.364C84.3397 103.378 82.982 103.824 82.19 104.88C84.1134 104.928 86.0129 104.485 87.9397 104.64C87.3877 103.882 86.8357 102.592 85.6288 103.275C85.6426 103.025 85.6631 102.774 85.7111 102.527C85.4437 102.147 85.2071 101.742 84.8883 101.403C83.4414 101.125 83.0197 102.802 82.3923 103.731ZM87.254 101.468C87.446 103.001 88.4506 104.235 89.3146 105.456C90.8472 106.337 91.4335 104.276 92.0095 103.278C90.3089 102.959 89.0163 101.547 87.254 101.468ZM139.142 102.339C139.283 102.668 139.437 102.994 139.581 103.326C139.262 103.076 138.967 102.798 138.652 102.548C138.052 102.911 137.438 103.258 136.9 103.707C138.193 104.403 139.595 105.038 141.086 105.103C141.241 103.906 140.754 102.778 140.569 101.615C140.092 101.859 139.619 102.109 139.142 102.339ZM146.078 101.838C145.629 102.304 146.411 103.014 146.87 102.586C147.402 102.116 146.531 101.42 146.078 101.838ZM101.14 102.795C101.092 102.73 101.092 102.73 101.14 102.795V102.795ZM99.8198 104.503C99.7581 104.722 99.6312 105.164 99.5695 105.387C99.7272 105.278 100.046 105.062 100.207 104.955C100.303 104.564 100.176 104.413 99.8198 104.503ZM98.8838 106.31C99.3226 106.738 99.8129 105.751 99.5695 105.387C99.1512 105.521 98.9215 105.826 98.8838 106.31ZM148.784 105.542C148.88 105.651 148.88 105.651 148.784 105.542V105.542ZM136.763 107.922C136.279 108.422 135.919 109.019 135.628 109.646C136.684 108.535 137.654 107.345 138.686 106.217C137.802 105.963 136.873 105.703 135.947 105.881C134.586 106.111 135.635 108.439 136.763 107.922ZM83.366 106.663C84.542 107.123 85.7351 106.204 86.8666 106.8C86.7157 107.222 86.4209 108.066 86.2734 108.487C85.9409 108.165 85.7523 107.743 85.598 107.315C85.0906 107.318 84.5797 107.342 84.0723 107.363C84.5626 108.007 85.0048 108.686 85.4883 109.338C86.4311 108.607 87.1854 107.658 88.1591 106.955C86.6711 106.317 84.8883 105.898 83.366 106.663ZM91.4677 107.075C92.0506 107.315 92.6506 107.507 93.2472 107.702C93.3569 107.558 93.5729 107.273 93.6826 107.129C93.3843 106.865 93.206 106.317 92.7295 106.399C92.2769 106.55 91.886 106.852 91.4677 107.075ZM140.761 106.231C140.267 106.584 140.898 107.39 141.378 107.081C141.858 106.714 141.254 105.912 140.761 106.231ZM80.1328 106.574C79.9785 107.736 79.4608 108.793 78.8025 109.749C80.4962 109.815 82.1865 110.051 83.8254 110.497C82.6768 109.112 81.8163 107.414 80.1328 106.574ZM129.676 109.859C131.377 109.852 133.111 109.694 134.774 110.154C134.881 109.547 135.055 108.954 135.086 108.337C134.421 107.459 133.19 107.287 132.165 107.328C130.924 107.623 130.417 108.957 129.676 109.859ZM123.779 109.914C124.602 109.842 125.452 109.677 125.973 108.971C125.109 108.895 124.382 109.348 123.779 109.914ZM122.935 111.341C123.621 111.896 124.362 112.544 125.291 112.589C125.839 112.225 126.285 111.735 126.765 111.289C125.836 110.967 124.931 110.295 123.902 110.483C123.546 110.73 123.223 111.015 122.935 111.341ZM81.782 111.413C83.0094 112.153 84.3946 112.836 85.8757 112.63C86.438 112.726 86.4551 112.157 86.5991 111.783C86.1946 111.725 85.79 111.67 85.3854 111.618C85.2586 111.872 85.0014 112.376 84.8746 112.63C83.8426 112.222 82.8483 111.721 81.782 111.413ZM130.691 111.443C130.903 111.728 131.047 112.16 131.479 112.119C132.532 112.208 133.581 112.308 134.623 112.482C134.449 112.167 134.287 111.79 133.876 111.759C132.841 111.474 131.757 111.433 130.691 111.443ZM126.199 113.107C126.782 113.477 127.362 113.854 127.955 114.211C128.174 114.471 128.925 114.399 128.541 113.957C128.082 113.621 127.578 113.343 127.18 112.928C127.852 113.23 128.479 113.621 129.131 113.957C129.306 113.978 129.649 114.019 129.82 114.039C129.46 114.273 129.107 114.53 128.942 114.941C129.631 114.835 130.331 114.736 131.017 114.585C130.396 113.662 129.83 112.705 129.227 111.773C128.839 111.745 128.455 111.728 128.068 111.725C127.499 112.253 126.861 112.702 126.199 113.107ZM75.6996 113.251C76.4402 113.666 77.1842 114.074 77.9385 114.461C78.7991 114.78 79.6425 115.147 80.5271 115.394C79.838 114.173 78.6722 113.292 78.1305 111.972C77.1808 112.092 76.4334 112.695 75.6996 113.251ZM79.4334 112.308C79.7385 113.059 80.2082 113.731 80.8254 114.259C81.0894 114.026 81.3225 113.765 81.566 113.511C80.8631 113.1 80.1671 112.668 79.4334 112.308ZM87.6894 112.14C87.6791 112.448 87.662 113.065 87.6551 113.374C88.0974 113.587 88.5603 113.755 89.0437 113.882C88.6529 113.257 88.2963 112.585 87.6894 112.14ZM117.597 116.33C117.573 116.406 117.525 116.556 117.501 116.632C119.452 115.847 121.475 115.178 123.223 113.981C122.829 113.556 122.435 113.124 122.071 112.671C120.947 114.297 119.212 115.274 117.597 116.33ZM131.311 112.908C131.418 113.216 131.565 113.511 131.706 113.81C132.395 113.46 133.108 113.151 133.783 112.764C132.964 112.76 132.086 112.561 131.311 112.908ZM142.735 113.059C142.54 113.306 142.54 113.306 142.735 113.059V113.059ZM64.9853 118.1C61.8104 119.3 58.6904 120.648 55.6527 122.17C54.4629 122.818 53.0504 123.545 52.7624 125.006C52.8755 125.212 53.1018 125.623 53.2149 125.829C55.4881 127.606 58.4127 128.041 61.1453 128.655C64.0904 129.351 67.1179 129.54 70.1145 129.896C73.2688 130.047 76.4608 130.459 79.6048 129.961C79.6665 128.922 79.646 127.88 79.5397 126.848L80.1191 127.098C79.6974 126.488 79.8551 125.143 78.9054 125.102C79.0048 123.003 77.9317 120.956 78.3705 118.833C78.3602 118.185 78.7648 117.441 78.5042 116.851C76.5911 115.919 74.8391 114.691 73.1248 113.443C70.687 115.432 67.9442 117.023 64.9853 118.1ZM164.397 118.539C159.436 120.98 155.006 124.331 150.141 126.94C147.008 128.453 143.62 129.341 140.25 130.157C140.387 130.472 140.503 130.798 140.603 131.131C140.846 134.313 139.883 137.379 139.43 140.489C143.27 139.464 147.083 138.164 150.518 136.131C154.324 133.61 158.315 131.374 162.374 129.289C163.485 128.672 164.757 128.326 165.776 127.551C165.81 127.287 165.882 126.758 165.916 126.491C168.467 124.938 171.121 123.535 173.703 122.026C174.505 121.587 174.992 120.768 175.064 119.862C175.283 117.757 175.245 115.624 175.012 113.522C171.347 114.904 167.888 116.776 164.397 118.539ZM121.896 115.819C120.563 116.474 119.123 116.865 117.758 117.448C116.407 117.928 115.571 119.187 114.336 119.859C111.631 121.388 108.703 122.462 105.912 123.813C105.347 124.197 104.548 124.577 104.469 125.342C105.823 126.686 107.784 127.074 109.574 127.492C116.442 128.861 123.453 129.546 130.458 129.471C131.27 129.317 131.126 128.333 130.965 127.743C130.286 125.613 129.991 123.398 129.388 121.244C129.175 119.91 129.326 118.566 129.391 117.229L129.042 117.218C128.953 118.106 128.85 118.991 128.74 119.876C128.932 121.073 129.371 122.228 129.361 123.453C128.61 121.399 128.274 119.128 128.939 117.002C127.708 116.018 126.498 114.928 124.938 114.502C123.858 114.756 122.901 115.363 121.896 115.819ZM132.916 115.785C133.437 116.337 134.15 116.975 133.489 117.729C131.98 118.35 131.761 115.363 130.369 116.742C131.359 117.163 132.354 118.525 133.519 117.774C134.188 117.541 134.078 116.834 134.068 116.268C133.677 116.114 133.297 115.946 132.916 115.785ZM81.518 116.539C81.8745 117.27 82.478 117.853 83.3385 117.801C83.4174 117.63 83.5717 117.287 83.6471 117.115C82.9443 116.899 82.2414 116.676 81.518 116.539ZM79.1282 121.992C79.8585 124.379 80.678 126.762 80.5888 129.296C80.414 129.3 80.0642 129.306 79.8928 129.306C79.9888 129.972 80.4482 130.013 80.9625 129.865C81.1442 128.583 81.1957 127.28 81.0208 125.994C80.8597 124.334 79.7625 122.928 79.6837 121.251C79.4985 121.498 79.3134 121.745 79.1282 121.992ZM174.09 122.976C172.06 124.036 170.13 125.274 168.066 126.268C167.699 126.488 166.982 126.707 167.339 127.259C168.021 127.444 168.673 127.064 169.297 126.844C170.692 126.237 172.146 125.678 173.346 124.722C174.128 124.135 174.344 123.151 174.584 122.259C174.416 122.496 174.251 122.736 174.09 122.976ZM87.9946 122.606C88.2414 122.815 88.2414 122.815 87.9946 122.606V122.606ZM138.398 123.161C138.121 123.583 138.227 123.823 138.721 123.885C138.985 123.47 138.878 123.23 138.398 123.161ZM101.987 125.695C102.504 127.033 103.526 128.154 104.874 128.675C107.994 129.951 111.312 130.702 114.652 131.103C119.198 131.793 123.796 132.105 128.394 132.139C132.419 132.146 136.43 131.673 140.455 131.817C140.332 131.34 140.205 130.863 140.075 130.39C136.3 130.291 132.529 130.599 128.757 130.575C123.703 130.466 118.66 129.999 113.664 129.241C111.014 128.813 108.271 128.662 105.772 127.612C104.496 127.071 103.584 125.74 103.718 124.331C103.132 124.773 102.552 125.222 101.987 125.695ZM101.541 136.107C102.402 137.849 104.442 138.271 106.139 138.744C109.842 139.646 113.596 140.428 117.408 140.64C122.651 141.185 127.948 141.628 133.214 141.148C135.052 140.969 136.972 141.168 138.731 140.503C139.561 139.827 139.362 138.61 139.639 137.67C140.116 135.805 140.407 133.908 140.322 131.978C138.278 132.026 136.218 131.933 134.198 132.3C127.567 133.147 120.827 132.55 114.271 131.371C111.09 130.839 107.884 130.181 104.908 128.902C103.495 128.322 102.47 127.16 101.61 125.939C99.3672 128.84 99.9775 133.027 101.541 136.107ZM79.7934 127.184C79.694 127.564 79.5328 128.497 80.0437 128.566C80.1842 128.185 80.2562 127.287 79.7934 127.184Z" fill="black"/>
<path d="M99.1444 84.2905C99.2472 84.4586 99.2472 84.4586 99.1444 84.2905V84.2905Z" fill="black"/>
<path d="M149.857 90.5455C150.529 90.3157 151.413 90.4358 151.629 91.2314C152.308 92.8088 150.433 94.0742 149.078 94.2285C149.507 93.553 150.066 92.9494 150.409 92.219C150.669 91.5914 150.066 91.0805 149.857 90.5455Z" fill="black"/>
<path d="M155.507 91.5023C155.006 92.5551 156.632 91.5023 155.507 91.5023V91.5023Z" fill="black"/>
<path d="M104.133 99.0775C104.49 98.8649 105.127 99.3073 104.939 99.7256C104.579 99.9897 103.962 99.4787 104.133 99.0775Z" fill="black"/>
<path d="M105.504 99.8011C105.607 100.953 106.499 99.225 105.504 99.8011V99.8011Z" fill="black"/>
<path d="M117.148 100.638C117.144 101.793 118.173 100.106 117.148 100.638V100.638Z" fill="black"/>
<path d="M116.13 101.084C116.332 101.286 116.332 101.286 116.13 101.084V101.084Z" fill="black"/>
<path d="M135.974 107.013C136.214 107.215 136.214 107.215 135.974 107.013V107.013Z" fill="black"/>
<path d="M131.85 127.173C131.946 127.221 132.138 127.324 132.234 127.376L132.093 127.674H131.805L131.671 127.376L131.85 127.173Z" fill="black"/>
<path d="M132.463 128.278C133.098 127.362 134.356 127.935 135.258 127.907C134.353 128.178 133.403 128.271 132.463 128.278Z" fill="black"/>
</svg>
