<svg width="220" height="219" viewBox="0 0 220 219" fill="none" xmlns="http://www.w3.org/2000/svg">
<path d="M81.482 57.441C88.271 56.1559 95.2104 55.8613 102.106 55.8174C111.521 55.8488 120.943 55.6294 130.352 55.8738C134.358 56.3314 138.571 56.1371 142.344 57.7294C142.495 57.8923 142.796 58.2183 142.946 58.3813C143.335 60.7132 142.978 63.1141 143.441 65.4398C146.632 74.9556 147.084 85.0921 148.594 94.9527C150.324 111.815 150.738 128.778 151.961 145.679C152.023 147.208 152.142 148.782 152.964 150.123C152.982 152.806 153.289 155.502 153.076 158.185C152.362 159.012 151.321 159.432 150.324 159.827C142.965 162.604 134.954 163.306 127.143 162.855C122.329 162.629 117.558 161.532 113.12 159.689C112.568 156.943 112.982 154.091 112.869 151.308C113.433 149.666 113.226 147.923 113.189 146.224C113.001 139.517 113.145 132.771 112.274 126.095C111.716 122.792 111.039 119.513 110.594 116.191C109.76 129.744 108.838 143.353 109.754 156.925C109.954 158.454 109.008 159.927 107.478 160.266C97.8871 163.438 87.4372 163.25 77.6142 161.288C74.1351 160.416 70.4492 159.733 67.4277 157.727C67.0453 154.743 66.7695 151.515 68.1548 148.738C69.465 136.464 70.211 124.121 70.9444 111.79C71.1701 107.402 71.2704 102.983 72.0289 98.6449C72.7623 94.05 72.5868 89.3485 73.571 84.7912C74.2668 81.4688 74.1414 78.0398 74.8811 74.73C76.0784 70.0222 77.9339 65.3458 77.771 60.4123C77.6707 58.4565 79.9775 57.8171 81.482 57.441ZM87.0987 58.4879C85.4375 58.7825 83.7513 58.8264 82.0713 58.8702C85.1742 59.3028 88.3148 59.5034 91.4492 59.4846C102.187 59.1649 112.932 59.472 123.67 59.0708C127.569 58.8953 131.512 59.61 135.367 58.7637C133.468 57.6604 131.186 57.7356 129.067 57.5726C121.971 57.3407 114.869 57.4097 107.773 57.4097C100.871 57.4222 93.919 57.278 87.0987 58.4879ZM132.885 61.3903C130.578 61.6285 128.271 61.1332 125.964 61.3276C116.367 61.9294 106.757 61.058 97.1599 61.5094C93.5868 62.1237 89.9698 61.6222 86.3904 61.3276C84.096 60.9013 81.6387 60.7132 79.6704 59.3341C78.8492 60.4311 79.3757 61.8165 79.4008 63.0577C82.673 63.8914 86.033 62.5562 89.2739 63.4338C88.7536 63.9604 88.2333 64.4932 87.7256 65.0261L90.1265 65.1514L89.8507 64.3679C90.4587 64.3553 91.0668 64.3553 91.6748 64.3491C91.6748 63.8914 91.6686 62.97 91.6686 62.5123C98.2883 62.0547 104.927 62.644 111.553 62.6126C115.678 62.5061 119.758 63.1768 123.858 63.4276C121.896 64.2864 119.809 63.2583 117.784 63.252C110.274 63.1329 102.745 63.1392 95.2354 62.8007C94.0444 62.7694 92.8283 62.8446 91.7939 63.5153C93.662 64.1735 95.6241 64.512 97.5298 65.0386C97.605 67.5523 97.5486 70.0849 97.2728 72.5798C97.0722 72.7553 96.6772 73.0938 96.4766 73.2694C96.3638 72.8619 96.1256 72.047 96.0065 71.6458C92.5211 70.6804 88.9605 70.0285 85.4187 69.3013C84.7292 71.8213 84.0647 74.4165 82.5665 76.5917C80.1969 79.9894 77.5892 83.2303 75.4578 86.7846C74.3859 89.3297 74.5426 92.1819 74.273 94.8837C72.6871 109.665 72.2984 124.547 70.7062 139.328C70.1796 143.56 70.631 147.992 69.1202 152.048C71.7217 153.903 74.8498 154.655 77.8524 155.571C78.2223 155.339 78.962 154.881 79.3319 154.649L77.6769 155.865C80.7235 155.809 83.5757 157.226 86.6725 156.812C86.6913 157.081 86.7289 157.627 86.7539 157.896C84.1525 156.874 81.3504 157.044 78.6172 156.893L79.4196 156.266C78.5169 156.229 77.6142 156.191 76.7178 156.172C75.1945 155.031 73.3704 154.8 71.5336 154.774C70.656 154.047 69.9539 153.138 69.1453 152.342C69.2957 153.784 68.9196 155.376 69.4524 156.743C78.2098 160.134 87.8071 160.993 97.1286 160.316C100.658 159.984 104.256 159.438 107.459 157.84C107.234 154.812 107.234 151.784 107.503 148.763C107.415 140.614 107.804 132.471 108.237 124.334C108.475 120.504 109.503 116.786 109.885 112.981C106.249 115.32 103.059 118.291 99.3289 120.472C102.294 117.188 106.112 114.837 109.892 112.605C109.929 103.146 109.766 93.6864 109.735 84.2332C109.866 78.0962 109.133 71.9529 109.904 65.841C113.446 65.258 117.383 66.0228 120.561 64.0607C120.743 65.9162 120.178 68.01 121.401 69.5897C122.761 69.4329 124.128 69.3138 125.482 69.1383C128.221 68.9628 130.961 68.7873 133.662 68.3234C133.593 68.8625 133.531 69.4079 133.468 69.9532C129.381 69.8091 125.35 70.6741 121.263 70.5738C121.069 71.7712 120.975 73.0186 120.373 74.1094C120.285 72.8243 120.667 71.5956 120.855 70.3482C119.74 69.7213 118.423 70.3419 117.245 70.3168C118.618 74.31 119.194 78.51 119.746 82.6786C120.479 89.1855 121.445 95.7237 120.793 102.281C120.686 102.281 120.473 102.287 120.366 102.287C119.483 100.275 119.871 97.9052 118.887 95.9055C118.398 98.1998 119.132 100.488 119.219 102.782C119.47 102.82 119.978 102.895 120.235 102.933C120.197 103.34 120.128 104.155 120.097 104.556C119.57 104.412 119.044 104.262 118.524 104.117C116.235 106.443 113.947 108.781 111.321 110.737C111.258 111.721 111.195 112.712 111.139 113.702C114.324 114.674 116.906 117.006 118.561 119.852C116.436 117.883 114.606 115.414 111.716 114.505C115.715 127.299 114.461 140.846 115.019 154.029C118.937 155.52 122.968 157.508 127.237 157.282C130.754 158.341 134.433 157.157 138.013 157.401C139.749 156.693 141.58 156.348 143.429 156.116C146.074 155.777 148.444 154.511 150.983 153.809C148.807 132.684 148.851 111.377 146.275 90.295C143.216 86.9852 140.05 83.6816 137.825 79.7261C140.57 82.6974 142.326 86.8159 146.043 88.7341C144.564 85.3741 141.661 82.9544 139.649 79.9329C137.474 77.2562 136.464 73.89 134.521 71.0691C134.208 70.1664 133.976 69.2323 133.919 68.2732C136.489 67.9535 139.198 67.7279 141.498 66.4365C141.975 63.9667 141.323 61.4153 141.504 58.9141C138.452 59.1586 135.957 61.3088 132.885 61.3903ZM79.4133 63.3461C79.313 64.7816 79.2253 66.2234 79.125 67.6652C83.1056 67.6965 87.011 68.455 90.9163 69.1132C92.8032 69.6837 94.7277 70.1288 96.6271 70.6428C96.6083 69.0882 96.5581 67.5335 96.4202 65.9852C94.9032 65.5777 93.3736 65.1891 91.8629 64.7628C91.4492 65.8097 91.1483 66.9067 90.8599 67.9974C90.7847 67.2326 90.722 66.4679 90.6656 65.6968C89.3178 65.4774 87.431 64.6813 87.1739 66.7186C87.3369 65.9538 87.4936 65.1828 87.6441 64.418C87.0298 64.4744 85.8074 64.581 85.1993 64.6311L84.6477 64.581C82.9677 63.9103 81.1874 63.6094 79.4133 63.3461ZM84.748 63.7222C84.9423 64.6625 86.5345 64.0983 87.2429 64.1861C87.2492 64.0168 87.2742 63.672 87.2868 63.4965C86.3966 63.2771 85.5504 63.3523 84.748 63.7222ZM116.486 66.681C116.812 67.6526 117.132 68.6243 117.445 69.6022C118.104 69.6523 119.42 69.7589 120.078 69.8153C119.721 69.4831 119.37 69.1634 119.019 68.8374C118.893 68.1541 118.73 67.4834 118.517 66.8252C118.009 66.7938 116.994 66.7186 116.486 66.681ZM111.214 67.0195C110.832 68.8061 111.101 70.6365 111.177 72.4419C112.537 75.9837 112.136 79.8389 112.299 83.55C112.267 85.4368 112.625 87.3926 112.029 89.2294C111.346 83.8571 112.28 78.3658 111.221 73.0374C110.863 83.3306 111.246 93.6613 111.208 103.961C111.509 102.08 111.296 100.143 111.841 98.3001C112.042 102.061 111.891 105.823 111.973 109.584C114.28 107.904 116.355 105.929 118.354 103.892C116.712 97.5291 116.781 90.9407 116.104 84.4464C116.455 83.8947 116.8 83.3431 117.151 82.7977C117.596 86.6843 117.684 90.6586 118.818 94.4324C119.125 86.0261 117.289 77.7201 115.464 69.5646C115.439 73.5765 116.762 77.4568 117.013 81.4625C116.655 82.0079 116.292 82.5532 115.935 83.1049C115.389 78.184 114.85 73.2004 113.415 68.4425C113.239 67.3517 112.474 66.1231 111.214 67.0195ZM79.3883 68.6682C79.5826 69.0568 79.9713 69.8404 80.1593 70.2353C79.1626 70.2855 77.8274 70.4046 77.6519 71.6395C76.2665 75.432 76.3542 79.5443 76.1035 83.5186C77.4325 80.8294 79.7519 78.5915 80.2596 75.5574C80.5542 76.0652 80.8489 76.5729 81.1435 77.0807L80.9993 75.4007L81.8957 75.8897C82.7232 73.6016 83.3438 71.2258 83.325 68.7685C82.3596 70.1789 81.9145 71.8464 82.1966 73.5452C81.9271 73.6517 81.3817 73.8649 81.1122 73.9652C81.1874 73.3697 81.3441 72.1786 81.4193 71.5831L80.9617 70.9123L79.7456 70.8246C80.5542 70.5738 81.4319 70.135 82.2217 70.8873C82.2907 70.4297 82.4348 69.5082 82.5038 69.0506C81.4945 68.7434 80.4289 68.7497 79.3883 68.6682ZM136.527 69.7777C138.326 75.3067 141.718 80.0709 145.416 84.4777C144.375 79.1807 143.792 73.7834 142.338 68.5741C140.376 68.8625 138.464 69.3765 136.527 69.7777ZM150.017 156.442C149.403 156.31 148.795 156.154 148.193 155.984C148.563 155.84 149.309 155.558 149.685 155.414C149.622 155.251 149.503 154.919 149.447 154.756C147.359 155.646 145.523 157.2 143.078 156.574C141.786 157.401 140.257 157.583 138.765 157.721C130.76 159.018 122.322 158.247 114.825 155.063C114.825 155.752 114.825 157.138 114.825 157.827C120.404 160.51 126.767 160.836 132.854 160.774C139.022 160.391 145.447 159.952 151.052 157.106C150.958 156.047 150.845 154.994 150.701 153.941C150.437 154.762 150.212 155.596 150.017 156.442Z" fill="black"/>
<path d="M129.098 63.2522C132.653 63.3274 136.339 62.4686 139.692 63.9981L139.009 64.0984L139.573 64.5623C138.984 64.299 138.401 64.042 137.812 63.7913C136.621 64.0734 135.392 64.1486 134.176 63.9981C132.214 64.5372 130.151 64.4432 128.133 64.4996C128.377 64.1862 128.86 63.5656 129.098 63.2522Z" fill="black"/>
<path d="M124.19 64.1612C125.03 63.8039 125.964 63.5406 126.867 63.3713C128.628 64.5248 124.428 65.3397 124.19 64.1612Z" fill="black"/>
<path d="M105.152 65.0766C105.17 64.8134 105.202 64.2743 105.22 64.0047C105.258 64.362 105.333 65.0766 105.377 65.434C106.18 65.5154 107.784 65.6847 108.593 65.7662C108.436 65.4277 108.135 64.7569 107.985 64.4247C109.157 64.3557 110.329 64.2868 111.508 64.2931C110.781 64.5187 110.047 64.7319 109.314 64.9325C109.026 71.2701 106.543 77.2065 105.747 83.4689C104.456 83.7447 105.227 81.5758 104.757 80.8987C104.92 82.2277 104.863 83.6256 105.296 84.8981C105.822 86.4778 105.352 88.1641 105.415 89.7877C105.239 92.2826 105.747 94.8026 105.352 97.2787C105.083 97.2787 104.531 97.2725 104.261 97.2725L103.49 96.2507L103.139 96.5704C103.39 97.4731 103.622 98.3883 103.754 99.3161C102.744 98.5952 102.907 97.3038 102.744 96.2319C102.368 88.5653 103.967 81.0241 105.195 73.5143C106.568 72.5802 106.205 71.0946 106.092 69.7029C107.534 69.6465 107.659 68.5369 107.703 67.4399C105.603 66.8632 103.453 66.531 101.296 66.2802C100.983 67.3208 100.695 68.3677 100.419 69.4146C102.299 69.5775 104.18 69.6716 106.067 69.7844C104.468 71.1698 102.299 70.5805 100.406 70.4426C100.193 72.0349 100.017 73.6334 99.7041 75.2131C99.3781 74.4922 98.9894 73.7023 99.1963 72.8874C99.4972 70.2859 99.8984 67.6844 100.475 65.1268C102.03 64.9951 103.597 64.9638 105.152 65.0766Z" fill="black"/>
<path d="M80.8923 74.3856C82.2714 74.0659 81.0427 76.2724 80.5412 74.8307L80.8923 74.3856Z" fill="black"/>
<path d="M92.6098 157.363C97.3928 156.994 102.182 156.254 106.708 154.624C106.52 154.9 106.144 155.452 105.962 155.727C103.461 156.248 100.979 156.868 98.4961 157.476C95.0107 157.182 91.2997 158.642 87.8958 157.357C89.463 157.044 91.0427 157.207 92.6098 157.363Z" fill="black"/>
</svg>
