<svg width="219" height="219" viewBox="0 0 219 219" fill="none" xmlns="http://www.w3.org/2000/svg">
<path d="M93.3837 57.3254C94.6885 57.1073 95.5432 55.8055 96.9071 55.7714C98.8734 55.601 100.451 56.9369 102.251 57.4458C106.757 58.7499 111.569 58.4046 116.093 57.3868C118.257 56.8733 120.45 55.517 122.714 56.3917C123.992 56.9619 125.238 57.614 126.499 58.2206C127.131 58.4478 127.006 59.1975 127.002 59.7291C128.116 60.0813 129.17 60.5902 130.225 61.0855C134.044 62.8985 137.945 64.5842 141.505 66.8857C143.121 67.9489 144.685 69.1758 145.737 70.8229C146.405 71.2909 147.312 71.4545 147.778 72.1951C149.215 74.2921 150.168 76.6663 151.191 78.9814C152.686 82.4438 153.889 86.022 155.019 89.6162C156.323 94.2805 157.246 99.0379 158.537 103.704C159.131 105.949 159.551 108.237 159.863 110.536C160.315 113.517 160.731 116.504 161.031 119.503C161.468 122.209 161.756 124.972 161.477 127.71C161.47 128.473 160.738 129.041 160.849 129.822C161.013 130.74 161.404 131.615 161.424 132.562C161.515 133.707 161.206 134.825 161.074 135.957C160.808 137.763 161.024 139.596 160.865 141.411C160.749 141.952 160.479 142.447 160.367 142.99C160.256 143.545 160.57 144.058 160.636 144.599C160.586 145.153 160.304 145.653 160.124 146.173C159.26 148.298 160.02 150.645 159.472 152.828C158.965 154.355 157.867 155.654 157.678 157.292C157.31 158.742 157.687 160.216 157.651 161.675C157.351 162.495 156.314 162.556 155.582 162.736C152.9 163.095 150.054 163.17 147.492 162.188C146.426 161.772 145.078 160.905 145.41 159.566C145.746 158.31 146.176 157.056 146.137 155.736C146.224 154.636 145.685 153.63 145.598 152.551C145.223 150.622 144.796 148.693 144.125 146.844C143.903 146.278 143.98 145.655 144.13 145.085C144.612 143.14 144.507 141.121 144.455 139.135C144.391 137.104 144.689 135.05 144.291 133.039C143.875 130.756 142.762 128.573 142.978 126.201C142.966 125.079 143.607 124.093 143.728 123C143.557 122.273 143.118 121.648 142.884 120.944C142.284 119.424 142.291 117.768 142.034 116.177C141.809 114.257 141.35 112.381 140.954 110.493C140.598 108.832 140.632 107.108 140.2 105.461C140.277 110.418 140.911 115.343 140.993 120.299C141.254 124.229 141.095 128.175 140.825 132.103C140.488 135.139 140.229 138.203 139.486 141.177C139.159 142.677 138.07 143.929 138.031 145.503C137.79 147.075 138.227 148.738 137.599 150.245C137.206 151.253 136.21 151.851 135.233 152.196C131.014 153.553 126.542 153.78 122.139 153.793C116.386 153.748 110.635 154.023 104.879 153.989C100.931 153.95 96.973 154.048 93.0427 153.612C90.5649 153.355 88.0463 153.073 85.714 152.151C84.682 151.762 83.7773 150.942 83.4817 149.856C83.1589 148.429 83.2385 146.955 83.1271 145.505C82.9339 143.561 81.645 141.97 81.1881 140.101C80.5743 138.024 80.6698 135.843 80.5903 133.705C80.3266 128.171 80.5584 122.629 80.9449 117.109C81.3677 111.967 81.6791 106.817 81.72 101.657C81.6655 100.551 81.5927 99.4423 81.6359 98.3313C81.0722 98.9379 80.4243 99.4536 79.8106 100.003C79.5787 100.176 79.4923 100.451 79.4469 100.721C79.0763 102.616 78.5171 104.481 78.3762 106.415C78.1125 108.773 78.1852 111.179 77.6056 113.496C77.2078 115.041 76.7531 116.575 76.1371 118.049C75.6075 119.056 76.228 120.151 76.1939 121.21C76.4008 123.47 74.6846 125.215 74.1595 127.301C73.573 129.152 73.923 131.124 73.548 133.012C73.3275 133.98 73.4002 134.98 73.3343 135.963C73.2593 137.708 72.7637 139.43 72.9456 141.187C73.041 142.5 73.5957 143.736 73.6343 145.058C73.7275 146.596 73.1433 148.07 73.1229 149.604C73.1047 150.89 72.9706 152.171 72.9842 153.459C73.0206 155.207 73.3116 156.935 73.5389 158.664C73.6616 159.403 73.3593 160.212 72.6933 160.591C71.0952 161.541 69.2198 162.002 67.3649 162.006C65.5441 162.025 63.6665 162.122 61.9093 161.563C61.3569 161.357 60.625 160.984 60.7114 160.28C60.8818 158.683 61.0955 157.024 60.5613 155.468C60.2976 154.47 59.6952 153.621 59.3361 152.667C58.9746 150.64 59.2702 148.541 58.7701 146.535C58.5905 145.799 58.0676 145.158 58.0813 144.376C58.0722 143.758 58.4927 143.268 58.8133 142.781C58.3836 140.548 57.1084 138.501 57.1243 136.181C57.2152 135.277 57.2357 134.369 57.2811 133.46C57.3402 132.376 58.1677 131.545 58.3927 130.506C58.5359 129.936 58.3041 129.37 58.1972 128.816C57.6744 126.042 56.5605 123.227 57.2766 120.38C57.8699 118.847 58.8769 117.452 59.0769 115.782C59.327 114.655 59.2452 113.496 59.3315 112.354C59.8998 107.844 60.5931 103.341 61.7411 98.9379C62.8777 94.1737 64.0916 89.4254 65.6237 84.7725C66.4625 81.7236 67.5559 78.7451 68.8652 75.8666C69.7359 73.8991 71.2521 72.3315 72.3909 70.5298C73.357 70.1413 74.1504 69.512 74.7778 68.6782C77.6124 66.1632 81.1267 64.616 84.4342 62.8348C86.3664 61.8057 88.5395 61.3013 90.4536 60.2449C90.665 59.5974 90.8696 58.8204 91.6197 58.6159C91.8902 57.8412 92.6199 57.4663 93.3837 57.3254ZM96.3456 57.0732C95.8183 57.5095 95.8683 58.2478 96.0206 58.8453C96.2342 58.2206 96.5207 57.6253 96.8935 57.0778C97.0139 57.155 97.1367 57.2346 97.2594 57.3118C96.7457 57.6753 96.5889 58.2819 96.4888 58.8613C96.7707 58.9953 97.0549 59.1293 97.3367 59.2634C97.7209 58.7272 98.0005 58.1274 98.1619 57.489L98.3892 57.5526C98.3665 57.414 98.3233 57.1369 98.3006 56.9983C97.6754 56.7893 96.8957 56.5666 96.3456 57.0732ZM118.568 57.5958C119.105 58.4069 119.466 59.3134 119.964 60.1449C120.137 60.3153 120.294 60.4993 120.434 60.697C120.562 60.6424 120.821 60.5334 120.95 60.4789C120.634 59.4565 119.891 58.6386 119.462 57.6639C119.555 57.6708 119.739 57.6821 119.83 57.6889C120.348 58.5364 120.748 59.4497 121.241 60.313C121.496 60.2403 121.935 60.3244 121.885 59.9222C121.523 59.0884 120.96 58.3637 120.541 57.5594C120.584 57.4345 120.669 57.1823 120.712 57.0551C119.989 57.2073 119.277 57.3959 118.568 57.5958ZM120.73 57.0301C121.139 57.8048 121.494 58.6136 121.978 59.3474C122.705 59.5428 122.398 58.5727 122.171 58.2524C122.314 58.2092 122.601 58.1229 122.744 58.0797C122.805 57.3482 122.053 57.021 121.439 56.9687C121.594 57.3391 122.267 57.564 122.128 58.0229C121.605 58.2251 121.626 57.3686 121.494 57.0551C121.303 57.0505 120.921 57.0369 120.73 57.0301ZM97.4049 59.6223C97.1549 59.5905 96.6571 59.5269 96.4093 59.4951C96.7844 60.0381 97.5118 60.9446 98.2324 60.5198C98.2415 59.6382 98.6165 58.8635 99.1075 58.1547C99.1575 58.1342 99.2553 58.0911 99.303 58.0706C98.8507 58.7681 98.6711 59.5837 98.5733 60.3971C99.3871 59.7677 99.619 58.6409 100.228 57.823C99.6963 57.6072 99.1666 57.3845 98.6506 57.1346C98.4256 58.0479 98.0869 58.9453 97.4049 59.6223ZM91.9266 59.7041C91.9607 60.179 92.0539 60.647 92.2175 61.0968C93.0632 60.3244 94.1588 59.5837 95.3545 59.7087C94.2316 59.9768 93.2132 60.5288 92.2607 61.1695C92.4403 61.5853 92.6267 62.001 92.8177 62.4145C93.8497 61.9124 94.793 61.0241 96.0024 61.0537C94.8976 61.4512 93.9202 62.1033 92.9541 62.753C93.1495 63.0734 93.345 63.396 93.5405 63.7186C94.6089 62.978 95.7523 62.3623 96.9344 61.8261C96.2138 60.6084 95.3818 59.2838 95.4159 57.8253C94.1861 58.3296 92.9472 58.8226 91.9266 59.7041ZM117.4 57.9707C117.873 59.0112 118.359 60.0449 118.864 61.0673C119.316 60.9673 119.768 60.8674 120.225 60.781C119.439 59.8836 118.823 58.7908 118.486 57.6458C118.123 57.748 117.759 57.8571 117.4 57.9707ZM100.317 57.8116C99.9782 58.6954 99.4281 59.4701 98.9416 60.2744C98.6984 60.3403 98.5415 60.4879 98.471 60.7174C99.2212 60.9696 100.01 61.0696 100.787 61.2104C101.231 60.2744 101.669 59.3361 101.99 58.3501C101.781 58.291 101.367 58.1729 101.158 58.1138C100.835 58.8726 100.487 59.6201 100.135 60.3675C100.06 60.5743 99.9213 60.722 99.7213 60.8128C100.105 59.9018 100.608 59.0475 101.065 58.1706C100.878 58.082 100.506 57.9025 100.317 57.8116ZM116.031 58.2865C116.463 59.1748 116.961 60.0381 117.238 60.9946C117.586 61.5444 118.261 61.14 118.757 61.09C118.223 60.1063 117.557 59.1521 117.338 58.0365C116.9 58.1024 116.463 58.191 116.031 58.2865ZM123.431 57.9275C123.212 59.302 122.36 60.4357 121.751 61.6512C122.949 62.0442 124.017 62.7258 125.183 63.187C125.567 62.4077 126.061 61.6466 126.192 60.7742C125.656 59.8745 124.192 59.9836 123.76 59.0339C124.59 59.3315 125.335 59.8223 126.179 60.0858C126.165 59.9154 126.133 59.5746 126.12 59.4042C125.306 58.7726 124.356 58.3614 123.431 57.9275ZM102.14 58.425C101.808 59.3906 101.451 60.3607 100.892 61.2218C101.315 61.3513 101.751 61.4217 102.19 61.4717C102.595 60.5561 102.992 59.6337 103.222 58.6568C102.861 58.5773 102.499 58.5 102.14 58.425ZM114.702 58.55C115.32 59.4042 115.713 60.4266 115.693 61.4944C116.227 61.4467 116.761 61.399 117.3 61.3763C116.936 60.3425 116.37 59.3974 116.011 58.3637C115.57 58.4069 115.133 58.475 114.702 58.55ZM103.27 58.6681C103.07 59.6587 102.767 60.647 102.22 61.5035C102.761 61.5512 103.302 61.5921 103.843 61.6307C104.063 60.7583 104.272 59.8791 104.59 59.0339C104.468 59.9291 104.109 60.7674 103.961 61.658C107.366 61.6035 110.771 61.6739 114.176 61.5921C114.092 60.6152 113.804 59.6769 113.574 58.7295C110.989 59.0521 108.375 59.1043 105.775 58.9726C105.961 59.7359 105.802 60.5266 105.641 61.2786C105.772 60.5038 105.609 59.7291 105.661 58.9521C104.859 58.8931 104.063 58.7863 103.27 58.6681ZM113.624 58.7045C113.947 59.6428 114.233 60.6061 114.281 61.6035C114.729 61.5694 115.179 61.5353 115.627 61.499C115.52 60.4652 115.183 59.4883 114.67 58.5886C114.32 58.625 113.972 58.6636 113.624 58.7045ZM126.804 61.0218C126.706 61.733 126.465 62.4168 126.09 63.0302C126.338 63.2847 126.633 63.4801 126.929 63.68C127.045 63.5459 127.163 63.4096 127.284 63.2756C127.083 63.0598 126.881 62.8439 126.679 62.6304C127.177 62.8371 127.684 62.3305 127.343 61.8352C127.479 61.7148 127.615 61.5921 127.754 61.4717C127.427 61.3399 127.115 61.1809 126.804 61.0218ZM97.3367 61.2468C98.0869 61.867 98.8689 62.4509 99.669 63.0075C101.388 64.3229 103.515 64.9364 105.629 65.2249C105.643 64.9 105.675 64.2525 105.688 63.9276C105.729 64.2071 105.809 64.7682 105.847 65.05L106.12 64.9341L106.093 65.1726C106.805 65.3453 107.573 65.0613 108.25 65.3589C109.25 65.318 110.248 65.3021 111.251 65.3794C111.351 65.3067 111.553 65.1636 111.655 65.0909C111.717 65.1431 111.84 65.2499 111.901 65.3021C112.61 65.2294 113.324 65.2703 114.031 65.1976C115.631 64.9841 117.12 64.2752 118.486 63.4437C118.948 63.0802 119.696 62.7281 119.518 62.0147C119.705 62.0192 120.075 62.0306 120.262 62.0374C120.514 61.8602 120.769 61.6852 121.021 61.5035C118.066 62.201 115.013 62.4191 111.985 62.3577C112.078 63.1438 112.04 63.9344 111.965 64.7205C110.432 64.8273 108.896 64.7614 107.359 64.8023C106.959 64.8 106.409 64.85 106.22 64.3979C106.02 63.7345 106.159 63.0416 106.225 62.3691C105.097 62.544 103.956 62.4032 102.836 62.2669C102.413 62.5713 103.088 63.1097 102.933 63.5414C102.822 63.3415 102.756 63.1256 102.736 62.8962L102.438 62.9325C102.435 62.694 102.438 62.4532 102.442 62.2123C100.719 62.0215 99.0416 61.5467 97.3367 61.2468ZM90.6536 61.9465C90.8082 62.1828 90.9696 62.4168 91.1264 62.6554C91.1287 62.8189 91.131 63.1484 91.1332 63.3119C91.3219 63.2074 91.7038 62.9961 91.8948 62.8916C91.7538 63.2347 91.6106 63.5778 91.4765 63.9254C91.056 63.7027 90.8014 63.346 90.9287 62.8644C90.7332 62.5259 90.5536 62.1828 90.3763 61.8375C86.1732 63.6868 81.9723 65.6111 78.1466 68.1716C77.035 68.9031 75.8393 69.5824 75.0528 70.6911C77.7738 73.0244 78.8899 76.58 80.0674 79.8424C81.52 84.2477 82.2883 88.8529 82.6998 93.4649C83.2544 101.651 83.0635 109.875 82.3792 118.047C81.9178 124.463 81.8451 130.906 82.1065 137.333C82.1337 139.151 82.9294 140.809 83.6068 142.454C83.7477 142.747 83.8454 143.129 84.2001 143.236C85.9277 143.945 87.803 144.113 89.6102 144.533C91.3446 144.899 93.0882 145.271 94.8567 145.428C95.8774 145.426 96.8821 145.619 97.8914 145.755C102.472 146.185 107.077 146.262 111.671 146.482C115.995 146.635 120.319 146.435 124.638 146.235C126.62 146.005 128.622 145.939 130.591 145.624C132.826 144.999 135.017 144.224 137.224 143.508C138.222 142.182 138.283 140.45 138.615 138.887C139.29 135.375 139.468 131.797 139.615 128.232C139.816 125.592 139.695 122.941 139.672 120.296C139.388 113.705 139.038 107.115 138.515 100.537C138.411 99.515 138.383 98.4563 137.915 97.5157C137.845 101.364 138.249 105.22 137.947 109.062C137.554 108.414 137.697 107.612 137.576 106.892C137.54 105.149 137.413 103.409 137.404 101.666C137.179 96.7819 137.947 91.9245 138.727 87.1171C139.502 83.5888 139.991 79.9083 141.686 76.6686C141.809 76.2914 142.225 76.2891 142.539 76.1778C140.998 78.8382 140.47 81.9235 139.804 84.8884C139.259 87.1217 138.956 89.4049 138.663 91.6837C138.49 93.1354 138.215 94.5804 138.179 96.0458C138.874 96.1412 139.04 96.9 139.315 97.4248C140.191 99.4764 141.686 101.369 141.759 103.675C140.713 102.712 140.55 101.201 139.731 100.085C140.006 101.196 140.013 102.353 140.293 103.464C140.52 104.361 141.234 105.047 141.427 105.963C142.189 109.273 142.725 112.631 143.316 115.975C143.628 117.638 143.505 119.447 144.378 120.955C145.08 119.029 146.883 117.677 148.722 116.9C148.97 116.77 149.615 116.6 149.599 117.063C149.527 117.156 149.383 117.345 149.311 117.438C149.406 117.524 149.602 117.695 149.697 117.779C149.249 117.995 148.685 118.149 148.326 117.699C146.856 118.488 145.664 119.692 144.678 121.021C144.637 121.278 144.73 121.628 145.042 121.653C145.928 120.353 146.783 118.874 148.269 118.186C147.149 119.571 145.839 120.866 145.142 122.532C144.978 123.779 144.446 124.947 144.376 126.212C144.228 127.366 144.678 128.471 144.912 129.582C145.296 131.554 145.942 133.496 145.901 135.529C145.858 137.342 145.839 139.155 145.785 140.966C145.68 142.243 145.928 143.577 145.464 144.803C145.364 145.171 145.164 145.544 145.246 145.937C145.492 147.08 145.985 148.148 146.283 149.272C146.499 150.336 146.571 151.424 146.828 152.48C147.769 152.462 148.708 152.36 149.652 152.364C150.795 152.36 151.913 152.642 153.055 152.701C154.716 152.794 156.226 153.573 157.862 153.805C158.778 151.671 158.035 149.272 158.608 147.062C158.785 145.839 159.531 144.731 159.381 143.463C159.322 142.691 159.585 141.948 159.615 141.182C159.767 138.828 159.933 136.475 160.208 134.132C160.27 132.751 160.29 131.281 159.772 129.984C159.276 130.897 158.928 131.883 158.653 132.883C158.126 134.946 157.683 137.033 157.417 139.146L156.96 139.292C157.537 135.661 157.996 131.885 159.89 128.657C160.467 127.819 160.267 126.76 160.233 125.808C160.113 124.272 160.151 122.723 159.917 121.196C159.324 116.211 158.858 111.188 157.658 106.301C157.062 103.993 156.378 101.705 155.919 99.365C155.105 95.4551 154.066 91.5973 152.836 87.7987C151.118 82.6869 149.197 77.5841 146.315 72.9994C146.005 72.4201 145.344 72.2565 144.81 71.9702C144.373 71.484 144.1 70.8638 143.6 70.4299C141.836 68.8827 139.85 67.6172 137.822 66.4472C135.562 65.1636 133.153 64.1844 130.846 62.9961C129.884 62.5372 128.92 62.0874 127.956 61.6375C127.945 61.7966 127.92 62.1124 127.909 62.2714C127.611 62.485 127.424 62.8825 127.595 63.2392C127.427 63.4414 127.261 63.6391 127.09 63.8368C126.986 64.0367 126.879 64.2343 126.77 64.4297C126.504 64.0412 126.329 63.446 125.758 63.4619C125.811 63.8504 125.608 64.1934 125.401 64.4956C123.442 67.5173 120.166 69.3961 116.87 70.6389C116.863 70.757 116.85 70.9933 116.843 71.1114L117.25 70.8956C117.172 71.1773 117.091 71.459 117.007 71.7385C116.761 71.6204 116.622 71.4363 116.593 71.1864C116.475 71.0728 116.359 70.9615 116.243 70.8502C115.07 71.2523 113.86 71.5636 112.637 71.7726C107.816 72.3724 102.897 71.2296 98.5688 69.1076C97.4663 68.4965 96.4093 67.8035 95.3841 67.072C93.4269 65.627 92.5653 63.2733 91.3424 61.2672C91.1105 61.4944 90.8809 61.7193 90.6536 61.9465ZM118.104 64.6365C118.809 65.8088 119.318 67.0811 119.914 68.3102C120.6 67.9512 121.226 67.4945 121.86 67.0583C121.139 66.0882 120.382 65.1431 119.698 64.148C119.964 64.2343 120.198 64.3956 120.353 64.6365C120.916 65.3976 121.494 66.1564 121.923 67.0061C122.476 66.579 122.996 66.1109 123.515 65.6429C122.858 64.6024 121.678 64.0571 120.944 63.0847C122.012 63.6914 122.919 64.5433 123.737 65.4498C124.231 64.8069 124.726 64.1639 125.174 63.4892C123.965 63.0098 122.812 62.3918 121.694 61.733C120.789 63.0166 119.437 63.8617 118.104 64.6365ZM93.7133 63.9072C94.0861 64.4865 94.4794 65.0545 94.8794 65.6179C95.8705 64.6274 96.9457 63.7209 98.0801 62.8985C97.6936 62.5645 97.3117 62.2282 96.9367 61.8829C95.8637 62.5599 94.7271 63.137 93.7133 63.9072ZM106.877 62.36C106.811 62.5122 106.684 62.8144 106.62 62.9643C107.446 62.8485 108.278 62.9257 109.107 62.9462C108.468 63.496 107.507 63.0984 106.734 63.1506C106.748 63.3937 106.777 63.8799 106.791 64.123C107.677 64.1344 108.566 64.1707 109.453 64.1026C109.444 63.7345 109.594 63.7459 109.614 64.098C110.205 64.0821 110.88 64.2707 111.417 63.9572C111.626 63.4619 111.505 62.9098 111.417 62.4032C109.921 62.1737 108.375 62.1783 106.877 62.36ZM95.1227 65.602C95.1363 65.6679 95.1659 65.802 95.1818 65.8701C98.396 68.4465 102.27 70.1527 106.298 70.9729C106.454 69.4098 106.593 67.8399 106.902 66.2972C106.275 66.2609 105.65 66.22 105.034 66.1064C105.109 66.7289 104.813 67.3014 104.675 67.8899C104.452 68.6441 104.384 69.4484 104.029 70.1572C104.111 69.0008 104.424 67.8626 104.8 66.7698C105.041 66.5199 104.784 66.2677 104.69 66.036C103.506 65.9201 102.417 65.4271 101.31 65.0386C101.331 65.2022 101.376 65.5339 101.399 65.6997L101.176 65.5316C100.674 66.5063 100.535 67.6581 99.8781 68.5464C100.103 67.4673 100.571 66.4449 101.076 65.4703C101.072 65.2431 101.065 65.0159 101.058 64.7887C99.8986 64.5274 99.0393 63.6459 98.071 63.0211C97.2117 64.0185 96.0388 64.666 95.1227 65.602ZM116.47 65.4157C117.05 66.6857 117.666 67.9535 118.052 69.2984C118.677 69.0235 119.275 68.6941 119.864 68.3511C119.214 67.1583 118.6 65.9428 117.986 64.7319C117.47 64.9386 116.963 65.1636 116.47 65.4157ZM114.877 65.6861C114.881 67.1742 115.697 68.5192 115.718 70.0027C115.188 68.6987 114.842 67.3014 114.686 65.9019C114.051 66.0701 113.399 66.1291 112.751 66.195C113.092 67.7081 113.265 69.2553 113.392 70.7979C114.952 70.4344 116.525 70.0505 117.975 69.3552C117.484 68.0284 116.868 66.7562 116.331 65.4475C115.863 65.5475 115.345 66.011 114.877 65.6861ZM107.066 66.3222C106.834 67.4128 106.8 68.5305 106.636 69.6324C106.554 70.0936 106.686 70.6139 106.404 71.0228C107.139 71.041 107.866 71.1387 108.598 71.1614C108.609 69.5779 108.571 67.9876 108.7 66.4063C108.155 66.3722 107.611 66.3427 107.066 66.3222ZM108.871 66.3904C108.837 67.4832 108.819 68.5783 108.814 69.6733C108.723 70.1504 108.671 70.6321 108.673 71.116C109.414 71.2 110.16 71.166 110.903 71.1546C110.758 69.5574 110.96 67.9308 110.646 66.3518C110.055 66.3654 109.462 66.3722 108.871 66.3904ZM110.908 66.4267C110.896 67.9921 111.076 69.5484 111.044 71.1114C111.805 71.0569 112.565 70.9729 113.31 70.8115C113.019 69.2939 112.881 67.7535 112.642 66.2291C112.062 66.2904 111.485 66.3631 110.908 66.4267ZM73.2706 71.8975C71.6658 73.631 70.5133 75.7257 69.4926 77.8386C67.8423 81.5668 66.8376 85.529 65.5691 89.3913C64.969 91.5133 64.2984 93.6193 63.771 95.7618C62.8572 100.153 61.6934 104.497 61.1614 108.959C60.6022 112.113 60.8909 115.45 59.5566 118.436C58.8042 119.996 58.2018 121.712 58.47 123.47C58.8451 125.79 59.5338 128.046 59.993 130.347C59.7862 130.449 59.5725 130.54 59.3611 130.636C58.72 132.633 57.979 134.734 58.4268 136.859C58.8678 138.633 59.3679 140.398 60.0089 142.111C60.1271 142.47 60.2885 142.834 60.2726 143.22C60.0112 143.667 59.3997 144.011 59.5611 144.604C59.843 145.742 60.3977 146.816 60.4477 148.009C60.675 149.559 60.4067 151.113 60.5136 152.664C61.8275 152.405 63.1368 152.13 64.4325 151.803C66.9239 151.596 69.429 151.306 71.9295 151.587C71.9613 150.002 71.8135 148.377 72.3318 146.848C72.7978 145.59 72.3 144.283 72.0022 143.05C71.4657 140.671 72.2363 138.269 72.3091 135.893C71.6908 137.199 71.3589 138.678 70.4519 139.828C70.5633 138.506 71.3248 137.367 71.8294 136.17C71.984 136.091 72.1363 136.009 72.2886 135.925C72.1795 135.652 71.9545 135.391 72.0727 135.075C72.1977 134.003 72.1591 132.908 72.4477 131.86C72.741 130.686 72.6614 129.461 72.9138 128.28C71.0884 130.929 69.5926 133.794 68.4288 136.79C68.3469 136.804 68.181 136.829 68.0992 136.843C68.3742 135.414 69.0357 134.096 69.6131 132.771C70.661 130.677 71.7544 128.598 73.057 126.649C73.6866 125.794 73.6343 124.633 74.3959 123.854C75.1324 122.968 74.3027 121.837 74.6982 120.862C74.9528 120.083 74.7437 119.274 74.7073 118.481C75.121 117.297 75.7188 116.177 76.0371 114.955C76.735 112.828 76.6599 110.568 76.8645 108.364C77.2805 105.629 77.3283 102.782 78.3648 100.183C78.8104 98.9765 80.0811 98.429 80.7244 97.368C80.6107 97.0727 80.4607 96.7841 80.4175 96.4683C80.3698 91.7859 79.4241 87.1739 78.5444 82.596C79.0195 83.0027 79.1718 83.6411 79.3787 84.2068C80.2743 87.7692 80.6039 91.4406 80.9085 95.0916C80.9562 95.5618 80.9994 96.0412 81.1745 96.4842C81.4268 96.6864 81.7814 96.5751 82.0792 96.6115C82.1133 94.5054 81.8882 92.4039 81.6882 90.3092C81.1745 85.2155 79.6992 80.2627 77.7283 75.5508C77.0828 74.0513 76.3644 72.4973 75.1028 71.4113C74.4891 70.957 73.7162 71.4295 73.2706 71.8975ZM84.0637 143.817C84.7797 145.671 84.4637 147.698 84.6911 149.631C84.6933 150.306 85.523 150.522 85.9481 150.838C85.8595 150.663 85.6844 150.313 85.5958 150.136C85.7481 150.147 85.8981 150.158 86.0504 150.172C86.08 150.374 86.1095 150.576 86.1368 150.781C86.4937 150.972 86.8483 151.163 87.2029 151.365C87.2825 151.201 87.3507 151.033 87.4052 150.863C87.428 148.854 87.528 146.848 87.4848 144.842C86.8347 144.726 86.1891 144.581 85.5503 144.401C85.98 145.876 85.7867 147.427 85.889 148.941C85.9959 149.3 85.6958 149.559 85.548 149.845C85.4685 148.159 85.6026 146.437 85.2139 144.785C85.2889 144.74 85.4344 144.647 85.5094 144.601L85.5049 144.442C85.0093 144.272 84.5138 144.09 84.0637 143.817ZM135.451 144.874C135.426 145.369 135.381 145.867 135.265 146.355C135.224 147.527 135.199 148.702 135.19 149.877C134.99 150.19 134.767 150.492 134.487 150.74C135.231 148.897 134.894 146.878 135.062 144.944C134.665 145.09 134.269 145.24 133.873 145.392C133.844 147.414 133.701 149.454 133.228 151.428C134.399 151.108 136.078 151.042 136.504 149.645C136.956 147.886 136.656 146.035 136.999 144.256C136.49 144.479 135.972 144.683 135.451 144.874ZM87.6439 144.863C87.7394 147.062 87.8417 149.297 87.4939 151.478C87.994 151.528 88.4804 151.658 88.9601 151.796C89.0783 151.678 89.1988 151.56 89.317 151.447L89.0828 151.262C89.0078 149.209 88.8169 147.159 88.8237 145.101C88.4304 145.019 88.0372 144.94 87.6439 144.863ZM88.9374 145.137C89.1442 146.382 89.0692 147.65 89.2101 148.902C89.267 149.915 89.4056 150.929 89.3374 151.946C90.1649 151.969 90.9673 152.187 91.7856 152.283C96.0228 152.921 100.319 152.864 104.59 152.81C104.438 152.619 104.218 152.442 104.261 152.164C104.174 150.39 104.352 148.616 104.363 146.841C103.958 146.828 103.554 146.819 103.149 146.812C103.008 148.661 103.202 150.531 102.906 152.364C102.945 150.515 102.892 148.661 103.026 146.814C102.674 146.794 102.32 146.778 101.969 146.766C102.008 148.627 102.249 150.481 102.217 152.344C101.979 152.005 102.049 151.571 102.024 151.185C102.035 149.709 101.819 148.241 101.815 146.762C101.201 146.712 100.587 146.655 99.9759 146.591C100.078 148.136 100.217 149.681 100.276 151.231C100.28 151.681 100.424 152.151 100.221 152.58C99.9827 151.606 100.01 150.595 99.935 149.602C99.9031 148.602 99.6917 147.591 99.9168 146.601C98.6847 146.539 97.4572 146.398 96.232 146.248C96.2979 148.286 96.5957 150.313 96.6252 152.351C96.3752 152.194 96.3524 151.912 96.3524 151.646C96.307 149.822 95.9342 148.009 96.1001 146.18C95.4727 146.158 94.8476 146.126 94.2248 146.067C94.393 148.107 94.6794 150.138 94.8044 152.18C94.7567 152.124 94.6612 152.008 94.6135 151.951C94.318 150.729 94.293 149.456 94.1338 148.211C94.0861 147.489 93.952 146.755 94.1361 146.044C93.5974 145.969 93.0586 145.883 92.5267 145.78C92.4608 145.935 92.3949 146.094 92.3335 146.253C92.4835 146.978 92.454 147.721 92.504 148.457C92.5517 149.543 92.7927 150.624 92.6881 151.715C92.6222 151.767 92.4903 151.869 92.4221 151.921C92.4812 149.829 92.0107 147.748 92.213 145.655C91.6652 145.705 91.1287 145.567 90.5945 145.474C90.6013 145.601 90.6172 145.855 90.624 145.983L90.449 146.439L90.8332 146.298C90.8218 146.796 90.8536 147.293 90.9173 147.789C90.8423 147.505 90.7491 147.228 90.64 146.957C90.5877 147.718 90.6581 148.482 90.6513 149.243C90.2331 148.977 90.4558 148.42 90.3854 148.018C90.4649 147.157 90.1171 146.26 90.4808 145.437C89.9671 145.326 89.4534 145.219 88.9374 145.137ZM132.666 145.73C132.632 146.103 132.591 146.476 132.544 146.848C132.494 147.989 132.521 149.138 132.369 150.274C132.289 150.597 132.335 151.001 132.021 151.217C132.291 149.413 132.178 147.577 132.503 145.783C131.948 145.935 131.396 146.083 130.846 146.235C130.664 147.816 130.602 149.409 130.423 150.992C130.427 151.253 130.307 151.483 130.17 151.699C130.189 149.89 130.38 148.08 130.616 146.289C130.164 146.332 129.714 146.382 129.263 146.43C129.229 147.866 129.052 149.297 129.091 150.738C129.036 151.11 129.193 151.574 128.884 151.869C128.838 150.074 128.988 148.279 129.154 146.494C128.686 146.605 128.091 146.389 127.688 146.694C127.731 148.45 127.6 150.204 127.504 151.955L127.268 152.199C127.295 150.317 127.518 148.445 127.44 146.562C126.836 146.653 126.229 146.728 125.624 146.828C125.685 148.554 125.558 150.276 125.44 151.996C125.383 152.042 125.265 152.133 125.208 152.178C125.21 150.392 125.415 148.618 125.49 146.837C124.81 146.909 124.126 146.944 123.444 146.994C123.503 148.666 123.367 150.336 123.362 152.01C123.299 152.071 123.174 152.196 123.11 152.258C123.083 150.499 123.208 148.741 123.337 146.987C122.123 147.062 120.91 147.05 119.698 147.073C119.618 148.716 119.552 150.37 119.257 151.99C119.143 152.087 119.025 152.18 118.907 152.271C119.393 150.59 119.141 148.804 119.552 147.116C118.877 147.137 118.202 147.146 117.529 147.137C117.511 148.652 117.429 150.167 117.241 151.671C117.25 151.962 117.025 152.153 116.813 152.314C117.216 150.629 117.102 148.879 117.359 147.173C115.977 147.253 114.592 147.225 113.208 147.216C113.26 148.775 113.276 150.34 113.144 151.896C113.142 152.105 113.056 152.274 112.881 152.398C112.965 150.667 112.926 148.922 113.131 147.2C112.349 147.153 111.569 147.109 110.792 147.069C111.101 148.42 110.883 149.824 110.894 151.197C110.828 151.587 110.983 152.087 110.644 152.38C110.587 150.613 110.792 148.841 110.662 147.073C109.966 147.019 109.269 146.982 108.573 147.034L108.507 146.882C108.828 148.3 108.639 149.756 108.662 151.194C108.596 151.562 108.784 152.092 108.378 152.317C108.373 150.545 108.493 148.772 108.4 147C107.784 146.944 107.17 146.909 106.552 146.907C106.582 148.691 106.518 150.472 106.543 152.253L106.252 152.23C106.275 150.429 106.282 148.627 106.323 146.828C105.732 146.823 105.141 146.837 104.55 146.855C104.538 148.677 104.504 150.499 104.436 152.321C104.581 152.473 104.725 152.63 104.865 152.791C109.487 152.83 114.108 152.717 118.73 152.719C123.576 152.767 128.495 152.717 133.21 151.456C133.167 150.592 133.412 149.754 133.467 148.895C133.646 147.727 133.594 146.541 133.755 145.371C133.392 145.487 133.028 145.61 132.666 145.73ZM67.2967 152.137C67.5377 154.945 67.956 157.737 68.1083 160.555C68.5993 160.468 69.0925 160.389 69.5835 160.309C69.2744 157.558 68.9152 154.809 68.8516 152.037C68.3333 152.049 67.8127 152.08 67.2967 152.137ZM69.1016 151.994C69.0675 154.77 69.6313 157.503 69.8018 160.266C70.1768 160.164 70.5519 160.064 70.9247 159.957C70.6065 157.299 70.4542 154.62 70.4815 151.944C70.0223 151.946 69.5608 151.967 69.1016 151.994ZM70.6065 151.901C70.5633 154.591 71.027 157.251 71.1407 159.932C71.634 159.748 72.2864 159.566 72.4046 158.967C72.3227 156.965 71.8044 155.004 71.7863 152.998C71.7317 152.644 71.9204 152.11 71.4066 152.037C71.268 154.477 71.8249 156.876 72.0954 159.285C71.9431 159.044 71.8431 158.776 71.8181 158.494C71.4907 156.361 71.2361 154.205 71.2793 152.044C71.1111 152.008 70.7747 151.937 70.6065 151.901ZM64.8735 152.36C64.9395 154.468 65.1395 156.57 65.3986 158.664C65.4805 159.341 65.4805 160.028 65.4259 160.709C65.8396 160.693 66.2533 160.68 66.6671 160.673C66.2533 157.881 65.9919 155.063 65.9669 152.244C65.6009 152.278 65.2372 152.317 64.8735 152.36ZM66.051 152.226C66.1897 155.045 66.5034 157.856 66.7603 160.664C67.1672 160.63 67.5741 160.596 67.9832 160.566C67.6468 159.212 67.7105 157.81 67.5127 156.438C67.4218 155.009 67.1558 153.589 67.2354 152.151C66.8398 152.171 66.4466 152.196 66.051 152.226ZM63.1777 152.776C63.421 153.523 63.5846 154.293 63.6915 155.073C63.9734 156.915 64.3712 158.771 64.2143 160.648C64.4825 160.659 65.0167 160.684 65.285 160.696C65.2395 157.928 64.628 155.195 64.7326 152.423C64.212 152.532 63.6938 152.648 63.1777 152.776ZM61.9752 152.976C62.3526 155.354 63.0459 157.701 63.0186 160.128C62.9686 160.171 62.8663 160.252 62.8163 160.296C62.7731 160.248 62.6845 160.153 62.6413 160.105C62.6504 157.703 62.2139 155.332 61.7661 152.982C61.5706 153.055 61.1796 153.2 60.9841 153.273C61.9911 155.509 61.8229 157.987 62.0184 160.371C62.6936 160.462 63.3664 160.559 64.0416 160.639C63.8074 159.703 63.9302 158.73 63.8029 157.781C63.596 156.136 63.23 154.511 63.0482 152.862C62.6867 152.878 62.3299 152.914 61.9752 152.976ZM146.771 153.205C147.258 155.472 147.131 157.91 146.392 160.112C146.531 160.248 146.806 160.523 146.944 160.659C147.106 160.402 147.294 160.137 147.283 159.816C147.647 157.678 147.553 155.502 147.472 153.348L147.208 153.194C147.467 153.196 147.731 153.196 147.994 153.191L147.744 153.366C147.785 155.252 147.876 157.151 147.676 159.03C147.576 159.516 147.624 160.087 147.217 160.446C147.278 160.536 147.403 160.714 147.465 160.805C147.869 160.898 148.265 161.018 148.663 161.148C148.635 160.986 148.579 160.664 148.551 160.502C148.72 159.216 148.906 157.928 149.033 156.638C149.045 155.459 148.981 154.277 149.036 153.098C148.279 153.046 147.51 153.01 146.771 153.205ZM149.149 153.05C149.465 155.768 149.124 158.505 148.754 161.198C149.181 161.273 149.611 161.354 150.038 161.443C150.122 160.071 150.249 158.703 150.37 157.333C150.459 155.929 150.377 154.518 150.449 153.114C150.015 153.085 149.583 153.064 149.149 153.05ZM150.586 153.148C150.752 154.907 150.654 156.679 150.515 158.437C150.477 159.457 150.399 160.482 150.133 161.47C150.561 161.509 150.988 161.55 151.418 161.597C151.761 158.853 151.797 156.086 152.034 153.334C151.552 153.269 151.07 153.2 150.586 153.148ZM152.168 153.35C152.261 155.057 152.038 156.761 151.982 158.467C151.877 159.523 151.936 160.63 151.463 161.611C151.982 161.613 152.504 161.618 153.027 161.62C153.232 159.064 153.561 156.513 153.618 153.95C153.677 153.946 153.8 153.939 153.859 153.934C153.716 156.131 153.618 158.33 153.425 160.523C153.409 160.905 153.255 161.252 153.125 161.604C153.582 161.582 154.043 161.561 154.503 161.538C154.68 158.994 154.764 156.424 155.209 153.907C154.223 153.593 153.193 153.45 152.168 153.35ZM155.448 154.046C155.096 156.524 154.878 159.023 154.698 161.52C155.062 161.463 155.428 161.4 155.794 161.332C155.753 161.195 155.673 160.925 155.632 160.791C155.716 158.546 155.982 156.274 156.682 154.132C156.269 154.1 155.857 154.073 155.448 154.046ZM156.78 154.636C156.087 156.817 156.096 159.126 155.819 161.375C155.996 161.329 156.353 161.236 156.532 161.191C156.582 158.994 156.492 156.679 157.305 154.616C157.351 154.345 156.76 154.339 156.78 154.636Z" fill="black"/>
<path d="M110.869 63.4209C110.442 63.3391 109.819 63.3505 109.778 62.778C110.139 62.8438 110.501 62.9097 110.862 62.9756C110.864 63.0869 110.867 63.3096 110.869 63.4209Z" fill="black"/>
<path d="M109.314 62.944C109.589 62.9622 109.712 63.1053 109.682 63.378C109.326 63.4325 109.203 63.2871 109.314 62.944Z" fill="black"/>
<path d="M91.997 64.3615C92.1561 64.332 92.4766 64.2752 92.638 64.2479C92.5403 64.4524 92.4425 64.6569 92.3448 64.8614C92.3925 65.0863 92.4425 65.3135 92.4857 65.5407C92.2493 65.1817 92.0425 64.7955 91.997 64.3615Z" fill="black"/>
<path d="M125.81 64.432C126.117 64.5433 126.413 64.6842 126.706 64.8341C126.477 65.134 126.24 65.4248 125.988 65.702C125.524 66.4517 125.051 67.2015 124.451 67.8512C124.453 67.6967 124.46 67.39 124.462 67.2355C124.713 67.1197 124.965 67.0015 125.217 66.8834C125.065 66.6153 124.865 66.3904 124.617 66.2063C124.444 66.4722 124.556 66.9765 124.174 67.0788C123.635 67.3014 123.519 67.9466 123.189 68.376C122.876 68.501 122.592 68.6805 122.346 68.9099C122.319 68.8259 122.26 68.6578 122.232 68.5737C123.089 67.7354 124.04 66.9652 124.71 65.9542C124.872 66.2427 125.074 66.5062 125.31 66.7403C125.385 66.5971 125.538 66.3086 125.613 66.1632C125.479 65.8383 125.081 65.527 125.397 65.1772C125.622 65.3521 125.872 65.4657 126.149 65.5202C126.351 65.0977 125.942 64.7909 125.81 64.432Z" fill="black"/>
<path d="M92.8313 65.5476C93.2632 65.484 93.7542 65.693 93.4882 66.2133C93.0313 66.3201 92.9745 65.8521 92.8313 65.5476Z" fill="black"/>
<path d="M102.465 67.1559C102.674 66.7265 102.829 66.2199 103.252 65.9472C102.64 67.065 102.36 68.3327 101.738 69.4392C101.817 68.6349 102.167 67.8965 102.465 67.1559Z" fill="black"/>
<path d="M93.4859 66.7449C93.9724 66.9335 94.5612 67.0062 94.8658 67.4788C94.2702 67.7378 93.9179 67.038 93.4859 66.7449Z" fill="black"/>
<path d="M95.4774 68.2466C95.6001 68.1034 95.7251 67.9649 95.8524 67.8285C95.957 68.1398 96.057 68.451 96.1457 68.7691C95.9024 68.6237 95.6547 68.4738 95.4774 68.2466Z" fill="black"/>
<path d="M96.7253 68.6327C97.0367 68.3737 97.4914 68.8895 97.1095 69.1167C96.7912 69.3643 96.3139 68.8577 96.7253 68.6327Z" fill="black"/>
<path d="M121.105 69.2121C121.373 68.9599 121.673 68.7146 122.067 68.8622C121.917 69.562 121.057 69.303 120.794 69.8982C120.678 69.8914 120.444 69.8801 120.325 69.8732C120.098 70.1322 119.953 70.6571 119.518 70.423L119.239 70.6071C119.114 70.5753 118.859 70.5139 118.734 70.4821C118.893 70.0414 119.298 70.0232 119.65 70.3549C119.637 70.2277 119.605 69.9709 119.589 69.8414C120.169 69.8483 120.6 69.4302 121.105 69.2121Z" fill="black"/>
<path d="M98.5393 70.123C98.7825 70.0071 99.028 69.8163 99.3167 69.9004C99.3145 70.0458 99.3145 70.332 99.3145 70.4752C99.0553 70.3593 98.7962 70.2411 98.5393 70.123Z" fill="black"/>
<path d="M99.9076 70.3662C100.267 70.3344 100.624 70.4298 100.931 70.6138C101.097 71.4181 99.6099 70.9842 99.9076 70.3662Z" fill="black"/>
<path d="M117.641 70.8139C117.92 70.5685 118.309 70.5504 118.648 70.439C118.418 70.6503 118.482 71.1865 118.1 71.2365C117.866 71.1615 117.711 71.0206 117.641 70.8139Z" fill="black"/>
<path d="M101.199 71.4091C101.54 71.0342 102.492 70.9706 102.392 71.6771C101.988 71.6113 101.588 71.5317 101.199 71.4091Z" fill="black"/>
<path d="M102.883 71.934C103.042 71.6318 103.327 71.5091 103.647 71.475C103.656 71.6295 103.674 71.9408 103.683 72.0953C103.415 72.0453 103.149 71.993 102.883 71.934Z" fill="black"/>
<path d="M115.433 71.575C115.561 71.5522 115.813 71.5091 115.938 71.4864C116.159 71.893 115.695 72.1747 115.34 72.1089C115.363 71.9771 115.411 71.709 115.433 71.575Z" fill="black"/>
<path d="M114.008 71.6794C114.231 71.7339 114.454 71.7884 114.676 71.8475C114.692 71.9475 114.724 72.1519 114.742 72.2542C114.497 72.2837 114.251 72.3155 114.008 72.3451C114.008 72.1769 114.008 71.8452 114.008 71.6794Z" fill="black"/>
<path d="M104.306 71.9383C104.529 71.6316 105.197 71.9428 104.879 72.2904C104.656 72.5517 104.036 72.27 104.306 71.9383Z" fill="black"/>
<path d="M105.709 72.3452C105.802 71.9294 106.482 72.0453 106.589 72.3952C106.491 72.7609 105.788 72.7064 105.709 72.3452Z" fill="black"/>
<path d="M112.669 72.7928C112.765 72.6088 112.717 72.318 112.928 72.2112C113.117 72.3521 113.299 72.5065 113.479 72.661C113.208 72.7065 112.94 72.7519 112.669 72.7928Z" fill="black"/>
<path d="M107.466 72.3883C107.7 72.0134 108.214 72.4632 107.968 72.779C107.734 73.1312 107.202 72.7041 107.466 72.3883Z" fill="black"/>
<path d="M108.775 72.92C108.893 72.7269 108.959 72.3589 109.266 72.4611C109.305 72.5929 109.382 72.8541 109.419 72.9836C109.257 72.9677 108.937 72.9359 108.775 72.92Z" fill="black"/>
<path d="M111.435 72.4495C111.64 72.5767 111.89 72.688 111.876 72.9788C111.246 73.2356 110.551 73.2128 109.889 73.1106C110.023 72.9198 110.151 72.7244 110.276 72.529C110.576 73.0447 111.29 73.1901 111.435 72.4495Z" fill="black"/>
<path d="M141.552 84.9771C141.746 84.057 141.877 83.1028 142.325 82.2644C142.366 82.7415 142.346 83.2232 142.25 83.6935C141.807 86.029 141.425 88.3805 141.295 90.7569C141.216 91.9565 141.368 93.1674 141.17 94.3601C141.064 94.3465 140.852 94.317 140.745 94.3033C140.723 91.1772 140.945 88.0442 141.552 84.9771Z" fill="black"/>
<path d="M74.8844 87.6215L75.3254 87.7011C76.7848 89.5095 78.0373 91.4929 79.1944 93.5058C78.9148 93.4513 78.6943 93.2809 78.5465 93.0446C77.2622 91.2839 75.9619 89.5118 74.8844 87.6215Z" fill="black"/>
<path d="M74.8029 90.9635C75.6348 91.0726 75.969 91.9972 76.4282 92.5902C76.8487 93.4717 77.5557 94.1624 78.0376 94.9984C77.201 94.6895 76.7942 93.8511 76.2895 93.1832C75.8008 92.438 75.2348 91.7428 74.8029 90.9635Z" fill="black"/>
<path d="M68.397 93.3853C68.613 93.1331 68.9221 92.9946 69.2063 92.8355C68.4902 94.0737 67.6173 95.2256 67.0081 96.5297C65.6033 99.2901 65.0032 102.364 64.4394 105.381C64.3553 105.442 64.1871 105.561 64.1007 105.62C64.0643 104.899 64.2348 104.195 64.3599 103.491C65.0509 99.9148 66.1602 96.3161 68.397 93.3853Z" fill="black"/>
<path d="M97.9436 104.97C98.1391 104.674 98.2346 104.238 98.6461 104.17C98.5051 104.999 98.0323 105.708 97.68 106.456C96.1956 109.42 94.8521 112.494 94.2202 115.766C93.4769 119.59 93.0472 123.472 92.8858 127.364C92.8676 127.732 92.8767 128.143 92.5176 128.373C92.363 124.283 92.9949 120.21 93.6246 116.179C94.3816 112.222 96.0637 108.509 97.9436 104.97Z" fill="black"/>
<path d="M74.2617 110.82C74.5527 110.227 74.7141 109.498 75.2915 109.107C74.3345 111.708 73.3047 114.298 72.6796 117.007C72.6137 117.05 72.4796 117.138 72.4114 117.184C72.5955 114.964 73.4593 112.876 74.2617 110.82Z" fill="black"/>
<path d="M156.31 110.659C156.88 110.713 157.344 111.054 157.398 111.647C157.987 114.546 158.083 117.52 158.415 120.455C157.88 120.523 157.724 121.162 157.173 121.173C157.198 120.712 157.542 120.492 157.992 120.562C157.703 117.745 157.583 114.898 157.033 112.113C156.955 111.558 156.594 111.118 156.31 110.659Z" fill="black"/>
<path d="M65.6602 116.779C66.0466 116.427 66.3194 115.859 66.8899 115.782C65.9034 117.322 64.5258 118.576 63.5438 120.128C62.9005 120.984 62.58 122.036 61.9117 122.872C61.9503 122.116 62.3277 121.443 62.6664 120.785C63.4461 119.303 64.4781 117.965 65.6602 116.779Z" fill="black"/>
<path d="M69.0561 121.323C69.6994 121.019 70.3245 120.603 71.0542 120.564C70.1813 121.332 69.0266 121.7 68.0786 122.375C66.351 123.307 64.8075 124.513 63.2686 125.717C63.3686 124.963 64.0665 124.556 64.603 124.12C65.9646 123.005 67.5194 122.164 69.0561 121.323Z" fill="black"/>
<path d="M70.5519 122.548C71.1679 122.173 71.8021 121.503 72.5909 121.768C71.0133 122.961 69.3425 124.036 67.8377 125.326C66.5579 126.305 65.4531 127.528 64.0642 128.355C64.0551 128.3 64.0392 128.196 64.0301 128.143C65.9123 125.96 68.2446 124.247 70.5519 122.548Z" fill="black"/>
<path d="M150.995 124.106C151.1 124.065 151.306 123.984 151.411 123.94C150.652 126.664 149.406 129.216 148.495 131.888C148.101 132.642 148.049 133.751 147.183 134.116C148.029 132.078 148.663 129.961 149.538 127.934C150.077 126.678 150.484 125.372 150.995 124.106Z" fill="black"/>
<path d="M122.803 129.584C123.026 129.188 123.042 128.614 123.512 128.407C123.465 128.854 123.331 129.284 123.158 129.697C121.567 133.666 119.43 137.392 117.193 141.027C116.691 141.659 116.345 142.584 115.509 142.818C116.238 141.575 117.175 140.455 117.841 139.167C119.589 136.022 121.439 132.924 122.803 129.584Z" fill="black"/>
<path d="M59.7293 131.051C59.8384 130.87 59.9498 130.69 60.0612 130.513C61.0296 133.598 61.5456 136.831 61.4774 140.069C61.3933 139.95 61.2273 139.719 61.1432 139.601C60.9705 138.437 60.9409 137.26 60.8091 136.093C60.6113 134.382 60.143 132.719 59.7293 131.051Z" fill="black"/>
<path d="M95.7774 134.078C96.1252 134.289 96.2707 134.68 96.448 135.025C97.6528 137.497 99.3122 139.708 101.047 141.83C101.674 142.62 102.456 143.277 103.033 144.108C102.711 144.254 102.385 144.172 102.167 143.897C100.437 142.034 98.8416 140.042 97.5073 137.874C96.7935 136.686 95.9388 135.489 95.7774 134.078Z" fill="black"/>
<path d="M82.761 135.645C83.3066 136.032 83.2657 136.788 83.518 137.354C84.0431 139.201 84.9387 140.918 85.4911 142.754C85.2115 142.72 85.0115 142.543 84.9206 142.282C84.1772 140.8 83.6703 139.215 83.1384 137.649C82.9383 136.999 82.6792 136.338 82.761 135.645Z" fill="black"/>
<path d="M93.4723 135.679L93.7905 135.709C94.3338 136.406 94.6203 137.274 95.084 138.028C95.9 139.564 96.9775 140.937 98.0164 142.327C98.6665 143.195 99.5098 143.901 100.105 144.815C99.3757 144.837 98.9325 144.174 98.4596 143.724C96.3615 141.345 94.7134 138.594 93.4723 135.679Z" fill="black"/>
<path d="M124.378 139.603C125.201 138.592 125.804 137.351 126.888 136.584C125.499 138.992 123.728 141.155 122.035 143.352C121.498 144.038 120.939 144.722 120.232 145.242L120.221 144.878C121.614 143.124 123.096 141.443 124.378 139.603Z" fill="black"/>
<path d="M135.71 140.269C136.14 138.951 136.526 137.556 137.436 136.475C137.517 137.065 137.199 137.595 136.983 138.122C136.447 139.301 136.044 140.535 135.633 141.761C135.408 142.359 135.242 143.011 134.785 143.481C134.971 142.379 135.406 141.341 135.71 140.269Z" fill="black"/>
<path d="M133.182 138.594C133.385 138.376 133.646 138.238 133.951 138.238C132.991 139.53 131.793 140.621 130.802 141.889C130.252 142.466 129.845 143.247 129.07 143.556C129.182 143.231 129.361 142.938 129.584 142.681C130.73 141.273 131.853 139.835 133.182 138.594Z" fill="black"/>
<path d="M151.827 139.467C152.052 139.28 152.341 139.233 152.625 139.208C152.109 139.96 151.216 140.346 150.597 141.012C149.431 141.963 148.685 143.363 147.401 144.167C147.44 143.527 148.04 143.147 148.392 142.67C149.381 141.448 150.536 140.362 151.827 139.467Z" fill="black"/>
<path d="M148.192 145.785C148.963 143.442 150.663 141.457 152.62 140.003C152.441 140.612 151.977 141.057 151.536 141.486C150.172 142.781 149.111 144.397 148.485 146.169C148.413 146.073 148.267 145.882 148.192 145.785Z" fill="black"/>
<path d="M65.2757 143.313C66.3578 144.095 67.1602 145.187 68.0308 146.185C69.0037 147.364 70.0789 148.5 70.8018 149.856C70.7927 149.97 70.7723 150.197 70.7632 150.311C70.4813 150.058 70.2267 149.777 70.0062 149.47C68.7992 147.816 67.4125 146.305 65.9986 144.831C65.6235 144.408 65.1621 143.933 65.2757 143.313Z" fill="black"/>
<path d="M155.157 145.101C155.946 144.474 156.876 144.022 157.821 143.681C157.151 144.549 156.105 144.988 155.164 145.492C155.162 145.394 155.157 145.199 155.157 145.101Z" fill="black"/>
<path d="M62.3253 144.438C63.1663 144.435 63.771 145.065 64.412 145.514C65.4327 146.219 66.2738 147.139 67.2217 147.93C67.7877 148.484 68.5628 148.97 68.7151 149.806C67.9104 149.688 67.4785 148.947 66.9171 148.45C66.0851 147.691 65.2963 146.889 64.4484 146.148C63.771 145.542 62.9095 145.149 62.3253 144.438Z" fill="black"/>
<path d="M155.019 146.782C155.869 146.296 156.573 145.44 157.605 145.371C157.349 145.751 157.176 146.239 156.742 146.46C154.78 147.541 152.816 148.654 151.05 150.04C151.891 148.479 153.625 147.755 155.019 146.782Z" fill="black"/>
<path d="M149.02 148.754C150.361 147.623 151.813 146.614 153.318 145.717C153.461 145.701 153.748 145.667 153.891 145.651C153.027 146.557 151.906 147.146 150.89 147.857C149.986 148.45 149.179 149.179 148.244 149.722C148.426 149.343 148.69 149.013 149.02 148.754Z" fill="black"/>
<path d="M97.8822 146.762C97.9118 146.739 97.9686 146.698 97.9959 146.678C98.1664 147.175 98.0868 147.711 98.1255 148.229C98.1527 149.62 98.3914 150.992 98.4233 152.382C98.0391 152.198 98.1618 151.733 98.1005 151.396C97.9322 149.858 97.8254 148.309 97.8822 146.762Z" fill="black"/>
<path d="M121.321 147.396C121.394 147.4 121.537 147.414 121.607 147.421C121.517 149 121.403 150.597 121.023 152.137C120.969 152.203 120.862 152.335 120.807 152.401C120.914 150.726 121.289 149.077 121.321 147.396Z" fill="black"/>
<path d="M115.165 150.799C115.288 149.702 114.967 148.484 115.438 147.464C115.395 149.043 115.615 150.663 115.247 152.212C115.179 152.248 115.045 152.319 114.979 152.355C114.99 151.83 115.051 151.31 115.165 150.799Z" fill="black"/>
<path d="M90.4423 149.036C90.9924 149.724 90.7605 150.738 90.8969 151.578C90.831 151.578 90.6991 151.576 90.6355 151.576C90.5514 150.731 90.4377 149.886 90.4423 149.036Z" fill="black"/>
</svg>
