<svg width="24" height="24" viewBox="0 0 24 24" fill="none" xmlns="http://www.w3.org/2000/svg">
<path d="M20.3172 5.07216C20.2429 4.80854 20.0755 4.58084 19.846 4.43134H19.8245L15.4383 2.17771C15.2645 2.0661 15.0633 2.00461 14.8568 2H9.14862C8.94216 2.00046 8.73989 2.05825 8.56435 2.16693L4.19709 4.42326L4.15671 4.4448C3.92636 4.59338 3.75866 4.82145 3.68552 5.08562L2 10.7668L2.45773 16.7119C2.48002 17.0036 2.61116 17.2763 2.82513 17.4758C3.03911 17.6753 3.32027 17.7871 3.61281 17.7889H5.44642V18.4001C5.44743 19.0652 5.70007 19.7052 6.15357 20.1917C6.60708 20.6782 7.22786 20.975 7.89122 21.0226C9.20736 21.2599 10.5415 21.3833 11.8788 21.3915H12.1265C13.463 21.383 14.7962 21.2596 16.1115 21.0226C16.7744 20.9744 17.3945 20.6772 17.8474 20.1908C18.3004 19.7044 18.5526 19.0647 18.5536 18.4001V17.7889H20.3899C20.6823 17.7876 20.9635 17.676 21.1772 17.4763C21.3909 17.2766 21.5212 17.0036 21.5423 16.7119L22 10.7668L20.3172 5.07216ZM13.9844 2.94508C13.8773 3.3907 13.6232 3.78729 13.2633 4.07097C12.9033 4.35466 12.4583 4.50892 12 4.50892C11.5417 4.50892 11.0967 4.35466 10.7367 4.07097C10.3768 3.78729 10.1227 3.3907 10.0156 2.94508H13.9844ZM20.5999 16.6257C20.5952 16.6784 20.5711 16.7274 20.5323 16.7632C20.4935 16.799 20.4427 16.8191 20.3899 16.8196H18.5536V10.2822C18.5536 10.1565 18.5037 10.036 18.4148 9.94709C18.3259 9.85822 18.2054 9.80829 18.0797 9.80829C17.954 9.80829 17.8335 9.85822 17.7446 9.94709C17.6557 10.036 17.6058 10.1565 17.6058 10.2822V18.3786C17.6053 18.8071 17.4416 19.2192 17.148 19.5313C16.8544 19.8434 16.453 20.032 16.0253 20.0587H15.9661C14.6982 20.2894 13.4126 20.4092 12.1239 20.4168H11.895C10.6045 20.4094 9.31708 20.2896 8.04739 20.0587H7.99085C7.56272 20.0327 7.16062 19.8444 6.86646 19.5322C6.57231 19.2201 6.40823 18.8075 6.40765 18.3786V10.2822C6.40765 10.1565 6.35772 10.036 6.26885 9.94709C6.17998 9.85822 6.05944 9.80829 5.93376 9.80829C5.80808 9.80829 5.68755 9.85822 5.59868 9.94709C5.5098 10.036 5.45988 10.1565 5.45988 10.2822V16.8088H3.62628C3.57327 16.809 3.52216 16.7891 3.48321 16.7531C3.44426 16.7172 3.42034 16.6678 3.41627 16.615L2.97199 10.8422L4.60635 5.32794C4.61691 5.2917 4.63857 5.25968 4.66828 5.2364L9.06516 2.97199C9.18273 3.66781 9.54294 4.29951 10.0819 4.75505C10.6209 5.21058 11.3037 5.46051 12.0094 5.46051C12.7151 5.46051 13.398 5.21058 13.937 4.75505C14.4759 4.29951 14.8361 3.66781 14.9537 2.97199L19.3452 5.23102C19.3742 5.25445 19.3949 5.28652 19.4044 5.32256L21.0495 10.853L20.5999 16.6257Z" fill="#182A37"/>
</svg>
