<svg width="24" height="24" viewBox="0 0 24 24" fill="none" xmlns="http://www.w3.org/2000/svg">
<path d="M21.9794 10.6195L20.3244 5.04973C20.2486 4.78142 20.0746 4.55134 19.8371 4.40501H19.8183L15.4533 2.16587C15.2793 2.0567 15.0777 1.99918 14.8722 2.00001H9.12542C8.91911 1.99954 8.71683 2.05702 8.54164 2.16587L4.19807 4.3943L4.16058 4.41838C3.931 4.56608 3.76337 4.79252 3.68927 5.05508L2.03968 10.6168C2.00007 10.7611 1.98998 10.9118 2.01002 11.0601C2.03006 11.2083 2.07981 11.351 2.1563 11.4796C2.2328 11.6082 2.33446 11.7201 2.45521 11.8086C2.57597 11.8971 2.71334 11.9603 2.85912 11.9945L5.4915 12.6045V18.2679C5.4912 18.9286 5.74167 19.5649 6.1924 20.0484C6.64314 20.5319 7.26062 20.8268 7.92036 20.8735C9.22936 21.1093 10.5563 21.2319 11.8863 21.24H12.1327C13.4591 21.2322 14.7824 21.1105 16.088 20.8762C16.748 20.8295 17.3658 20.5347 17.8169 20.0513C18.2681 19.5678 18.5191 18.9315 18.5195 18.2705V12.6072L21.1573 11.9945C21.3011 11.9582 21.4363 11.8935 21.5548 11.8044C21.6734 11.7153 21.773 11.6034 21.8478 11.4754C21.9225 11.3474 21.9711 11.2058 21.9904 11.0588C22.0098 10.9118 21.9997 10.7625 21.9606 10.6195H21.9794ZM13.9831 2.93633C13.8766 3.37908 13.624 3.77312 13.2659 4.05498C12.9079 4.33684 12.4654 4.49012 12.0095 4.49012C11.5537 4.49012 11.1111 4.33684 10.7531 4.05498C10.3951 3.77312 10.1425 3.37908 10.0359 2.93633H13.9831ZM21.0528 11.002C21.0279 11.0402 20.9898 11.0679 20.9457 11.0796L18.5356 11.6414V10.2262C18.5356 10.1014 18.4859 9.9816 18.3976 9.8933C18.3092 9.805 18.1893 9.75539 18.0643 9.75539C17.9393 9.75539 17.8194 9.805 17.731 9.8933C17.6426 9.9816 17.593 10.1014 17.593 10.2262V18.2705C17.5924 18.6967 17.4292 19.1066 17.1366 19.4168C16.8441 19.7269 16.4442 19.914 16.0184 19.9399H15.9648C14.703 20.1702 13.4234 20.2893 12.1407 20.2957H11.8997C10.6101 20.2925 9.32321 20.1753 8.05426 19.9452H7.99802C7.57221 19.9193 7.1723 19.7323 6.87974 19.4221C6.58718 19.112 6.42399 18.702 6.42342 18.2759V10.2262C6.4283 10.1616 6.41978 10.0966 6.39838 10.0355C6.37697 9.97426 6.34315 9.91814 6.29903 9.87061C6.25491 9.82308 6.20145 9.78517 6.14198 9.75924C6.08251 9.73331 6.01833 9.71993 5.95344 9.71993C5.88856 9.71993 5.82437 9.73331 5.7649 9.75924C5.70543 9.78517 5.65197 9.82308 5.60785 9.87061C5.56373 9.91814 5.52991 9.97426 5.50851 10.0355C5.4871 10.0966 5.47858 10.1616 5.48347 10.2262V11.6414L3.07335 11.0823C3.02861 11.0703 2.99024 11.0416 2.96623 11.002C2.94293 10.9625 2.93619 10.9154 2.94749 10.871L4.59708 5.31457C4.6082 5.27885 4.62963 5.24721 4.65867 5.22361L9.07187 2.95505C9.1872 3.64875 9.54522 4.27906 10.0822 4.73375C10.6192 5.18843 11.3003 5.43799 12.0042 5.43799C12.7081 5.43799 13.3892 5.18843 13.9262 4.73375C14.4631 4.27906 14.8212 3.64875 14.9365 2.95505C14.9526 2.95505 19.3524 5.22361 19.3524 5.22361C19.3815 5.24663 19.4022 5.2786 19.4113 5.31457L21.0662 10.8816C21.0712 10.9236 21.0617 10.9661 21.0394 11.002H21.0528Z" fill="#182A37"/>
</svg>
