<svg width="219" height="220" viewBox="0 0 219 220" fill="none" xmlns="http://www.w3.org/2000/svg">
<path d="M84.3048 56.4408C86.3982 56.2314 88.5139 56.4604 90.6157 56.4464C102.708 56.4492 114.8 56.3794 126.892 56.4352C129.612 56.3906 132.347 56.5525 135.056 56.2314C135.87 56.7032 136.035 57.6915 136.127 58.5513C136.277 60.4385 135.999 62.3284 136.138 64.2156C136.651 64.8549 137.259 65.4243 137.685 66.1306C139.422 69.006 140.489 72.2136 141.588 75.3682C142.842 78.8299 143.486 82.473 144.604 85.9765C145.663 90.0048 146.842 93.9969 147.87 98.0336C149.741 104.761 150.633 111.699 151.848 118.563C152.779 123.273 153.429 128.035 154.491 132.723C155.472 138.543 156.852 144.294 157.593 150.154C157.847 151.173 156.606 151.231 156.041 151.711C155.202 152.368 154.254 152.884 153.462 153.599C153.471 154.243 153.423 155.05 152.779 155.38C151.829 155.408 150.998 154.891 150.162 154.514C149.052 153.975 147.857 153.638 146.661 153.356C146.783 154.838 146.995 156.315 147.051 157.803C145.735 158.116 144.375 158.152 143.034 158.266C140.283 158.428 137.635 157.571 134.953 157.119C133.663 156.862 132.369 157.169 131.112 157.434C131.151 159.107 131.232 160.776 131.458 162.434C129.1 162.736 126.708 163.121 124.336 162.688C121.493 162.303 118.992 160.812 116.33 159.852C114.956 159.349 113.462 159.528 112.046 159.726C111.533 159.802 110.95 159.883 110.574 160.279C110.131 161.139 110.373 162.158 110.582 163.051C108.046 163.517 105.448 163.523 102.883 163.355C100.352 163.14 98.0387 162.001 95.8728 160.745C94.6185 160.167 93.3279 159.193 91.87 159.556C90.3927 159.958 89.4784 161.315 88.1515 162.001C86.3703 163.096 83.8895 163.693 82.0804 162.353C81.955 161.111 82.1222 159.857 82.2532 158.621C79.0086 158.093 75.6831 158.124 72.4887 157.286C70.9695 156.926 69.5117 156.348 68.1123 155.656C67.6357 155.402 67.0949 155.142 66.858 154.623C66.8747 153.587 67.4434 152.655 67.5047 151.622C65.3973 150.91 63.4433 149.83 61.4949 148.772C61.5757 146.399 62.1945 144.085 62.5736 141.748C63.3541 137.083 64.3019 132.446 65.3249 127.829C66.5235 123.228 67.304 118.53 68.3716 113.896C69.6901 108.209 71.1981 102.559 72.0929 96.783C73.1716 91.8585 74.7187 87.0541 76.0845 82.2078C76.5389 80.4965 77.2553 78.8717 77.7514 77.1744L77.8462 77.0125C78.1835 75.7953 78.5765 74.5949 78.9612 73.3917C80.157 70.4354 80.9348 67.1384 83.2149 64.7851C83.4351 62.0018 82.6853 58.931 84.3048 56.4408ZM123.243 57.256C113.019 57.2336 102.794 57.2783 92.5725 57.2699C90.6212 57.2895 88.6728 57.2504 86.7271 57.1499C86.0832 57.1499 85.2442 57.1555 84.9654 57.8701C84.0066 59.8913 84.6393 62.2112 84.6951 64.3496C101.373 64.2267 118.056 64.3412 134.736 64.3133C135.001 61.932 135.436 59.4 134.599 57.0885C130.817 57.2839 127.028 57.242 123.243 57.256ZM84.6923 64.8911C83.856 65.7649 83.5299 66.9486 83.0309 68.0206C81.9299 70.4465 81.4281 73.0818 80.6421 75.6167C79.5159 79.1258 78.61 82.6991 77.5257 86.2221C76.5473 89.7815 75.1786 93.2208 74.2476 96.7941C73.4699 99.6137 72.7591 102.45 72.0037 105.275C70.8218 109.77 70.0469 114.354 68.9709 118.87C67.6524 124.538 66.5151 130.246 65.2747 135.93C64.5527 138.786 64.221 141.729 63.4322 144.568C63.1311 145.659 62.9109 146.773 62.8691 147.904C64.051 148.456 65.2273 149.026 66.4176 149.559C66.9806 149.841 67.6329 149.869 68.2378 149.721C68.5193 149.506 68.5026 149.085 68.6225 148.78C69.9939 141.837 71.3486 134.892 72.7284 127.952C73.2971 125.3 73.9047 122.653 74.3089 119.97C74.1584 119.993 73.8601 120.037 73.7096 120.057C73.7068 120.029 73.7012 119.97 73.6985 119.942C74.5709 120.241 74.4873 119.18 74.6629 118.636C75.58 113.737 76.8539 108.918 78.1473 104.108C79.2121 100.239 80.6003 96.4675 81.7013 92.6094C82.8999 88.4666 84.4275 84.4327 85.7654 80.3373C86.8693 76.3565 88.5892 72.5877 89.8157 68.6459C90.1028 67.9508 90.2003 67.1105 90.7941 66.5913C90.7216 67.5795 90.3509 68.5063 90.0414 69.436C89.431 71.1947 88.9264 72.9897 88.277 74.7345C86.6045 79.1118 85.2832 83.6092 83.764 88.0367C82.5515 91.5207 81.6595 95.1052 80.4804 98.5975C78.2225 106.107 76.2239 113.703 74.7438 121.405C73.8016 125.735 72.9598 130.085 72.157 134.442C70.6629 140.941 69.9967 147.597 68.4106 154.076C69.5479 154.595 70.7047 155.081 71.9117 155.419C75.4908 156.491 79.2762 156.334 82.9194 157.06C83.2316 155.905 81.7097 156.019 81.0072 155.773C81.7431 155.773 82.4595 155.952 83.1675 156.133C83.3264 153.666 83.739 151.22 84.093 148.775C85.9411 136.533 87.4435 124.222 90.1808 112.137C90.861 108.617 91.5578 105.096 92.3383 101.596C93.4115 96.487 94.2254 91.3253 95.307 86.2166C96.1962 82.4087 97.1077 78.6037 98.0192 74.8015C98.6464 72.1634 98.9279 69.4025 100.14 66.9402C99.3377 71.6274 98.2534 76.2643 97.3112 80.9264C96.5056 84.8766 95.5049 88.7877 94.8582 92.7714C94.4735 95.1722 93.7767 97.5032 93.3112 99.8873C90.4233 112.927 87.8421 126.045 86.0999 139.291C85.5034 144.411 84.6142 149.495 84.0902 154.626C83.87 156.823 83.4017 159 83.3961 161.214C85.0435 161.764 86.7299 161.069 88.1014 160.167C89.3501 159.319 90.7383 158.705 92.1794 158.263C92.1348 152.091 92.8791 145.944 93.7042 139.839C94.1558 136.944 94.7133 134.063 94.9781 131.143C94.9307 133.256 94.5153 135.33 94.3202 137.429C93.5453 144.342 92.4666 151.259 92.6505 158.238C96.1655 158.37 98.8889 161.103 102.331 161.544C104.659 161.865 107.026 161.747 109.364 161.63C109.467 156.307 109.244 150.974 109.649 145.659C109.774 142.767 110.089 139.892 110.304 137.008C110.552 132.265 110.686 127.516 110.833 122.77C110.956 115.325 110.777 107.88 110.817 100.432C110.889 89.3572 110.73 78.2743 111.157 67.2054C111.168 66.9235 111.285 66.6638 111.377 66.4014C111.764 70.4772 111.692 74.5838 111.77 78.6735C111.965 83.598 111.965 88.5364 111.753 93.4609C111.661 100.931 111.639 108.405 111.608 115.875L111.488 116.037C111.488 120.981 111.391 125.925 111.134 130.863C111.07 134.211 110.953 137.561 110.577 140.891C110.083 146.918 109.916 152.976 110.097 159.023C111.909 157.965 114.097 157.82 116.124 158.174C118.435 158.752 120.509 159.989 122.778 160.687C125.08 161.452 127.558 161.234 129.93 161.036C130.22 160.561 129.975 159.902 130.025 159.358C129.638 154.802 129.783 150.224 129.702 145.656C129.484 141.846 129.607 138.021 129.384 134.208C128.996 124.814 128.531 115.423 128.11 106.032C127.268 95.4988 126.861 84.8849 124.765 74.5C124.194 71.8898 123.948 69.2098 123.115 66.6611C123.731 66.8341 123.867 67.5041 124.063 68.029C126.343 74.7848 127.012 81.9258 127.823 88.9691C128.21 92.5899 128.497 96.2218 128.757 99.8566C129.763 110.445 129.81 121.093 130.51 131.701C130.711 139.758 131.201 147.817 130.825 155.874C131.993 155.695 133.167 155.55 134.326 155.307C134.137 154.902 133.877 154.523 133.813 154.076C133.403 151.192 133.239 148.283 133.144 145.374C132.896 140.545 132.765 135.707 132.498 130.88C132.266 126.751 132.3 122.614 132.286 118.482C132.528 119.616 132.531 120.78 132.606 121.933C132.796 126.863 132.885 131.801 133.233 136.726C133.705 142.954 133.406 149.255 134.53 155.422C136.358 155.637 138.103 156.298 139.94 156.443C141.847 156.605 143.773 156.711 145.68 156.482C145.64 156.245 145.568 155.771 145.529 155.533C144.994 155.516 144.459 155.57 143.926 155.625C143.915 155.561 143.893 155.436 143.882 155.371C144.431 155.321 144.98 155.257 145.535 155.265C144.467 147.052 143.829 138.792 142.733 130.584C142.036 125.227 141.22 119.884 140.439 114.538C139.541 109.851 138.694 105.152 137.685 100.487C135.792 91.9702 133.607 83.517 131.101 75.1616C130.404 72.6771 129.512 70.2232 129.141 67.6633C131.753 74.9439 134.109 82.3306 135.837 89.8764C136.447 92.8886 137.286 95.8477 137.975 98.8404C138.764 102.151 139.377 105.501 140.06 108.835C143.157 122.966 144.988 137.343 146.332 151.737C147.636 152.086 149.172 152.097 150.237 152.993C150.594 152.954 150.895 152.775 151.104 152.479C151.232 152.649 151.489 152.984 151.614 153.155C151.483 153.255 151.349 153.356 151.221 153.462L152.102 153.752C152.074 153.015 152.08 152.278 152.027 151.544C151.413 145.938 150.53 140.366 149.526 134.819C148.76 129.529 147.812 124.272 147.029 118.988C145.409 109.53 144.185 99.9766 141.574 90.7251C140.704 87.4588 140.046 84.1368 139.093 80.8901C137.855 76.3844 137.167 71.6525 134.948 67.4846C136.693 69.3662 137.284 71.9596 137.936 74.366C140.25 83.9246 143.263 93.3213 145.041 103.003C146.106 109.803 147.388 116.57 148.414 123.376C149.869 132.589 151.455 141.782 152.815 151.008C153.278 150.592 153.721 150.154 154.204 149.763C153.816 150.254 153.373 150.695 152.935 151.142C153.064 151.48 153.192 151.818 153.323 152.155C154.226 151.407 155.202 150.723 155.988 149.855C156.124 148.646 156.049 147.412 155.787 146.226C154.201 138.326 152.779 130.394 151.151 122.502C149.663 115.091 149.075 107.503 147.023 100.208C145.643 95.0745 144.325 89.9239 142.892 84.8012C141.794 80.5746 140.629 76.3537 139.048 72.2778C138.167 69.5839 136.891 66.9905 134.973 64.8828C128.829 64.8549 122.686 64.8744 116.542 64.8828C105.924 64.9135 95.307 64.8102 84.6923 64.8911Z" fill="black"/>
<path d="M107.064 68.9251C107.232 69.9385 106.945 70.9547 106.925 71.9708C106.373 77.1884 105.916 82.42 105.258 87.6292C104.439 93.3381 103.859 99.0778 102.972 104.776C102.192 111.174 101.135 117.536 99.8811 123.856C98.9752 129.429 97.4616 134.875 96.3299 140.403C95.2846 144.981 94.3424 149.581 93.4894 154.199C93.2525 155.335 93.2692 156.522 92.9319 157.635C92.7257 156.097 93.18 154.595 93.3612 153.082C94.3563 147.493 95.6135 141.955 96.8567 136.416C97.3529 134.099 98.0358 131.827 98.4707 129.498C99.5634 123.929 100.556 118.343 101.529 112.754C102.465 105.306 103.435 97.8578 104.31 90.4013C105.105 84.9325 105.615 79.4245 106.203 73.9306C106.401 72.2472 106.621 70.5638 107.064 68.9251Z" fill="black"/>
<path d="M117.796 69.7401C118.081 70.251 118.287 70.8066 118.387 71.3844C119.669 77.9197 119.725 84.6057 119.898 91.2358C120.115 98.0614 119.948 104.968 118.396 111.648C116.706 118.675 116.377 125.925 116.107 133.119C115.951 138.325 115.812 143.535 115.864 148.747C115.892 150.363 115.876 151.982 115.764 153.599C115.207 148.462 115.427 143.297 115.541 138.144C115.8 130.322 115.895 122.441 117.342 114.722C118.267 110.375 119.215 105.998 119.304 101.537C119.694 95.6913 119.382 89.8316 119.196 83.9859C118.772 79.2345 118.66 74.4441 117.796 69.7401Z" fill="black"/>
<path d="M76.8204 155.17C77.0546 154.958 77.7096 155.022 77.6957 155.413C77.4643 155.637 76.8232 155.542 76.8204 155.17Z" fill="black"/>
<path d="M124.394 159.698C124.478 159.302 125.178 159.355 125.256 159.732C125.192 160.153 124.422 160.123 124.394 159.698Z" fill="black"/>
<path d="M125.911 159.855C126.181 159.483 126.443 159.495 126.694 159.885C126.423 160.229 126.164 160.218 125.911 159.855Z" fill="black"/>
<path d="M103.787 160.207C103.814 159.718 104.612 159.732 104.645 160.209C104.612 160.67 103.775 160.701 103.787 160.207Z" fill="black"/>
</svg>
