<svg width="220" height="220" viewBox="0 0 220 220" fill="none" xmlns="http://www.w3.org/2000/svg">
<path d="M83.7499 60.0617C89.7088 57.8161 96.0323 56.1352 102.45 56.5599C112.253 57.1564 121.529 60.7078 130.769 63.7668C135.62 65.3889 140.742 66.3693 145.279 68.8409C147.669 70.106 149.586 72.1755 150.774 74.6063C153.128 79.4636 154.24 84.7863 155.621 89.9779C158.281 100.081 160.581 110.274 162.791 120.486C168.948 122.659 175.235 124.58 180.996 127.729C184.772 129.821 188.913 131.683 191.681 135.135C192.788 136.531 193.589 138.392 192.982 140.177C192.036 143.48 189.093 145.59 186.222 147.14C179.452 150.637 172.062 152.607 164.888 155.056C155.968 157.939 146.796 159.963 137.547 161.418C115.66 165.146 93.0528 164.314 71.4676 159.132C66.8679 158.129 62.3447 156.796 57.9205 155.201C50.0398 152.476 42.3346 149.01 35.5386 144.126C32.5142 141.79 29.4402 139.269 27.5319 135.889C25.6731 132.658 26.7263 128.474 29.2242 125.903C32.2666 122.921 36.4748 121.543 40.5479 120.68C46.0207 119.731 51.5745 119.307 57.1194 119.067C58.6271 111.987 59.9368 104.857 61.4671 97.7766C62.4302 92.7341 63.6454 87.7368 65.2026 82.8388C66.6338 78.0629 68.5016 73.3638 71.319 69.2295C74.3705 64.9461 78.9612 62.0317 83.7499 60.0617ZM98.6517 58.4938C94.6911 58.6248 90.816 59.6008 87.0759 60.8614C81.108 62.7321 75.3877 66.2564 72.1112 71.7417C69.0687 77.0011 67.3134 82.8705 65.6032 88.6675C63.0963 98.4001 61.2015 108.277 59.1492 118.114C58.3481 121.521 58.1635 125.022 57.4209 128.438C56.9034 130.684 58.1185 132.817 59.8108 134.199C62.6687 136.983 66.3233 138.74 70.0904 139.938C80.8875 143.76 92.4453 144.596 103.805 144.795C113.463 144.619 123.117 143.579 132.564 141.546C141.678 139.386 150.927 136.323 158.236 130.223C159.438 129.143 160.82 128.118 161.49 126.595C162.188 122.908 160.352 119.429 159.785 115.859C157.017 104.369 154.505 92.7883 150.882 81.533C149.361 77.2857 147.714 72.4646 143.483 70.21C138.028 67.4538 131.921 66.4778 126.205 64.431C121.245 62.6101 116.164 61.1551 111.06 59.8041C107.014 58.7468 102.828 58.3266 98.6517 58.4938ZM34.3729 124.751C31.9606 125.903 29.7237 127.765 28.7156 130.313C27.7974 132.645 29.0666 135.112 30.4753 136.951C34.922 142.224 40.9169 145.884 47.0109 148.943C64.136 157.189 83.1333 160.736 101.978 161.938C113.261 162.588 124.562 161.558 135.737 160.013C146.773 158.44 157.687 155.91 168.201 152.155C174.083 150.172 180.078 148.369 185.618 145.522C188.242 144.162 191.033 141.921 191.199 138.736C190.335 136.138 188.008 134.398 185.888 132.848C181.172 129.78 176.054 127.395 170.856 125.284C168.223 124.236 165.433 123.608 162.903 122.307C162.867 123.644 163.106 124.964 163.295 126.279C162.854 128.136 161.409 129.505 160.181 130.878C156.643 134.38 152.426 137.19 147.84 139.115C139.374 142.653 130.35 144.677 121.259 145.73C111.452 147.153 101.478 147.28 91.6216 146.313C83.3584 145.554 75.0726 144.153 67.3494 141.008C62.7182 139.178 58.1185 136.26 55.8952 131.624C55.3956 128.072 57.0384 124.62 56.9574 121.055C54.0859 120.775 51.2325 121.326 48.3791 121.543C43.6173 122.049 38.7386 122.641 34.3729 124.751Z" fill="black"/>
<path d="M88.687 65.3616C88.9841 65.1312 89.3441 65.0137 89.6952 64.8872C87.5394 67.8874 84.4159 70.1195 82.7101 73.4631C81.0539 76.8248 79.5101 80.2949 78.718 83.9774C78.331 86.1823 78.1689 88.8482 79.8567 90.5787C81.1574 91.8936 83.3942 91.4056 84.6274 90.2308C88.327 86.9369 92.4091 84.1084 96.6622 81.5871C103.287 77.4348 110.394 73.7432 118.131 72.2702C123.603 71.8455 129.04 71.0096 134.423 69.9297C130.872 71.7054 126.907 72.4781 123.009 73.079C130.102 74.2041 136.718 77.9815 141.606 83.2409C137.182 80.7919 133.104 77.6652 128.338 75.8849C125.237 74.7192 122.046 73.558 118.693 73.5128C107.068 75.9437 96.8963 82.5405 87.4358 89.4717C85.8066 90.5832 84.2584 92.0246 82.26 92.3996C80.2797 92.7295 78.3535 91.2294 78.0294 89.2684C76.8997 83.7108 79.3391 78.3881 81.1259 73.2688C82.8541 69.9839 85.7301 67.5034 88.687 65.3616Z" fill="black"/>
<path d="M89.3083 92.7747C94.7046 88.7353 100.051 84.5287 106.06 81.4336C102.158 84.5287 97.9136 87.1584 93.917 90.127C92.4408 91.0939 91.0861 92.4088 89.3083 92.7747Z" fill="black"/>
<path d="M181.05 140.141C181.464 139.824 181.874 139.4 182.445 139.468C180.753 141.564 178.287 142.757 175.965 143.99C172.053 145.933 168.066 147.727 164.038 149.412C168.201 146.973 172.566 144.899 176.865 142.712C178.309 141.944 179.772 141.175 181.05 140.141Z" fill="black"/>
</svg>
