<svg width="220" height="219" viewBox="0 0 220 219" fill="none" xmlns="http://www.w3.org/2000/svg">
<path d="M118.67 57.5532C121.241 57.1843 123.684 56.252 126.235 55.7799C126.977 55.6609 127.683 56.0259 128.385 56.2123C131.55 57.3668 134.763 58.3824 137.885 59.6558C138.968 60.1517 140.15 60.5683 140.999 61.445C141.483 62.6352 141.066 63.9404 140.717 65.1107C138.94 70.8631 138.813 76.9805 139.123 82.9511C139.503 86.1288 139.634 89.5366 141.288 92.3612C143.704 95.0073 146.405 97.455 149.444 99.3632C150.118 99.9583 149.618 100.966 149.634 101.736C148.94 110.332 146.985 118.771 146.191 127.356C145.878 132.648 145.767 137.968 146.148 143.256C146.279 143.823 145.723 144.18 145.378 144.518C141.483 147.715 136.83 149.806 132.129 151.516C129.198 152.559 126.409 153.928 123.621 155.284C122.534 155.749 121.344 156.491 120.13 156.114C119.448 155.284 118.932 154.324 118.171 153.563C117.326 153.662 116.838 154.558 116.171 155.027C113.478 157.252 111.887 160.458 109.543 162.981C108.516 162.124 107.429 161.326 106.191 160.799C103.355 159.553 100.543 158.26 97.7302 156.967C93.6802 155.098 89.4438 153.682 85.2787 152.095C82.8313 151.182 80.3481 150.333 77.746 150C76.3894 149.802 76.0324 148.322 75.7151 147.211C74.3307 142.113 73.105 136.948 72.5219 131.692C72.1966 128.657 72.5853 125.61 72.7162 122.579C72.7202 121.214 72.2244 119.921 72.0181 118.588C71.4191 115.339 71.9229 112.015 71.4747 108.75C71.2287 106.08 70.7012 103.434 70.598 100.752C70.6456 99.7004 70.7527 98.4865 71.6294 97.7684C73.4064 96.0943 75.5643 94.8129 77.0479 92.8372C78.2339 91.2821 79.2295 89.5485 79.7293 87.6442C81.0939 82.2092 81.3835 76.5956 81.4826 71.0178C81.435 68.7367 81.7008 66.3167 80.6853 64.1943C80.4513 63.5913 80.0506 62.9525 80.3124 62.2821C80.967 61.5521 81.9388 61.2784 82.8353 60.969C86.2308 59.7233 89.6342 58.4815 93.105 57.458C95.4573 56.7558 97.9801 56.5614 100.376 57.1486C106.386 58.4538 112.601 58.3189 118.67 57.5532ZM120.999 58.4577C116.187 59.4614 111.249 59.3186 106.366 59.2036C103.228 59.1163 100.166 58.3189 97.0281 58.2395C97.2066 59.0488 97.4605 59.8343 97.7738 60.6C99.5152 64.9917 101.296 69.3754 103.383 73.6163C105.525 78.5396 108.353 83.1137 111.023 87.7593C112.57 90.2506 113.799 92.9206 115.279 95.4476C115.378 95.4476 115.58 95.4476 115.679 95.4476C117.246 91.4884 119.384 87.795 121.328 84.0143C124.66 77.8136 129.321 72.1643 130.844 65.1424C131.15 63.258 131.705 61.2943 131.185 59.398C129.535 58.7553 127.901 58.0769 126.255 57.4302C124.474 57.5691 122.76 58.18 120.999 58.4577ZM84.9971 61.4371C84.2434 61.7505 83.4184 62.0282 82.8829 62.6788C82.5338 65.4558 83.0058 68.2487 83.109 71.0257C83.2637 74.8422 82.986 78.6546 82.629 82.4512C82.0737 87.3705 80.5703 92.4247 77.1391 96.134C75.6833 97.6891 74.2117 99.871 71.8079 99.7163C71.7365 101.375 72.0181 103.017 72.153 104.663C72.6845 109.297 72.8709 113.966 73.5929 118.58C74.4457 123.476 72.9106 128.458 73.9538 133.338C74.8106 137.849 75.7944 142.348 77.1351 146.739C77.3454 147.203 77.4802 147.882 78.0316 148.044C81.1455 148.639 84.2514 149.365 87.2264 150.476C94.6481 153.448 102.074 156.463 109.079 160.327C111.665 157.371 113.839 154.074 116.548 151.226C115.664 149.83 114.608 148.469 114.208 146.834C114.089 145.458 114.612 144.109 115.196 142.887C116.473 140.031 116.425 136.845 116.711 133.79C117.1 130.061 116.957 126.308 116.969 122.567C116.881 116.684 115.727 110.88 114.418 105.167C113.994 103.33 113.938 101.39 114.386 99.5537C114.466 98.9705 114.775 98.3238 114.43 97.7724C112.823 94.8526 111.284 91.897 109.852 88.8939C107.956 85.494 105.929 82.1656 104.16 78.6943C102.276 74.9136 100.067 71.2836 98.5196 67.3402C97.155 64.4204 96.1752 61.3339 94.6679 58.4815C91.3716 59.2115 88.1506 60.243 84.9971 61.4371ZM132.776 59.9296C132.498 62.0361 132.474 64.2022 131.836 66.2493C129.999 72.4896 126.211 77.8493 123.351 83.6215C120.57 89.0486 117.111 94.2694 115.822 100.319C114.997 105.02 117.052 109.563 117.294 114.224C117.611 117.537 118.175 120.838 118.163 124.174C118.131 129.478 118 134.802 117.187 140.051C116.877 142.07 116.005 143.97 115.81 146.001C116.263 147.191 117.052 148.207 117.782 149.239C119.158 150.714 120.003 152.551 120.931 154.316C123.141 153.325 125.39 152.424 127.52 151.27C132.391 149.159 137.433 147.39 142.046 144.736C142.923 144.184 144.105 143.863 144.529 142.824C144.72 141.213 144.224 139.63 144.002 138.051C144.355 134.358 144.014 130.621 144.497 126.931C144.751 122.801 145.208 118.671 146.167 114.641C146.878 109.944 148.131 105.31 148.274 100.541C147.369 100.363 146.449 100.264 145.561 100.014C144.168 99.5775 143.204 98.4191 142.161 97.4669C139.971 95.4278 138.468 92.6706 137.889 89.7389C136.433 82.2727 136.802 74.5526 138.147 67.0982C138.52 65.6105 138.202 63.8134 139.174 62.5598C137.369 61.1078 135.017 60.4096 132.776 59.9296ZM115.525 146.382C115.35 147.862 116.62 148.85 117.576 149.758C116.885 148.632 116.088 147.576 115.525 146.382Z" fill="black"/>
<path d="M115.085 83.7204C116.16 87.0291 116.227 90.6392 115.914 94.0787C115.525 94.8999 115.176 93.4955 115.073 93.1583C114.977 90.0243 114.878 86.8585 115.085 83.7204Z" fill="black"/>
<path d="M118.282 104.338C119.146 102.462 122.276 103.124 122.597 105.064C123.125 106.774 121.554 108.345 119.896 108.401C119.575 108.286 119.253 108.175 118.932 108.067C118.067 107.06 117.496 105.56 118.282 104.338Z" fill="black"/>
<path d="M120.301 115.91C121.598 115.407 123.177 116.454 123.24 117.838C123.494 119.794 120.995 121.568 119.321 120.33C118.056 119.044 118.21 116.252 120.301 115.91Z" fill="black"/>
<path d="M128.27 131.124C132.169 129.661 136.449 129.724 140.547 130.006C141.118 130.823 141.142 131.811 141.086 132.771C136.834 132.489 132.57 132.775 128.393 133.632C128.337 132.795 128.286 131.962 128.27 131.124ZM130.15 131.62C129.46 131.85 128.349 131.763 128.46 132.906C132.371 132.33 136.326 130.605 140.293 131.882C140.114 131.553 139.94 131.22 139.765 130.89C136.544 130.744 133.304 130.93 130.15 131.62Z" fill="black"/>
<path d="M95.136 131.005C96.9091 130.795 98.6981 130.934 100.447 131.235C100.511 131.533 100.634 132.132 100.697 132.43C97.6905 131.446 94.4973 131.969 91.3994 131.922L91.6017 132.303C89.2137 132.112 86.8178 132.608 84.5092 133.16L84.414 133.882C88.0911 133.045 91.8595 132.386 95.6437 132.588C97.3296 132.541 99.0035 132.914 100.681 132.715C100.662 133.6 100.65 134.481 100.602 135.361C95.1955 135.54 89.7849 136.258 84.3743 135.913L83.7793 135.536C88.1506 135.722 92.4981 135.06 96.8655 134.992C98.0753 134.921 99.3645 135.151 100.479 134.556C99.9555 133.679 98.9123 133.874 98.0515 133.802C94.3426 133.675 90.6219 133.866 86.9448 134.35C86.0166 134.846 85.005 135.052 83.9578 135.088C84.1244 134.135 83.6326 132.442 84.9812 132.227C88.3053 131.434 91.7207 131.017 95.136 131.005Z" fill="black"/>
<path d="M118.912 134.611C117.96 133.088 118.758 130.747 120.59 130.366C121.665 130.549 123.006 130.87 123.248 132.132C123.557 134.227 120.606 136.103 118.912 134.611Z" fill="black"/>
<path d="M118.797 142.618C119.932 142.253 121.396 142.812 121.705 144.034C122.177 145.617 120.709 147.652 118.992 147.283C116.981 146.66 116.532 143.201 118.797 142.618Z" fill="black"/>
</svg>
